<svg xmlns="http://www.w3.org/2000/svg" width="210.69" height="42" viewBox="0 0 210.69 42">
  <defs>
    <style>
      .cls-1 {
        fill: #333332;
      }
    </style>
  </defs>
  <path id="Anita_Allen" data-name="Anita Allen" class="cls-1" d="M1178.07,1668.81q1.1-3.15,1.99-5.67c0.59-1.68,1.09-3.09,1.48-4.23a14.472,14.472,0,0,0,.64-2.08,2.373,2.373,0,0,0-.68-1.81,10.14,10.14,0,0,0-1.89-1.87,5.884,5.884,0,0,0-1.99-1.04,0.736,0.736,0,0,0-1.06.62,0.8,0.8,0,0,0-.05.33q-0.99,1.17-2.71,3.56t-3.97,5.48q-2.235,3.09-4.91,6.59t-5.5,6.84c-1.7.29-3.31,0.54-4.84,0.76a35.225,35.225,0,0,1-3.99.38,12.4,12.4,0,0,1-2.78-.24c-0.67-.16-1.15-0.28-1.45-0.38a0.7,0.7,0,0,0-.59-0.02,1.793,1.793,0,0,0-.23.87,2.293,2.293,0,0,0,0,.92,3.382,3.382,0,0,0,.49,1.28,3.723,3.723,0,0,0,1.18,1.11,4.207,4.207,0,0,0,2.15.47,20.44,20.44,0,0,0,2.62-.21c1.06-.14,2.2-0.29,3.43-0.45q-1.98,2.13-3.95,3.96a40.8,40.8,0,0,1-3.8,3.18,18.525,18.525,0,0,1-3.56,2.11,8.009,8.009,0,0,1-3.24.76,2.862,2.862,0,0,1-.85-0.12c-0.25-.08-0.48-0.14-0.68-0.19a1.13,1.13,0,0,0-.52,0,0.439,0.439,0,0,0-.26.4,1.523,1.523,0,0,0,.17.82,2.5,2.5,0,0,0,.82.95,5.516,5.516,0,0,0,1.65.79,8.971,8.971,0,0,0,2.65.33,7.97,7.97,0,0,0,3.71-1.11,25.957,25.957,0,0,0,4.29-3,57.559,57.559,0,0,0,4.61-4.39c1.57-1.67,3.13-3.44,4.67-5.29,1.26-.16,2.47-0.29,3.64-0.38s2.23-.16,3.21-0.19h0.75l-1.32,3.54c-0.41,1.1-.76,2.1-1.06,3s-0.55,1.67-.76,2.31a8.337,8.337,0,0,0-.35,1.44,4.252,4.252,0,0,0,.14,2.34,3.361,3.361,0,0,0,1.02,1.37,3.428,3.428,0,0,0,1.34.66,5.456,5.456,0,0,0,1.18.17,4.317,4.317,0,0,0,2.13-.43,0.907,0.907,0,0,0,.66-0.85,2.1,2.1,0,0,1-.07-0.85,4.962,4.962,0,0,1,.12-1.04,39.776,39.776,0,0,1,.89-4.25q0.615-2.355,1.42-5.05a4.546,4.546,0,0,0,1.56-1.16,3.745,3.745,0,0,0,1.08-2.1,2.942,2.942,0,0,0,0-1.32,2.047,2.047,0,0,0-.8-1.18C1176.62,1673.05,1177.35,1670.9,1178.07,1668.81Zm-10.31,5.43c-0.93.11-1.9,0.24-2.91,0.4q2.97-3.93,5.53-7.58c1.7-2.44,3.14-4.57,4.34-6.4q-0.945,3.255-2.08,6.68t-2.31,6.68C1169.54,1674.05,1168.68,1674.13,1167.76,1674.24Zm34.28,7.31q-1.635,2.34-3.31,4.49t-3.12,3.66c-0.96,1.01-1.69,1.51-2.19,1.51-0.38,0-.47-0.34-0.28-1.04,0.25-.75.58-1.67,0.99-2.74s0.83-2.19,1.27-3.37,0.89-2.36,1.35-3.54,0.86-2.29,1.23-3.31,0.66-1.9.89-2.62a8.547,8.547,0,0,0,.4-1.51,1.6,1.6,0,0,0-.33-1.09,5.323,5.323,0,0,0-.96-1.08,6.85,6.85,0,0,0-1.3-.9,4.206,4.206,0,0,0-1.28-.47,1,1,0,0,0-.38-0.05,0.521,0.521,0,0,0-.23.05,0.876,0.876,0,0,0-.38.19,8.453,8.453,0,0,0-1.72,1.34c-0.68.65-1.41,1.41-2.2,2.29s-1.6,1.84-2.45,2.86-1.66,2.03-2.44,3.02-1.49,1.92-2.17,2.79-1.23,1.59-1.67,2.19c0.44-1.13.88-2.28,1.34-3.44s0.88-2.25,1.25-3.24,0.69-1.86.92-2.6a10.677,10.677,0,0,0,.41-1.53,2.208,2.208,0,0,0-.71-1.54,7.5,7.5,0,0,0-1.73-1.39,4.009,4.009,0,0,0-1.81-.61,0.75,0.75,0,0,0-.9.8,11.355,11.355,0,0,1-.62,2.43c-0.34.99-.76,2.07-1.25,3.24s-1.01,2.37-1.58,3.63-1.1,2.46-1.6,3.59-0.93,2.17-1.28,3.12a8.583,8.583,0,0,0-.57,2.26,3.133,3.133,0,0,0,.62,2.2,5.979,5.979,0,0,0,1.65,1.49,5.766,5.766,0,0,0,1.84.75,1.542,1.542,0,0,0,1.18-.04,0.641,0.641,0,0,0,.24-0.67,3.316,3.316,0,0,1-.05-0.99,13.226,13.226,0,0,1,1.21-1.93c0.58-.82,1.28-1.73,2.1-2.74s1.7-2.07,2.64-3.19,1.88-2.21,2.81-3.28,1.81-2.08,2.65-3.02,1.55-1.73,2.14-2.36c-0.5,1.29-1.07,2.65-1.7,4.08s-1.22,2.81-1.77,4.13-1.03,2.54-1.44,3.64a9.322,9.322,0,0,0-.66,2.55,3.1,3.1,0,0,0,.54,2.08,5.694,5.694,0,0,0,1.52,1.46,6.06,6.06,0,0,0,1.77.8,2.368,2.368,0,0,0,1.27.1,6.06,6.06,0,0,0,2.41-1.16,20.744,20.744,0,0,0,2.67-2.36c0.89-.93,1.78-1.95,2.67-3.07s1.7-2.2,2.47-3.26,1.45-2.02,2.04-2.9,1.03-1.56,1.34-2.03a1.637,1.637,0,0,0,.12-0.64,3.024,3.024,0,0,0-.1-0.92,0.893,0.893,0,0,0-.35-0.57c-0.16-.09-0.36.05-0.61,0.43C1204.06,1678.65,1203.12,1680,1202.04,1681.55Zm11.21-1.58c-0.69.95-1.41,1.92-2.15,2.93s-1.49,1.98-2.26,2.93-1.51,1.79-2.2,2.55a18.163,18.163,0,0,1-1.89,1.82,2.489,2.489,0,0,1-1.37.68c-0.41,0-.49-0.42-0.23-1.27,0.25-.73.55-1.59,0.92-2.58s0.74-2.02,1.15-3.09,0.82-2.15,1.23-3.24,0.78-2.09,1.11-3.02,0.61-1.73.83-2.41a9.191,9.191,0,0,0,.38-1.44,2.142,2.142,0,0,0-.74-1.53,7.833,7.833,0,0,0-1.72-1.39,3.924,3.924,0,0,0-1.79-.62,0.757,0.757,0,0,0-.9.81,8.36,8.36,0,0,1-.57,1.79c-0.34.88-.77,1.92-1.27,3.12s-1.05,2.47-1.63,3.82-1.14,2.67-1.65,3.94-0.96,2.44-1.33,3.47a9.714,9.714,0,0,0-.59,2.41,2.535,2.535,0,0,0,.62,2.03,4.681,4.681,0,0,0,1.7,1.16,8.126,8.126,0,0,0,1.93.54,9.429,9.429,0,0,0,1.32.14h0.29a5.471,5.471,0,0,0,2.36-1.03,19.859,19.859,0,0,0,2.62-2.27,35.753,35.753,0,0,0,2.64-3c0.87-1.09,1.68-2.15,2.44-3.19s1.41-1.99,1.98-2.85,1.01-1.55,1.32-2.06a1.6,1.6,0,0,0,.14-0.63,3.568,3.568,0,0,0-.02-0.93,0.8,0.8,0,0,0-.28-0.56c-0.15-.1-0.34.05-0.59,0.42Q1214.285,1678.56,1213.25,1679.97Zm-2.71-13.1a6.411,6.411,0,0,0,1.53-1.46,8.18,8.18,0,0,0,1.06-1.85,6.566,6.566,0,0,0,.5-1.72,2.847,2.847,0,0,0-.76-2.34,3.093,3.093,0,0,0-2.26-.82,4.148,4.148,0,0,0-1.96.54,8.941,8.941,0,0,0-1.91,1.37,7.672,7.672,0,0,0-1.49,1.84,4.924,4.924,0,0,0-.69,1.96,1.9,1.9,0,0,0,.31,1.18,3.53,3.53,0,0,0,.94.99,4.467,4.467,0,0,0,1.35.66,4.96,4.96,0,0,0,1.51.24A3.334,3.334,0,0,0,1210.54,1666.87Zm14.8-3.47c-0.76.06-1.53,0.14-2.31,0.23,0.44-1.19.77-2.2,1.01-3.02a14.523,14.523,0,0,0,.4-1.56,1.633,1.633,0,0,0-.4-1.08,6.664,6.664,0,0,0-1.18-1.21,12.911,12.911,0,0,0-1.58-1.08,7.489,7.489,0,0,0-1.61-.73,2.736,2.736,0,0,0-1.27-.15,0.663,0.663,0,0,0-.57.67,39.1,39.1,0,0,1-.64,4.2c-0.3,1.48-.67,3.02-1.11,4.63-0.47,0-.96,0-1.46.02s-1.05.02-1.65,0.02a10.444,10.444,0,0,1-2.29-.21,7,7,0,0,1-1.51-.5,7.234,7.234,0,0,1-.92-0.49,1.111,1.111,0,0,0-.52-0.21c-0.32,0-.48.28-0.5,0.85a4.493,4.493,0,0,0,.38,1.84,5.492,5.492,0,0,0,1.27,1.84,3.086,3.086,0,0,0,2.25.85,15.948,15.948,0,0,0,1.65-.1c0.66-.06,1.38-0.14,2.17-0.23-0.75,2.39-1.57,4.75-2.43,7.08s-1.67,4.47-2.41,6.42-1.36,3.65-1.86,5.08a15.514,15.514,0,0,0-.85,3,2.531,2.531,0,0,0,.61,2.03,4.992,4.992,0,0,0,1.7,1.18,8.321,8.321,0,0,0,1.94.57,11.117,11.117,0,0,0,1.32.14,0.381,0.381,0,0,0,.16-0.03,0.793,0.793,0,0,1,.17-0.02,4.873,4.873,0,0,0,2.36-1.01,22.376,22.376,0,0,0,2.62-2.27,33.9,33.9,0,0,0,2.64-2.98q1.3-1.62,2.46-3.18c0.77-1.04,1.45-1.99,2.03-2.86s1.03-1.55,1.35-2.05a1.946,1.946,0,0,0,.11-0.69,2.745,2.745,0,0,0-.09-0.92,0.983,0.983,0,0,0-.35-0.57c-0.16-.09-0.37.05-0.62,0.43-0.53.75-1.14,1.61-1.82,2.57s-1.38,1.94-2.12,2.93-1.5,1.97-2.27,2.93-1.49,1.82-2.17,2.57a16.33,16.33,0,0,1-1.87,1.82,2.406,2.406,0,0,1-1.32.68c-0.44,0-.53-0.44-0.28-1.32,0.38-1.1.88-2.55,1.51-4.34s1.31-3.74,2.03-5.83,1.47-4.23,2.24-6.4,1.49-4.19,2.15-6.05c1.48-.25,2.81-0.45,3.99-0.61a21.6,21.6,0,0,1,2.58-.24,7.082,7.082,0,0,1,1.77.17,5.475,5.475,0,0,1,.92.33,1.88,1.88,0,0,1,.49.33,0.684,0.684,0,0,0,.5.16,0.538,0.538,0,0,0,.47-0.59,1.919,1.919,0,0,0-.31-1.27,3.8,3.8,0,0,0-1.41-1.28,5.913,5.913,0,0,0-2.91-.59C1226.98,1663.3,1226.09,1663.34,1225.34,1663.4Zm21.46,16.57c-0.68.95-1.39,1.92-2.12,2.93s-1.5,1.98-2.27,2.93-1.5,1.79-2.2,2.55a20.5,20.5,0,0,1-1.86,1.82,2.417,2.417,0,0,1-1.35.68c-0.41,0-.49-0.41-0.23-1.23,0.37-1.1.87-2.47,1.48-4.11s1.22-3.25,1.82-4.86,1.12-3.04,1.56-4.32a13.192,13.192,0,0,0,.71-2.53,2.171,2.171,0,0,0-.71-1.53,7.294,7.294,0,0,0-1.7-1.39,3.924,3.924,0,0,0-1.79-.62,0.757,0.757,0,0,0-.9.81,15.727,15.727,0,0,1-1.04,2.92,16.452,16.452,0,0,0-1.25-1.39,11.009,11.009,0,0,0-1.65-1.35,10.5,10.5,0,0,0-2.01-1.01,6.722,6.722,0,0,0-2.36-.4,3.216,3.216,0,0,0-2.08,1.06,17.162,17.162,0,0,0-2.31,2.74,41.785,41.785,0,0,0-2.32,3.71q-1.125,2.025-2.03,4.01c-0.6,1.32-1.09,2.53-1.49,3.64a11.936,11.936,0,0,0-.68,2.55,3.85,3.85,0,0,0,.59,2.4,6.767,6.767,0,0,0,1.75,1.87,8.5,8.5,0,0,0,2.29,1.2,6.592,6.592,0,0,0,2.17.43,1.989,1.989,0,0,0,1.06-.45,10.03,10.03,0,0,0,1.39-1.21c0.51-.5,1.04-1.07,1.59-1.72s1.11-1.33,1.67-2.05c-0.09.34-.16,0.64-0.21,0.89s-0.09.49-.12,0.71a2.535,2.535,0,0,0,.62,2.03,4.681,4.681,0,0,0,1.7,1.16,8.126,8.126,0,0,0,1.93.54,9.429,9.429,0,0,0,1.32.14h0.29a5.586,5.586,0,0,0,2.38-1.03,18.793,18.793,0,0,0,2.65-2.27,39.751,39.751,0,0,0,2.64-3c0.87-1.09,1.68-2.15,2.43-3.19s1.43-1.99,2.01-2.85,1.03-1.55,1.35-2.06a1.418,1.418,0,0,0,.11-0.63,2.805,2.805,0,0,0-.09-0.93,0.921,0.921,0,0,0-.35-0.56c-0.16-.1-0.37.05-0.62,0.42Q1247.82,1678.56,1246.8,1679.97Zm-22.22,9.45a16.913,16.913,0,0,1,.83-2.95c0.42-1.19.95-2.47,1.58-3.85a41.814,41.814,0,0,1,1.98-3.85,21.068,21.068,0,0,1,2.04-2.95,2.624,2.624,0,0,1,1.65-1.18,5.617,5.617,0,0,1,1.67.23,9.011,9.011,0,0,1,1.3.52c-0.15.38-.32,0.77-0.49,1.16s-0.34.81-.5,1.25q-0.525.855-1.32,2.13c-0.54.85-1.12,1.74-1.75,2.69s-1.27,1.89-1.93,2.83-1.3,1.8-1.92,2.57a17.872,17.872,0,0,1-1.65,1.87,2.032,2.032,0,0,1-1.16.71C1224.57,1690.6,1224.46,1690.2,1224.58,1689.42Zm59.31-20.61c0.72-2.1,1.39-3.99,1.98-5.67s1.1-3.09,1.49-4.23a16.046,16.046,0,0,0,.64-2.08,2.429,2.429,0,0,0-.69-1.81,10.4,10.4,0,0,0-1.88-1.87,5.884,5.884,0,0,0-1.99-1.04,0.734,0.734,0,0,0-1.06.62,0.8,0.8,0,0,0-.05.33q-0.99,1.17-2.71,3.56t-3.97,5.48q-2.235,3.09-4.91,6.59t-5.5,6.84c-1.7.29-3.31,0.54-4.84,0.76a35.225,35.225,0,0,1-3.99.38,12.5,12.5,0,0,1-2.79-.24c-0.66-.16-1.14-0.28-1.44-0.38a0.7,0.7,0,0,0-.59-0.02,1.793,1.793,0,0,0-.23.87,1.973,1.973,0,0,0,0,.92,3.224,3.224,0,0,0,.49,1.28,3.62,3.62,0,0,0,1.18,1.11,4.207,4.207,0,0,0,2.15.47,20.575,20.575,0,0,0,2.62-.21c1.06-.14,2.2-0.29,3.43-0.45-1.33,1.42-2.64,2.74-3.95,3.96a40.8,40.8,0,0,1-3.8,3.18,18.832,18.832,0,0,1-3.56,2.11,8.009,8.009,0,0,1-3.24.76,2.815,2.815,0,0,1-.85-0.12c-0.25-.08-0.48-0.14-0.68-0.19a1.13,1.13,0,0,0-.52,0,0.439,0.439,0,0,0-.26.4,1.6,1.6,0,0,0,.16.82,2.541,2.541,0,0,0,.83.95,5.516,5.516,0,0,0,1.65.79,8.925,8.925,0,0,0,2.65.33,7.935,7.935,0,0,0,3.7-1.11,26.006,26.006,0,0,0,4.3-3,57.516,57.516,0,0,0,4.6-4.39c1.58-1.67,3.14-3.44,4.68-5.29,1.26-.16,2.47-0.29,3.63-0.38s2.24-.16,3.22-0.19h0.75l-1.32,3.54c-0.41,1.1-.76,2.1-1.06,3s-0.55,1.67-.76,2.31a8.337,8.337,0,0,0-.35,1.44,4.252,4.252,0,0,0,.14,2.34,3.433,3.433,0,0,0,1.01,1.37,3.535,3.535,0,0,0,1.35.66,5.374,5.374,0,0,0,1.18.17,4.275,4.275,0,0,0,2.12-.43,0.906,0.906,0,0,0,.67-0.85,2.1,2.1,0,0,1-.07-0.85,5.82,5.82,0,0,1,.11-1.04,42.69,42.69,0,0,1,.9-4.25q0.615-2.355,1.42-5.05a4.546,4.546,0,0,0,1.56-1.16,3.808,3.808,0,0,0,1.08-2.1,2.941,2.941,0,0,0,0-1.32,2.047,2.047,0,0,0-.8-1.18C1282.44,1673.05,1283.17,1670.9,1283.89,1668.81Zm-10.32,5.43c-0.93.11-1.89,0.24-2.9,0.4q2.97-3.93,5.52-7.58t4.35-6.4q-0.945,3.255-2.08,6.68t-2.31,6.68C1275.36,1674.05,1274.5,1674.13,1273.57,1674.24Zm22.2,5.8c-0.65.93-1.32,1.88-2.01,2.84s-1.39,1.9-2.1,2.83-1.38,1.75-2.01,2.46a16.335,16.335,0,0,1-1.75,1.72,2.319,2.319,0,0,1-1.27.66c-0.35,0-.47-0.31-0.38-0.94,0.28-.89.65-1.98,1.11-3.29s0.95-2.72,1.49-4.25,1.1-3.12,1.7-4.79,1.18-3.31,1.75-4.93,1.11-3.19,1.65-4.7,1-2.86,1.39-4.04,0.71-2.16.95-2.95,0.37-1.29.4-1.51a1.694,1.694,0,0,0-.4-1.09,6.4,6.4,0,0,0-1.19-1.2,12.237,12.237,0,0,0-1.58-1.09,8.716,8.716,0,0,0-1.6-.75,2.573,2.573,0,0,0-1.28-.17,0.653,0.653,0,0,0-.56.66,39.669,39.669,0,0,1-1.07,6.26q-0.825,3.33-1.91,6.7c-0.72,2.26-1.49,4.46-2.29,6.62s-1.54,4.12-2.22,5.9-1.25,3.32-1.72,4.63a11.573,11.573,0,0,0-.76,2.81,4.582,4.582,0,0,0,.31,2.38,5.082,5.082,0,0,0,1.09,1.58,3.86,3.86,0,0,0,1.37.88,3.677,3.677,0,0,0,1.15.25,6.047,6.047,0,0,0,3.02-.85,15.248,15.248,0,0,0,2.96-2.19,29.311,29.311,0,0,0,2.76-2.98q1.32-1.62,2.43-3.21c0.74-1.05,1.38-2.03,1.94-2.92s0.98-1.6,1.29-2.11a1.607,1.607,0,0,0,.12-0.68,2.745,2.745,0,0,0-.09-0.92,0.943,0.943,0,0,0-.36-0.57c-0.15-.09-0.36.05-0.61,0.43C1296.99,1678.27,1296.41,1679.12,1295.77,1680.04Zm10.01,0c-0.65.93-1.32,1.88-2.01,2.84s-1.39,1.9-2.1,2.83-1.38,1.75-2.01,2.46a16.335,16.335,0,0,1-1.75,1.72,2.319,2.319,0,0,1-1.27.66c-0.35,0-.47-0.31-0.38-0.94,0.28-.89.65-1.98,1.11-3.29s0.95-2.72,1.49-4.25,1.1-3.12,1.7-4.79,1.18-3.31,1.75-4.93,1.11-3.19,1.65-4.7,1-2.86,1.39-4.04,0.71-2.16.95-2.95,0.37-1.29.4-1.51a1.694,1.694,0,0,0-.4-1.09,6.642,6.642,0,0,0-1.18-1.2,13.093,13.093,0,0,0-1.59-1.09,8.716,8.716,0,0,0-1.6-.75,2.573,2.573,0,0,0-1.28-.17,0.653,0.653,0,0,0-.56.66,39.669,39.669,0,0,1-1.07,6.26c-0.55,2.22-1.18,4.45-1.91,6.7s-1.49,4.46-2.29,6.62-1.54,4.12-2.22,5.9-1.25,3.32-1.72,4.63a11.573,11.573,0,0,0-.76,2.81,4.582,4.582,0,0,0,.31,2.38,5.082,5.082,0,0,0,1.09,1.58,3.86,3.86,0,0,0,1.37.88,3.677,3.677,0,0,0,1.15.25,6.047,6.047,0,0,0,3.02-.85,15.248,15.248,0,0,0,2.96-2.19,29.311,29.311,0,0,0,2.76-2.98q1.32-1.62,2.43-3.21c0.74-1.05,1.38-2.03,1.94-2.92s0.98-1.6,1.29-2.11a1.607,1.607,0,0,0,.12-0.68,2.745,2.745,0,0,0-.09-0.92,0.943,0.943,0,0,0-.36-0.57c-0.15-.09-0.36.05-0.61,0.43C1307,1678.27,1306.42,1679.12,1305.78,1680.04Zm16.85-.42c-0.8.93-1.67,1.9-2.62,2.93s-1.94,2.03-3,3.04a28.973,28.973,0,0,1-3.21,2.69,18.647,18.647,0,0,1-3.23,1.92,7.544,7.544,0,0,1-3.07.73,1.069,1.069,0,0,1-.97-0.5,2.356,2.356,0,0,1-.28-1.32,9.208,9.208,0,0,1,.3-1.94c0.19-.74.45-1.53,0.76-2.38a6.063,6.063,0,0,0,1.35.35,10.294,10.294,0,0,0,1.67.12,6.058,6.058,0,0,0,3.17-.94,14.586,14.586,0,0,0,2.83-2.25,13.285,13.285,0,0,0,2.1-2.73,6.387,6.387,0,0,0,.92-2.44,5.358,5.358,0,0,0-.45-2.22,8.7,8.7,0,0,0-1.37-2.29,7.846,7.846,0,0,0-2.1-1.77,5.067,5.067,0,0,0-2.55-.71,4.877,4.877,0,0,0-2.31.71,13.652,13.652,0,0,0-2.58,1.92,20.28,20.28,0,0,0-2.52,2.88,28.074,28.074,0,0,0-2.24,3.58,24.452,24.452,0,0,0-1.7,4.04,19.61,19.61,0,0,0-.88,4.25,3.151,3.151,0,0,0,.59,1.94,9.855,9.855,0,0,0,1.77,2.05,10.668,10.668,0,0,0,2.39,1.61,5.658,5.658,0,0,0,2.48.63,7.707,7.707,0,0,0,3.42-.89,21.016,21.016,0,0,0,3.64-2.34,41.336,41.336,0,0,0,3.54-3.16c1.15-1.15,2.2-2.29,3.16-3.4s1.8-2.14,2.5-3.07,1.24-1.63,1.59-2.1a1,1,0,0,0,.07-0.52,3.191,3.191,0,0,0-.14-0.71,0.762,0.762,0,0,0-.36-0.45c-0.16-.08-0.35.02-0.57,0.31Q1323.845,1678.225,1322.63,1679.62Zm-7.22-5.2a5.777,5.777,0,0,1-.95,2.32,11.849,11.849,0,0,1-2.22,2.52,7.285,7.285,0,0,1-3.23,1.66c0.5-.98,1.02-1.92,1.56-2.84a24.4,24.4,0,0,1,1.58-2.4,11.656,11.656,0,0,1,1.46-1.66,1.948,1.948,0,0,1,1.21-.61C1315.29,1673.41,1315.49,1673.75,1315.41,1674.42Zm29.98,7.13c-1.08,1.56-2.19,3.06-3.3,4.49s-2.16,2.65-3.12,3.66-1.69,1.51-2.2,1.51c-0.37,0-.47-0.34-0.28-1.04,0.25-.75.58-1.67,0.99-2.74s0.84-2.19,1.28-3.37,0.89-2.36,1.34-3.54,0.87-2.29,1.23-3.31,0.66-1.9.9-2.62a9.573,9.573,0,0,0,.4-1.51,1.708,1.708,0,0,0-.33-1.09,5.386,5.386,0,0,0-.97-1.08,6.269,6.269,0,0,0-1.3-.9,4.159,4.159,0,0,0-1.27-.47,1.033,1.033,0,0,0-.38-0.05,0.6,0.6,0,0,0-.24.05,0.887,0.887,0,0,0-.37.19,8.465,8.465,0,0,0-1.73,1.34c-0.67.65-1.41,1.41-2.19,2.29s-1.61,1.84-2.46,2.86-1.66,2.03-2.43,3.02-1.5,1.92-2.17,2.79-1.24,1.59-1.68,2.19c0.44-1.13.89-2.28,1.35-3.44s0.87-2.25,1.25-3.24,0.68-1.86.92-2.6a9.084,9.084,0,0,0,.4-1.53,2.166,2.166,0,0,0-.71-1.54,7.444,7.444,0,0,0-1.72-1.39,4.045,4.045,0,0,0-1.82-.61,0.75,0.75,0,0,0-.9.8,10.673,10.673,0,0,1-.61,2.43c-0.35.99-.76,2.07-1.25,3.24s-1.02,2.37-1.58,3.63-1.1,2.46-1.61,3.59-0.93,2.17-1.27,3.12a8.2,8.2,0,0,0-.57,2.26,3.128,3.128,0,0,0,.61,2.2,6.162,6.162,0,0,0,1.66,1.49,5.766,5.766,0,0,0,1.84.75,1.542,1.542,0,0,0,1.18-.04,0.618,0.618,0,0,0,.23-0.67,3.366,3.366,0,0,1-.04-0.99,13.894,13.894,0,0,1,1.2-1.93c0.58-.82,1.28-1.73,2.1-2.74s1.7-2.07,2.65-3.19,1.88-2.21,2.81-3.28,1.81-2.08,2.64-3.02,1.55-1.73,2.15-2.36c-0.5,1.29-1.07,2.65-1.7,4.08s-1.22,2.81-1.77,4.13-1.03,2.54-1.44,3.64a9.322,9.322,0,0,0-.66,2.55,3.045,3.045,0,0,0,.54,2.08,5.808,5.808,0,0,0,1.51,1.46,6.06,6.06,0,0,0,1.77.8,2.4,2.4,0,0,0,1.28.1,6.187,6.187,0,0,0,2.41-1.16,20.048,20.048,0,0,0,2.66-2.36,39.48,39.48,0,0,0,2.67-3.07c0.88-1.12,1.71-2.2,2.48-3.26s1.45-2.02,2.03-2.9,1.03-1.56,1.35-2.03a1.511,1.511,0,0,0,.11-0.64,2.745,2.745,0,0,0-.09-0.92,0.983,0.983,0,0,0-.35-0.57c-0.16-.09-0.37.05-0.62,0.43C1347.41,1678.65,1346.48,1680,1345.39,1681.55Z" transform="translate(-1138.56 -1652.06)"/>
</svg>
