<svg xmlns="http://www.w3.org/2000/svg" width="290.906" height="57.97" viewBox="0 0 290.906 57.97">
  <defs>
    <style>
      .cls-1 {
        fill: #333332;
      }
    </style>
  </defs>
  <path id="Anita_Allen_" data-name="Anita Allen " class="cls-1" d="M270.138,4201.32q1.5-4.335,2.738-7.82c0.825-2.33,1.51-4.27,2.054-5.84a21.974,21.974,0,0,0,.88-2.87,3.339,3.339,0,0,0-.946-2.51,14.159,14.159,0,0,0-2.607-2.57,8.006,8.006,0,0,0-2.738-1.44,1.014,1.014,0,0,0-1.467.85,1.132,1.132,0,0,0-.065.46c-0.913,1.08-2.163,2.73-3.749,4.92s-3.412,4.72-5.476,7.56-4.324,5.88-6.779,9.1-4.987,6.36-7.595,9.45q-3.52.585-6.682,1.04a46.636,46.636,0,0,1-5.508.52,17.412,17.412,0,0,1-3.847-.32c-0.912-.22-1.574-0.39-1.988-0.52a1,1,0,0,0-.815-0.04,2.441,2.441,0,0,0-.326,1.21,3.042,3.042,0,0,0,0,1.27,4.582,4.582,0,0,0,.685,1.76,4.747,4.747,0,0,0,1.629,1.53,5.672,5.672,0,0,0,2.967.65,27.291,27.291,0,0,0,3.618-.29c1.455-.19,3.031-0.4,4.726-0.62q-2.738,2.955-5.443,5.47a60,60,0,0,1-5.248,4.39,26.059,26.059,0,0,1-4.922,2.91,11.1,11.1,0,0,1-4.466,1.05,3.888,3.888,0,0,1-1.173-.16c-0.347-.11-0.662-0.2-0.945-0.26a1.241,1.241,0,0,0-.717,0,0.6,0.6,0,0,0-.359.55,2.147,2.147,0,0,0,.228,1.12,3.5,3.5,0,0,0,1.141,1.32,7.455,7.455,0,0,0,2.282,1.09,12.421,12.421,0,0,0,3.65.45,10.989,10.989,0,0,0,5.118-1.53,35.552,35.552,0,0,0,5.932-4.14,76.513,76.513,0,0,0,6.356-6.07q3.26-3.45,6.454-7.3c1.738-.21,3.411-0.39,5.02-0.52s3.085-.22,4.432-0.26h1.043q-0.976,2.61-1.825,4.89t-1.467,4.14c-0.413,1.24-.76,2.3-1.043,3.19a11.192,11.192,0,0,0-.489,1.99,5.867,5.867,0,0,0,.2,3.23,4.679,4.679,0,0,0,3.26,2.8,6.979,6.979,0,0,0,1.629.23,5.945,5.945,0,0,0,2.934-.59q1.041-.585.912-1.17a3.216,3.216,0,0,1-.1-1.17,8.016,8.016,0,0,1,.163-1.44,57.455,57.455,0,0,1,1.238-5.86c0.565-2.18,1.216-4.5,1.956-6.98a6.3,6.3,0,0,0,2.151-1.6,5.262,5.262,0,0,0,1.5-2.9,4.3,4.3,0,0,0,0-1.82,2.849,2.849,0,0,0-1.109-1.63Q268.639,4205.66,270.138,4201.32Zm-14.244,7.5c-1.282.15-2.619,0.33-4.009,0.55q4.107-5.415,7.627-10.46t6-8.84q-1.305,4.5-2.869,9.23t-3.194,9.22C258.36,4208.57,257.175,4208.66,255.894,4208.82Zm47.328,10.1c-1.5,2.15-3.022,4.22-4.564,6.19s-2.977,3.67-4.3,5.06-2.337,2.08-3.032,2.08c-0.521,0-.652-0.48-0.391-1.43q0.522-1.575,1.369-3.78t1.76-4.66q0.912-2.445,1.858-4.89t1.695-4.57c0.5-1.41.913-2.61,1.239-3.62a12.429,12.429,0,0,0,.554-2.08,2.323,2.323,0,0,0-.456-1.5,7.872,7.872,0,0,0-1.337-1.5,9.466,9.466,0,0,0-1.792-1.24,5.9,5.9,0,0,0-1.761-.65,1.4,1.4,0,0,0-.521-0.07,0.768,0.768,0,0,0-.326.07,1.418,1.418,0,0,0-.522.26,11.9,11.9,0,0,0-2.379,1.86q-1.4,1.335-3.031,3.16t-3.39,3.94q-1.761,2.13-3.358,4.18t-3,3.84q-1.4,1.8-2.315,3.03,0.914-2.34,1.858-4.76,0.945-2.4,1.728-4.46c0.521-1.37.945-2.56,1.271-3.59a13.32,13.32,0,0,0,.554-2.11,2.966,2.966,0,0,0-.978-2.12,10.174,10.174,0,0,0-2.379-1.93,5.6,5.6,0,0,0-2.51-.84,1.031,1.031,0,0,0-1.238,1.1,15.452,15.452,0,0,1-.848,3.36q-0.719,2.055-1.728,4.47t-2.183,5.02q-1.175,2.61-2.217,4.95-1.043,2.355-1.76,4.3a11.669,11.669,0,0,0-.782,3.13,4.255,4.255,0,0,0,.847,3.03,8.142,8.142,0,0,0,2.282,2.06,8.232,8.232,0,0,0,2.542,1.04,2.158,2.158,0,0,0,1.63-.06,0.876,0.876,0,0,0,.326-0.92,4.354,4.354,0,0,1-.065-1.37,18.653,18.653,0,0,1,1.662-2.67q1.206-1.695,2.9-3.78t3.651-4.4q1.956-2.31,3.879-4.53t3.65-4.17c1.151-1.31,2.14-2.39,2.966-3.26q-1.042,2.67-2.346,5.64t-2.445,5.7q-1.142,2.745-1.988,5.02a12.943,12.943,0,0,0-.913,3.52,4.214,4.214,0,0,0,.75,2.87,7.708,7.708,0,0,0,2.086,2.02,8.543,8.543,0,0,0,2.444,1.11,3.323,3.323,0,0,0,1.76.13,8.334,8.334,0,0,0,3.325-1.6,29.066,29.066,0,0,0,3.683-3.26,54.508,54.508,0,0,0,3.684-4.24q1.824-2.31,3.422-4.49t2.8-4.01c0.8-1.22,1.423-2.15,1.858-2.81a2.032,2.032,0,0,0,.163-0.88,4.034,4.034,0,0,0-.13-1.27,1.253,1.253,0,0,0-.489-0.78c-0.218-.13-0.5.07-0.848,0.59Q305.471,4215.69,303.222,4218.92Zm15.482-2.18q-1.435,1.95-2.966,4.04t-3.129,4.04c-1.066,1.3-2.076,2.48-3.032,3.52a24.845,24.845,0,0,1-2.607,2.51,3.454,3.454,0,0,1-1.891.95c-0.565,0-.674-0.59-0.326-1.76,0.348-1,.771-2.19,1.271-3.56s1.032-2.79,1.6-4.27,1.129-2.96,1.695-4.46,1.075-2.89,1.531-4.18,0.837-2.38,1.141-3.32a11.781,11.781,0,0,0,.522-1.99,2.95,2.95,0,0,0-1.011-2.12,11.091,11.091,0,0,0-2.379-1.92,5.549,5.549,0,0,0-2.477-.85,1.042,1.042,0,0,0-1.239,1.11,11.807,11.807,0,0,1-.782,2.48q-0.719,1.83-1.76,4.3t-2.249,5.28q-1.206,2.8-2.282,5.44t-1.825,4.8a13.276,13.276,0,0,0-.815,3.32,3.517,3.517,0,0,0,.847,2.8,6.487,6.487,0,0,0,2.347,1.6,11.752,11.752,0,0,0,2.673.75,14.786,14.786,0,0,0,1.825.2h0.391a7.472,7.472,0,0,0,3.26-1.44,26.326,26.326,0,0,0,3.618-3.13,53.191,53.191,0,0,0,3.651-4.14c1.194-1.5,2.314-2.96,3.357-4.4s1.956-2.75,2.738-3.94,1.39-2.14,1.825-2.84a2.246,2.246,0,0,0,.2-0.88,4.927,4.927,0,0,0-.033-1.27,1.108,1.108,0,0,0-.391-0.78c-0.2-.13-0.468.06-0.815,0.59Q320.137,4214.78,318.7,4216.74Zm-3.749-18.09a9.114,9.114,0,0,0,2.119-2.02,11.762,11.762,0,0,0,1.467-2.55,9.336,9.336,0,0,0,.684-2.38,3.911,3.911,0,0,0-1.043-3.22,4.3,4.3,0,0,0-3.129-1.14,5.724,5.724,0,0,0-2.7.75,12.806,12.806,0,0,0-2.64,1.89,10.735,10.735,0,0,0-2.054,2.54,6.686,6.686,0,0,0-.945,2.7,2.619,2.619,0,0,0,.424,1.63,4.742,4.742,0,0,0,1.3,1.37,6.557,6.557,0,0,0,1.858.92,7.19,7.19,0,0,0,2.086.32A4.535,4.535,0,0,0,314.955,4198.65Zm20.437-4.8q-1.565.135-3.194,0.33,0.912-2.475,1.4-4.17c0.326-1.13.511-1.85,0.554-2.15a2.246,2.246,0,0,0-.554-1.5,8.744,8.744,0,0,0-1.629-1.66,16.388,16.388,0,0,0-2.184-1.5,10.36,10.36,0,0,0-2.217-1.01,3.7,3.7,0,0,0-1.76-.2,0.9,0.9,0,0,0-.782.91,56.27,56.27,0,0,1-.88,5.8q-0.621,3.075-1.532,6.39c-0.652,0-1.326.01-2.021,0.04s-1.457.03-2.282,0.03a14.725,14.725,0,0,1-3.162-.29,10.518,10.518,0,0,1-2.086-.69,13.492,13.492,0,0,1-1.271-.68,1.468,1.468,0,0,0-.717-0.3c-0.434,0-.662.39-0.684,1.18a6.324,6.324,0,0,0,.521,2.54,7.476,7.476,0,0,0,1.76,2.54,4.265,4.265,0,0,0,3.1,1.17c0.608,0,1.369-.04,2.281-0.13s1.912-.19,3-0.32q-1.565,4.95-3.357,9.78-1.794,4.815-3.325,8.86c-1.02,2.7-1.879,5.03-2.575,7.01a22.807,22.807,0,0,0-1.173,4.14,3.517,3.517,0,0,0,.847,2.8,6.82,6.82,0,0,0,2.347,1.63,11.426,11.426,0,0,0,2.673.79,14.206,14.206,0,0,0,1.825.19,0.778,0.778,0,0,0,.228-0.03,0.785,0.785,0,0,1,.229-0.03,6.745,6.745,0,0,0,3.259-1.41,29.4,29.4,0,0,0,3.618-3.13,47.476,47.476,0,0,0,3.651-4.1q1.793-2.25,3.39-4.4c1.064-1.44,2-2.75,2.8-3.95s1.423-2.14,1.858-2.83a2.731,2.731,0,0,0,.163-0.95,4.063,4.063,0,0,0-.131-1.27,1.253,1.253,0,0,0-.489-0.78c-0.218-.13-0.5.06-0.847,0.59q-1.11,1.56-2.51,3.55t-2.933,4.04q-1.533,2.055-3.13,4.04c-1.065,1.33-2.064,2.51-3,3.56a21.926,21.926,0,0,1-2.575,2.5,3.388,3.388,0,0,1-1.826.95q-0.913,0-.391-1.83,0.783-2.28,2.086-5.99t2.8-8.05q1.5-4.335,3.1-8.84t2.966-8.34q3.063-.525,5.509-0.85a29.364,29.364,0,0,1,3.553-.32,9.92,9.92,0,0,1,2.444.22,8.345,8.345,0,0,1,1.271.46,2.443,2.443,0,0,1,.685.46,0.935,0.935,0,0,0,.684.22,0.75,0.75,0,0,0,.652-0.81,2.655,2.655,0,0,0-.423-1.76,5.227,5.227,0,0,0-1.956-1.76,8.1,8.1,0,0,0-4.009-.82C337.651,4193.72,336.435,4193.77,335.392,4193.85Zm29.628,22.89q-1.4,1.95-2.933,4.04t-3.129,4.04c-1.066,1.3-2.076,2.48-3.032,3.52a27.3,27.3,0,0,1-2.575,2.51,3.318,3.318,0,0,1-1.858.95c-0.565,0-.674-0.57-0.325-1.7q0.782-2.28,2.053-5.67t2.51-6.72q1.237-3.315,2.151-5.96a18.352,18.352,0,0,0,.978-3.49,2.982,2.982,0,0,0-.978-2.12,10.434,10.434,0,0,0-2.347-1.92,5.549,5.549,0,0,0-2.477-.85,1.043,1.043,0,0,0-1.239,1.11,20.879,20.879,0,0,1-1.434,4.04,21.165,21.165,0,0,0-1.727-1.92,15.5,15.5,0,0,0-2.282-1.86,13.509,13.509,0,0,0-2.771-1.4,9.319,9.319,0,0,0-3.259-.55,4.413,4.413,0,0,0-2.868,1.46,24.789,24.789,0,0,0-3.195,3.78,58.708,58.708,0,0,0-3.194,5.12q-1.565,2.805-2.8,5.54t-2.054,5.02a16.759,16.759,0,0,0-.945,3.52,5.372,5.372,0,0,0,.815,3.33,9.381,9.381,0,0,0,2.412,2.57,11.785,11.785,0,0,0,3.162,1.66,9.1,9.1,0,0,0,3,.59,2.707,2.707,0,0,0,1.467-.62,15.149,15.149,0,0,0,1.923-1.66c0.695-.7,1.423-1.49,2.184-2.38s1.532-1.84,2.314-2.84c-0.13.48-.228,0.9-0.293,1.24s-0.12.68-.163,0.98a3.517,3.517,0,0,0,.848,2.8,6.483,6.483,0,0,0,2.346,1.6,11.738,11.738,0,0,0,2.673.75,14.777,14.777,0,0,0,1.826.2h0.391a7.689,7.689,0,0,0,3.292-1.44,25.178,25.178,0,0,0,3.65-3.13,53.191,53.191,0,0,0,3.651-4.14c1.195-1.5,2.314-2.96,3.357-4.4s1.966-2.75,2.771-3.94,1.423-2.14,1.858-2.84a2.063,2.063,0,0,0,.163-0.88,4.063,4.063,0,0,0-.131-1.27,1.257,1.257,0,0,0-.488-0.78c-0.218-.13-0.5.06-0.848,0.59C366.769,4214.26,365.954,4215.43,365.02,4216.74Zm-30.672,13.03a23.729,23.729,0,0,1,1.141-4.07q0.881-2.445,2.184-5.31a58.07,58.07,0,0,1,2.738-5.32,30.043,30.043,0,0,1,2.8-4.07c0.913-1.09,1.673-1.63,2.282-1.63a7.45,7.45,0,0,1,2.314.33,12.092,12.092,0,0,1,1.793.71c-0.218.52-.446,1.06-0.685,1.6s-0.467,1.12-.684,1.73c-0.479.78-1.087,1.76-1.825,2.93s-1.544,2.41-2.412,3.72-1.76,2.6-2.673,3.91-1.793,2.49-2.64,3.55a27.924,27.924,0,0,1-2.282,2.58,2.779,2.779,0,0,1-1.6.97C334.326,4231.4,334.174,4230.86,334.348,4229.77Zm81.878-28.45q1.5-4.335,2.738-7.82c0.825-2.33,1.509-4.27,2.053-5.84a21.974,21.974,0,0,0,.88-2.87,3.334,3.334,0,0,0-.945-2.51,14.2,14.2,0,0,0-2.608-2.57,8,8,0,0,0-2.738-1.44,1.015,1.015,0,0,0-1.467.85,1.15,1.15,0,0,0-.065.46c-0.912,1.08-2.162,2.73-3.748,4.92s-3.412,4.72-5.476,7.56-4.325,5.88-6.78,9.1-4.987,6.36-7.594,9.45q-3.52.585-6.682,1.04a46.651,46.651,0,0,1-5.509.52,17.4,17.4,0,0,1-3.846-.32c-0.913-.22-1.575-0.39-1.989-0.52a1,1,0,0,0-.814-0.04,2.419,2.419,0,0,0-.326,1.21,3.008,3.008,0,0,0,0,1.27,4.564,4.564,0,0,0,.684,1.76,4.76,4.76,0,0,0,1.63,1.53,5.665,5.665,0,0,0,2.966.65,27.291,27.291,0,0,0,3.618-.29c1.456-.19,3.031-0.4,4.726-0.62q-2.738,2.955-5.443,5.47a60,60,0,0,1-5.248,4.39,26.059,26.059,0,0,1-4.922,2.91,11.1,11.1,0,0,1-4.465,1.05,3.9,3.9,0,0,1-1.174-.16c-0.347-.11-0.662-0.2-0.945-0.26a1.241,1.241,0,0,0-.717,0,0.6,0.6,0,0,0-.359.55,2.149,2.149,0,0,0,.229,1.12,3.492,3.492,0,0,0,1.14,1.32,7.478,7.478,0,0,0,2.282,1.09,12.433,12.433,0,0,0,3.651.45,10.983,10.983,0,0,0,5.117-1.53,35.471,35.471,0,0,0,5.932-4.14,76.517,76.517,0,0,0,6.357-6.07q3.258-3.45,6.453-7.3c1.738-.21,3.412-0.39,5.02-0.52s3.085-.22,4.433-0.26h1.043q-0.978,2.61-1.825,4.89t-1.467,4.14c-0.414,1.24-.761,2.3-1.043,3.19a11.192,11.192,0,0,0-.489,1.99,5.868,5.868,0,0,0,.195,3.23,4.679,4.679,0,0,0,3.26,2.8,6.993,6.993,0,0,0,1.63.23,5.938,5.938,0,0,0,2.933-.59q1.042-.585.913-1.17a3.21,3.21,0,0,1-.1-1.17,8.2,8.2,0,0,1,.163-1.44,57.481,57.481,0,0,1,1.239-5.86c0.564-2.18,1.216-4.5,1.955-6.98a6.3,6.3,0,0,0,2.152-1.6,5.254,5.254,0,0,0,1.5-2.9,4.3,4.3,0,0,0,0-1.82,2.842,2.842,0,0,0-1.108-1.63Q414.726,4205.66,416.226,4201.32Zm-14.244,7.5c-1.283.15-2.619,0.33-4.01,0.55q4.107-5.415,7.628-10.46t6-8.84q-1.305,4.5-2.868,9.23t-3.195,9.22C404.448,4208.57,403.263,4208.66,401.982,4208.82Zm30.638,8.01c-0.891,1.29-1.815,2.59-2.77,3.92s-1.923,2.63-2.9,3.91-1.9,2.41-2.771,3.39a23.2,23.2,0,0,1-2.412,2.38,3.2,3.2,0,0,1-1.76.91c-0.479,0-.652-0.43-0.521-1.3q0.586-1.83,1.532-4.54t2.053-5.86q1.107-3.165,2.347-6.62t2.412-6.81q1.173-3.36,2.282-6.49t1.923-5.57q0.815-2.445,1.3-4.08a19.865,19.865,0,0,0,.555-2.08,2.253,2.253,0,0,0-.555-1.5,8.744,8.744,0,0,0-1.629-1.66,16.388,16.388,0,0,0-2.184-1.5,12.409,12.409,0,0,0-2.217-1.05,3.622,3.622,0,0,0-1.76-.22,0.893,0.893,0,0,0-.782.91,54.386,54.386,0,0,1-1.467,8.64c-0.761,3.06-1.641,6.15-2.64,9.25s-2.053,6.15-3.162,9.13-2.129,5.69-3.064,8.15-1.727,4.58-2.379,6.39a15.884,15.884,0,0,0-1.043,3.88,6.273,6.273,0,0,0,.424,3.29,7.108,7.108,0,0,0,1.5,2.18,5.231,5.231,0,0,0,1.89,1.21,5.118,5.118,0,0,0,1.6.36,8.484,8.484,0,0,0,4.172-1.18,21.151,21.151,0,0,0,4.074-3.03,40.97,40.97,0,0,0,3.814-4.11c1.216-1.5,2.335-2.97,3.357-4.43s1.912-2.8,2.673-4.04,1.358-2.21,1.793-2.9a2.682,2.682,0,0,0,.163-0.95,4.063,4.063,0,0,0-.131-1.27,1.253,1.253,0,0,0-.489-0.78c-0.218-.13-0.5.07-0.847,0.59Q433.956,4214.91,432.62,4216.83Zm13.82,0c-0.891,1.29-1.815,2.59-2.771,3.92s-1.923,2.63-2.9,3.91-1.9,2.41-2.77,3.39a23.3,23.3,0,0,1-2.412,2.38,3.2,3.2,0,0,1-1.76.91c-0.479,0-.652-0.43-0.522-1.3q0.587-1.83,1.532-4.54t2.054-5.86q1.107-3.165,2.346-6.62t2.412-6.81q1.174-3.36,2.282-6.49t1.923-5.57q0.815-2.445,1.3-4.08a19.757,19.757,0,0,0,.554-2.08,2.251,2.251,0,0,0-.554-1.5,8.781,8.781,0,0,0-1.63-1.66,16.259,16.259,0,0,0-2.184-1.5,12.4,12.4,0,0,0-2.216-1.05,3.625,3.625,0,0,0-1.76-.22,0.893,0.893,0,0,0-.783.91,54.378,54.378,0,0,1-1.466,8.64c-0.761,3.06-1.641,6.15-2.641,9.25s-2.053,6.15-3.161,9.13-2.129,5.69-3.064,8.15-1.728,4.58-2.38,6.39a15.884,15.884,0,0,0-1.043,3.88,6.293,6.293,0,0,0,.424,3.29,7.143,7.143,0,0,0,1.5,2.18,5.235,5.235,0,0,0,1.891,1.21,5.113,5.113,0,0,0,1.6.36,8.478,8.478,0,0,0,4.172-1.18,21.156,21.156,0,0,0,4.075-3.03,40.963,40.963,0,0,0,3.813-4.11c1.216-1.5,2.336-2.97,3.358-4.43s1.911-2.8,2.672-4.04,1.358-2.21,1.793-2.9a2.636,2.636,0,0,0,.163-0.95,4.063,4.063,0,0,0-.13-1.27,1.253,1.253,0,0,0-.489-0.78c-0.218-.13-0.5.07-0.848,0.59Q447.777,4214.91,446.44,4216.83Zm23.272-.58q-1.663,1.92-3.618,4.04t-4.14,4.2a42.139,42.139,0,0,1-4.433,3.72,25.637,25.637,0,0,1-4.465,2.64,10.275,10.275,0,0,1-4.238,1.01,1.464,1.464,0,0,1-1.336-.68,3.267,3.267,0,0,1-.391-1.83,12.422,12.422,0,0,1,.423-2.67,32.926,32.926,0,0,1,1.044-3.29,9.166,9.166,0,0,0,1.857.48,14.448,14.448,0,0,0,2.315.17,8.343,8.343,0,0,0,4.367-1.31,19.768,19.768,0,0,0,3.912-3.09,18.989,18.989,0,0,0,2.9-3.78,8.9,8.9,0,0,0,1.271-3.36,7.336,7.336,0,0,0-.619-3.06,12.185,12.185,0,0,0-1.891-3.17,10.633,10.633,0,0,0-2.9-2.44,6.974,6.974,0,0,0-3.52-.98,6.721,6.721,0,0,0-3.194.98,18.332,18.332,0,0,0-3.553,2.64,27.505,27.505,0,0,0-3.488,3.98,40.222,40.222,0,0,0-3.1,4.95,34.473,34.473,0,0,0-2.347,5.57,27,27,0,0,0-1.206,5.87,4.246,4.246,0,0,0,.815,2.67,13.368,13.368,0,0,0,2.444,2.84,14.734,14.734,0,0,0,3.292,2.22,7.864,7.864,0,0,0,3.423.88,10.8,10.8,0,0,0,4.726-1.24,28.331,28.331,0,0,0,5.02-3.23,55.6,55.6,0,0,0,4.889-4.37c1.586-1.58,3.041-3.15,4.368-4.69s2.477-2.96,3.455-4.24,1.7-2.25,2.184-2.9a1.261,1.261,0,0,0,.1-0.72,3.556,3.556,0,0,0-.195-0.97,1.028,1.028,0,0,0-.489-0.62q-0.327-.165-0.782.42Q471.374,4214.33,469.712,4216.25Zm-9.974-7.17a7.86,7.86,0,0,1-1.3,3.19,16.5,16.5,0,0,1-3.064,3.49,10.061,10.061,0,0,1-4.466,2.28q1.043-2.025,2.152-3.91a35.912,35.912,0,0,1,2.183-3.33,16.534,16.534,0,0,1,2.021-2.28,2.7,2.7,0,0,1,1.663-.84C459.575,4207.68,459.846,4208.14,459.738,4209.08Zm41.394,9.84c-1.5,2.15-3.021,4.22-4.563,6.19s-2.977,3.67-4.3,5.06-2.337,2.08-3.032,2.08c-0.521,0-.652-0.48-0.391-1.43q0.52-1.575,1.369-3.78t1.76-4.66q0.912-2.445,1.858-4.89t1.695-4.57c0.5-1.41.913-2.61,1.239-3.62a12.429,12.429,0,0,0,.554-2.08,2.318,2.318,0,0,0-.457-1.5,7.831,7.831,0,0,0-1.336-1.5,9.441,9.441,0,0,0-1.793-1.24,5.9,5.9,0,0,0-1.76-.65,1.4,1.4,0,0,0-.521-0.07,0.768,0.768,0,0,0-.326.07,1.418,1.418,0,0,0-.522.26,11.9,11.9,0,0,0-2.379,1.86q-1.4,1.335-3.032,3.16t-3.389,3.94q-1.761,2.13-3.358,4.18t-3,3.84q-1.4,1.8-2.314,3.03,0.912-2.34,1.858-4.76,0.945-2.4,1.728-4.46c0.521-1.37.945-2.56,1.271-3.59a13.32,13.32,0,0,0,.554-2.11,2.966,2.966,0,0,0-.978-2.12,10.194,10.194,0,0,0-2.379-1.93,5.607,5.607,0,0,0-2.51-.84,1.032,1.032,0,0,0-1.239,1.1,15.382,15.382,0,0,1-.847,3.36q-0.718,2.055-1.728,4.47t-2.184,5.02q-1.173,2.61-2.216,4.95-1.043,2.355-1.76,4.3a11.631,11.631,0,0,0-.782,3.13,4.255,4.255,0,0,0,.847,3.03,8.142,8.142,0,0,0,2.282,2.06,8.232,8.232,0,0,0,2.542,1.04,2.158,2.158,0,0,0,1.63-.06,0.88,0.88,0,0,0,.326-0.92,4.354,4.354,0,0,1-.065-1.37,18.653,18.653,0,0,1,1.662-2.67q1.206-1.695,2.9-3.78t3.651-4.4q1.954-2.31,3.878-4.53t3.651-4.17c1.151-1.31,2.14-2.39,2.966-3.26q-1.044,2.67-2.347,5.64t-2.444,5.7q-1.142,2.745-1.989,5.02a12.933,12.933,0,0,0-.912,3.52,4.218,4.218,0,0,0,.749,2.87,7.737,7.737,0,0,0,2.086,2.02,8.561,8.561,0,0,0,2.445,1.11,3.323,3.323,0,0,0,1.76.13,8.341,8.341,0,0,0,3.325-1.6,29.066,29.066,0,0,0,3.683-3.26,54.29,54.29,0,0,0,3.683-4.24q1.825-2.31,3.423-4.49t2.8-4.01c0.8-1.22,1.423-2.15,1.858-2.81a2.032,2.032,0,0,0,.163-0.88,4.063,4.063,0,0,0-.13-1.27,1.253,1.253,0,0,0-.489-0.78c-0.218-.13-0.5.07-0.848,0.59Q503.381,4215.69,501.132,4218.92Z" transform="translate(-215.563 -4178.19)"/>
</svg>
