<svg xmlns="http://www.w3.org/2000/svg" width="220.093" height="43.56" viewBox="0 0 220.093 43.56">
  <defs>
    <style>
      .cls-1 {
        fill: #fff;
      }
    </style>
  </defs>
  <path id="Get_in_Touch" data-name="Get in Touch" class="cls-1" d="M688.847,5882.99c-0.75.15-1.468,0.32-2.15,0.5s-1.384.35-2.1,0.5a11.917,11.917,0,0,1-2.425.22,9.169,9.169,0,0,1-2.225-.22c-0.584-.15-1.034-0.28-1.35-0.38a1.15,1.15,0,0,0-.675-0.07,0.63,0.63,0,0,0-.2.62,4.557,4.557,0,0,0,.15.83,3.748,3.748,0,0,0,.6,1.27,4.39,4.39,0,0,0,1.25,1.18,3.764,3.764,0,0,0,2.1.52,13.606,13.606,0,0,0,2.95-.3c0.9-.2,1.932-0.36,3.1-0.5a33.448,33.448,0,0,1-2,3.4,29.055,29.055,0,0,1-2.775,3.58,17.277,17.277,0,0,1-3.25,2.82,6.057,6.057,0,0,1-3.375,1.15,4.705,4.705,0,0,1-3.875-1.55,7.347,7.347,0,0,1-1.525-4.05,19.365,19.365,0,0,1,.4-5.72,42.255,42.255,0,0,1,1.925-6.6,53.184,53.184,0,0,1,3.025-6.6,43.1,43.1,0,0,1,3.675-5.73,23.122,23.122,0,0,1,3.9-4.05,6.18,6.18,0,0,1,3.725-1.55,0.556,0.556,0,0,1,.625.6,4.847,4.847,0,0,1-.3,1.6,24.245,24.245,0,0,1-.9,2.3c-0.384.87-.75,1.76-1.1,2.68s-0.659,1.83-.925,2.75a8.914,8.914,0,0,0-.4,2.47,5.208,5.208,0,0,0,.625,2.7,4.807,4.807,0,0,0,1.35,1.55,2.366,2.366,0,0,0,1.35.5c0.416,0,.625-0.15.625-0.45a11.275,11.275,0,0,1,.225-1.87q0.225-1.23.55-2.7c0.216-.98.457-2,0.725-3.05s0.507-2.04.725-2.98,0.4-1.75.55-2.47a8.739,8.739,0,0,0,.225-1.53,7.769,7.769,0,0,0-1.175-4.7,4.564,4.564,0,0,0-3.875-1.55,11.668,11.668,0,0,0-5.95,1.85,28.751,28.751,0,0,0-6,4.9,43.181,43.181,0,0,0-5.325,6.95,46.39,46.39,0,0,0-3.975,7.95,31.807,31.807,0,0,0-1.975,7.95,14.707,14.707,0,0,0,.75,6.95,9.807,9.807,0,0,0,4.15,4.9c1.982,1.24,4.725,1.85,8.225,1.85a8.58,8.58,0,0,0,3.575-.77,13.866,13.866,0,0,0,3.225-2.03,19.032,19.032,0,0,0,2.75-2.82,26.352,26.352,0,0,0,2.175-3.18,20.783,20.783,0,0,0,1.475-3.05,12.007,12.007,0,0,0,.7-2.5,1.556,1.556,0,0,1,.85.2,4.077,4.077,0,0,1,.5.4c0.132,0.14.266,0.26,0.4,0.38a0.867,0.867,0,0,0,.6.17,1.823,1.823,0,0,0,1.075-.7,2.342,2.342,0,0,0,.675-1.7,3.705,3.705,0,0,0-.15-1.02,2.672,2.672,0,0,0-.525-0.98,3.075,3.075,0,0,0-.95-0.75,3.182,3.182,0,0,0-1.475-.3A13.184,13.184,0,0,0,688.847,5882.99Zm24.749,3.4c-0.85.98-1.775,2.02-2.775,3.1s-2.059,2.16-3.175,3.22a32.007,32.007,0,0,1-3.4,2.85,19.846,19.846,0,0,1-3.425,2.03,7.776,7.776,0,0,1-3.25.77,1.113,1.113,0,0,1-1.025-.52,2.5,2.5,0,0,1-.3-1.4,9.512,9.512,0,0,1,.325-2.05,25.594,25.594,0,0,1,.8-2.53,6.69,6.69,0,0,0,1.425.38,11.7,11.7,0,0,0,1.775.12,6.369,6.369,0,0,0,3.35-1,14.916,14.916,0,0,0,3-2.37,14.344,14.344,0,0,0,2.225-2.9,6.815,6.815,0,0,0,.975-2.58,5.639,5.639,0,0,0-.475-2.35,9.37,9.37,0,0,0-1.45-2.42,8.108,8.108,0,0,0-2.225-1.88,5.333,5.333,0,0,0-2.7-.75,5.136,5.136,0,0,0-2.45.75,14.213,14.213,0,0,0-2.725,2.03,21.45,21.45,0,0,0-2.675,3.05,30.84,30.84,0,0,0-2.375,3.8,26.183,26.183,0,0,0-1.8,4.27,20.582,20.582,0,0,0-.925,4.5,3.247,3.247,0,0,0,.625,2.05,10.1,10.1,0,0,0,1.875,2.18,11.3,11.3,0,0,0,2.525,1.7,5.947,5.947,0,0,0,2.625.67,8.138,8.138,0,0,0,3.625-.95,21.318,21.318,0,0,0,3.85-2.47,43.672,43.672,0,0,0,3.75-3.35q1.824-1.83,3.35-3.6c1.016-1.18,1.9-2.27,2.65-3.25s1.308-1.73,1.675-2.23a0.962,0.962,0,0,0,.075-0.55,2.854,2.854,0,0,0-.15-0.75,0.789,0.789,0,0,0-.375-0.47,0.536,0.536,0,0,0-.6.32Q714.87,5884.92,713.6,5886.39Zm-7.65-5.5a6.047,6.047,0,0,1-1,2.45,12.472,12.472,0,0,1-2.35,2.67,7.692,7.692,0,0,1-3.425,1.75q0.8-1.545,1.65-3a28.842,28.842,0,0,1,1.675-2.55,12.688,12.688,0,0,1,1.55-1.75,2.081,2.081,0,0,1,1.275-.65Q706.071,5879.81,705.946,5880.89Zm21.024-11.68c-0.8.07-1.617,0.15-2.45,0.25,0.466-1.26.825-2.33,1.075-3.2a16.288,16.288,0,0,0,.425-1.65,1.756,1.756,0,0,0-.425-1.15,7.117,7.117,0,0,0-1.25-1.27,13.163,13.163,0,0,0-1.675-1.15,8.6,8.6,0,0,0-1.7-.78,3.078,3.078,0,0,0-1.35-.15,0.692,0.692,0,0,0-.6.7,43.289,43.289,0,0,1-.675,4.45q-0.476,2.355-1.175,4.9-0.75,0-1.55.03c-0.534.02-1.117,0.02-1.75,0.02a11.039,11.039,0,0,1-2.425-.22,7.8,7.8,0,0,1-1.6-.53,9.655,9.655,0,0,1-.975-0.52,1.161,1.161,0,0,0-.55-0.23q-0.5,0-.525.9a4.876,4.876,0,0,0,.4,1.95,5.739,5.739,0,0,0,1.35,1.95,3.265,3.265,0,0,0,2.375.9c0.466,0,1.05-.03,1.75-0.1s1.466-.15,2.3-0.25q-1.2,3.81-2.575,7.5t-2.55,6.8q-1.175,3.105-1.975,5.38a17.438,17.438,0,0,0-.9,3.17,2.7,2.7,0,0,0,.65,2.15,5.2,5.2,0,0,0,1.8,1.25,8.364,8.364,0,0,0,2.05.6,11.074,11.074,0,0,0,1.4.15,0.479,0.479,0,0,0,.175-0.02,0.468,0.468,0,0,1,.175-0.03,5.079,5.079,0,0,0,2.5-1.07,23.088,23.088,0,0,0,2.775-2.4,37.594,37.594,0,0,0,2.8-3.15c0.916-1.15,1.783-2.28,2.6-3.38s1.533-2.1,2.15-3.02,1.091-1.64,1.425-2.18a2,2,0,0,0,.125-0.72,3.14,3.14,0,0,0-.1-0.98,0.968,0.968,0,0,0-.375-0.6q-0.25-.15-0.65.45-0.851,1.2-1.925,2.73c-0.717,1.02-1.467,2.05-2.25,3.1s-1.584,2.08-2.4,3.1-1.584,1.92-2.3,2.72a17.188,17.188,0,0,1-1.975,1.93,2.645,2.645,0,0,1-1.4.72c-0.467,0-.567-0.46-0.3-1.4,0.4-1.16.933-2.7,1.6-4.6s1.383-3.95,2.15-6.17,1.558-4.48,2.375-6.78,1.575-4.43,2.275-6.4c1.566-.26,2.975-0.48,4.225-0.65a24.836,24.836,0,0,1,2.725-.25,7.269,7.269,0,0,1,1.875.18,5.74,5.74,0,0,1,.975.35,2.048,2.048,0,0,1,.525.35,0.7,0.7,0,0,0,.525.17,0.57,0.57,0,0,0,.5-0.62,2.026,2.026,0,0,0-.325-1.35,4.089,4.089,0,0,0-1.5-1.35,6.147,6.147,0,0,0-3.075-.63C728.7,5869.11,727.77,5869.15,726.97,5869.21Zm18.849,17.55c-0.734,1-1.492,2.04-2.275,3.1s-1.584,2.1-2.4,3.1-1.592,1.9-2.325,2.7a18.653,18.653,0,0,1-2,1.93,2.644,2.644,0,0,1-1.45.72q-0.651,0-.25-1.35c0.266-.76.591-1.67,0.975-2.72s0.791-2.14,1.225-3.28,0.866-2.27,1.3-3.42,0.825-2.22,1.175-3.2,0.641-1.83.875-2.55a9.225,9.225,0,0,0,.4-1.53,2.243,2.243,0,0,0-.775-1.62,8.685,8.685,0,0,0-1.825-1.48,4.256,4.256,0,0,0-1.9-.65,0.8,0.8,0,0,0-.95.85,8.963,8.963,0,0,1-.6,1.9q-0.55,1.41-1.35,3.3t-1.725,4.05c-0.616,1.44-1.2,2.83-1.75,4.18s-1.016,2.57-1.4,3.67a10.215,10.215,0,0,0-.625,2.55,2.7,2.7,0,0,0,.65,2.15,4.9,4.9,0,0,0,1.8,1.23,9.208,9.208,0,0,0,2.05.57,11.074,11.074,0,0,0,1.4.15h0.3a5.682,5.682,0,0,0,2.5-1.1,19.976,19.976,0,0,0,2.775-2.4,39.627,39.627,0,0,0,2.8-3.17c0.916-1.15,1.775-2.28,2.575-3.38s1.5-2.1,2.1-3.02,1.066-1.64,1.4-2.18a1.726,1.726,0,0,0,.15-0.67,3.813,3.813,0,0,0-.025-0.98,0.855,0.855,0,0,0-.3-0.6q-0.225-.15-0.625.45Q746.918,5885.26,745.819,5886.76Zm-2.875-13.87a6.836,6.836,0,0,0,1.625-1.55,9.037,9.037,0,0,0,1.125-1.95,7.138,7.138,0,0,0,.525-1.83,3.008,3.008,0,0,0-.8-2.47,3.313,3.313,0,0,0-2.4-.88,4.441,4.441,0,0,0-2.075.58,9.813,9.813,0,0,0-2.025,1.45,8.179,8.179,0,0,0-1.575,1.95,5.19,5.19,0,0,0-.725,2.07,2,2,0,0,0,.325,1.25,3.724,3.724,0,0,0,1,1.05,4.76,4.76,0,0,0,1.425.7,5.231,5.231,0,0,0,1.6.25A3.435,3.435,0,0,0,742.944,5872.89Zm26.35,15.55q-1.725,2.475-3.5,4.75a50.331,50.331,0,0,1-3.3,3.87c-1.017,1.07-1.792,1.6-2.325,1.6-0.4,0-.5-0.36-0.3-1.1,0.266-.8.616-1.76,1.05-2.9s0.883-2.32,1.35-3.57,0.941-2.5,1.425-3.75,0.916-2.42,1.3-3.5,0.7-2.01.95-2.78a9.577,9.577,0,0,0,.425-1.6,1.8,1.8,0,0,0-.35-1.15,6.046,6.046,0,0,0-1.025-1.15,7.7,7.7,0,0,0-1.375-.95,4.81,4.81,0,0,0-1.35-.5,1.114,1.114,0,0,0-.4-0.05,0.6,0.6,0,0,0-.25.05,1.261,1.261,0,0,0-.4.2,9.315,9.315,0,0,0-1.825,1.43c-0.717.68-1.492,1.49-2.325,2.42s-1.7,1.95-2.6,3.03-1.759,2.15-2.575,3.2-1.584,2.03-2.3,2.95-1.309,1.69-1.775,2.32c0.466-1.2.941-2.41,1.425-3.65s0.925-2.37,1.325-3.42,0.725-1.97.975-2.75a10.2,10.2,0,0,0,.425-1.63,2.268,2.268,0,0,0-.75-1.62,7.92,7.92,0,0,0-1.825-1.48,4.416,4.416,0,0,0-1.925-.65,0.8,0.8,0,0,0-.95.85,11.824,11.824,0,0,1-.65,2.58q-0.551,1.575-1.325,3.42c-0.517,1.24-1.075,2.52-1.675,3.85s-1.166,2.6-1.7,3.8-0.983,2.3-1.35,3.3a8.925,8.925,0,0,0-.6,2.4,3.3,3.3,0,0,0,.65,2.33,6.552,6.552,0,0,0,3.7,2.37,1.563,1.563,0,0,0,1.25-.05,0.66,0.66,0,0,0,.25-0.7,3.334,3.334,0,0,1-.05-1.05,14.51,14.51,0,0,1,1.275-2.05c0.616-.86,1.358-1.83,2.225-2.9s1.8-2.19,2.8-3.37,1.991-2.34,2.975-3.48,1.916-2.2,2.8-3.2,1.641-1.83,2.275-2.5q-0.8,2.055-1.8,4.33c-0.667,1.52-1.292,2.97-1.875,4.37s-1.092,2.69-1.525,3.85a10.026,10.026,0,0,0-.7,2.7,3.217,3.217,0,0,0,.575,2.2,5.785,5.785,0,0,0,1.6,1.55,6.287,6.287,0,0,0,1.875.85,2.457,2.457,0,0,0,1.35.1,6.3,6.3,0,0,0,2.55-1.22,22.23,22.23,0,0,0,2.825-2.5c0.95-.98,1.891-2.07,2.825-3.25s1.808-2.33,2.625-3.45,1.533-2.14,2.15-3.08,1.091-1.65,1.425-2.15a1.555,1.555,0,0,0,.125-0.67,3.14,3.14,0,0,0-.1-0.98,0.968,0.968,0,0,0-.375-0.6q-0.25-.15-0.65.45Q771.018,5885.96,769.294,5888.44Zm28.024-29.84q-3.2.48-6.55,1.09t-6.475,1.09a36.174,36.174,0,0,1-5.375.48,16.1,16.1,0,0,1-3.55-.3c-0.833-.2-1.45-0.35-1.85-0.47a0.707,0.707,0,0,0-.725,0,2.743,2.743,0,0,0-.125,1.12,4.239,4.239,0,0,0,.25,1.13,4.9,4.9,0,0,0,.875,1.55,5.285,5.285,0,0,0,1.725,1.35,6.067,6.067,0,0,0,2.8.57,30.2,30.2,0,0,0,4.125-.35q2.524-.345,5.425-0.75a59.677,59.677,0,0,1-1.425,6.23c-0.617,2.18-1.309,4.36-2.075,6.52s-1.55,4.28-2.35,6.33-1.534,3.92-2.2,5.6-1.209,3.14-1.625,4.37a9.746,9.746,0,0,0-.625,2.65,3.026,3.026,0,0,0,.975,2.15,8.917,8.917,0,0,0,2.125,1.63,6.023,6.023,0,0,0,2.125.75q0.975,0.12.975-.48a16.9,16.9,0,0,1,.85-4.17q0.849-2.88,2.1-6.45c0.833-2.38,1.741-4.87,2.725-7.45s1.908-4.98,2.775-7.18,1.583-4.07,2.15-5.62a18.68,18.68,0,0,0,.9-2.83,1,1,0,0,0-.1-0.57,4.156,4.156,0,0,0-.425-0.78c-0.184-.26-0.384-0.52-0.6-0.77a6.576,6.576,0,0,0-.675-0.68c1.333-.16,2.608-0.3,3.825-0.4s2.341-.15,3.375-0.15a13.065,13.065,0,0,1,3.775.43,6.161,6.161,0,0,1,1.975.95,3.9,3.9,0,0,1,.9.95,0.688,0.688,0,0,0,.55.42,1.581,1.581,0,0,0,.8-0.32,4.4,4.4,0,0,0,.975-0.91,5.562,5.562,0,0,0,.8-1.31,3.686,3.686,0,0,0,.325-1.53,4.962,4.962,0,0,0-.275-1.61,2.919,2.919,0,0,0-1.125-1.41,7.082,7.082,0,0,0-2.375-.98,17.133,17.133,0,0,0-3.975-.38A39.007,39.007,0,0,0,797.318,5858.6Zm16.675,28.21a36.367,36.367,0,0,1-2.7,2.85,24.528,24.528,0,0,1-2.95,2.4,12.363,12.363,0,0,1-2.975,1.55,31.077,31.077,0,0,0,2.45-5,16.232,16.232,0,0,0,1.1-4.4,8.389,8.389,0,0,0-.225-2.9,9.477,9.477,0,0,0-1.2-2.85,7.437,7.437,0,0,0-2.075-2.15,5.084,5.084,0,0,0-2.9-.85,7.055,7.055,0,0,0-3.1.78,12.514,12.514,0,0,0-3.025,2.1,14.063,14.063,0,0,0-2.475,3.07,12.916,12.916,0,0,0-1.5,3.65q-0.75.96-1.475,2.1c-0.483.77-.933,1.54-1.35,2.3a20.264,20.264,0,0,0-1.05,2.23,6,6,0,0,0-.125,4.45,8.225,8.225,0,0,0,1.4,2.57,8.114,8.114,0,0,0,2.325,2,6.131,6.131,0,0,0,3.175.8,7.324,7.324,0,0,0,4.2-1.4,17.83,17.83,0,0,0,3.8-3.55,11.1,11.1,0,0,0,4.6-1.65,25.168,25.168,0,0,0,3.925-3.02,28.012,28.012,0,0,0,3.1-3.43c0.882-1.16,1.607-2.13,2.175-2.9a1.038,1.038,0,0,0,.175-0.65,3.146,3.146,0,0,0-.075-0.9,0.865,0.865,0,0,0-.35-0.55c-0.168-.1-0.368.04-0.6,0.4A36.769,36.769,0,0,1,813.993,5886.81Zm-10.075-8.05a15.28,15.28,0,0,1,.05,4.25,13.66,13.66,0,0,1-.45,2.13c-0.234.82-.525,1.69-0.875,2.62a31.249,31.249,0,0,1-1.25,2.88c-0.484.98-.993,1.91-1.525,2.77a11.137,11.137,0,0,1-3.3-1.75c0.432-.63.875-1.26,1.325-1.9s0.85-1.22,1.2-1.77,0.641-1.03.875-1.45a3.167,3.167,0,0,0,.4-0.98,1.593,1.593,0,0,0-.475-1.22,4.877,4.877,0,0,0-1.325-1,10.647,10.647,0,0,0-1.625-.7,7.08,7.08,0,0,0-1.375-.33,11.754,11.754,0,0,1,1.475-1.92,11.368,11.368,0,0,1,1.725-1.5,9.53,9.53,0,0,1,1.8-1,4.54,4.54,0,0,1,1.75-.38A1.491,1.491,0,0,1,803.918,5878.76Zm-10.45,19.15a1.425,1.425,0,0,1,.025-0.95,8.158,8.158,0,0,1,.6-1.42c0.282-.55.607-1.13,0.975-1.73a9.938,9.938,0,0,0,3.05,2,10.252,10.252,0,0,1-1.925,1.78,3.436,3.436,0,0,1-1.975.67A0.715,0.715,0,0,1,793.468,5897.91Zm44.8-11.17q-1.05,1.53-2.2,3.12c-0.767,1.07-1.542,2.11-2.325,3.13s-1.525,1.93-2.225,2.75a17.276,17.276,0,0,1-1.9,1.95,2.442,2.442,0,0,1-1.4.72c-0.4,0-.517-0.36-0.35-1.1,0.267-.8.617-1.76,1.05-2.9s0.883-2.32,1.35-3.57,0.942-2.51,1.425-3.78,0.917-2.44,1.3-3.52,0.7-2.01.95-2.78a9.476,9.476,0,0,0,.425-1.6,2.268,2.268,0,0,0-.75-1.62,8.118,8.118,0,0,0-1.8-1.48,4.256,4.256,0,0,0-1.9-.65,0.8,0.8,0,0,0-.95.85,13.762,13.762,0,0,1-.975,3.58c-0.583,1.52-1.258,3.17-2.025,4.97-0.867,1.5-1.858,3.05-2.975,4.63a44.107,44.107,0,0,1-3.4,4.27,26.7,26.7,0,0,1-3.3,3.13,4.666,4.666,0,0,1-2.625,1.22c-0.267,0-.292-0.4-0.075-1.22a27.219,27.219,0,0,1,1.075-3.08c0.5-1.23,1.075-2.59,1.725-4.07s1.267-2.91,1.85-4.28,1.083-2.56,1.5-3.6a9.7,9.7,0,0,0,.675-2.05,2.268,2.268,0,0,0-.75-1.62,8.118,8.118,0,0,0-1.8-1.48,4.256,4.256,0,0,0-1.9-.65,0.851,0.851,0,0,0-1,.85,11.738,11.738,0,0,1-.625,2.53q-0.525,1.53-1.3,3.27-0.776,1.755-1.625,3.63c-0.566,1.25-1.107,2.46-1.625,3.62s-0.95,2.23-1.3,3.18a10.477,10.477,0,0,0-.625,2.32,4.388,4.388,0,0,0,.45,2.4,6.1,6.1,0,0,0,1.375,1.78,6.236,6.236,0,0,0,1.75,1.1,4.251,4.251,0,0,0,1.525.37,5.452,5.452,0,0,0,2.35-.57,11.71,11.71,0,0,0,2.375-1.53,20.707,20.707,0,0,0,2.275-2.15c0.733-.8,1.433-1.61,2.1-2.45-0.167.47-.3,0.9-0.4,1.28a3.964,3.964,0,0,0-.15.97,3.3,3.3,0,0,0,.55,2.2,5.729,5.729,0,0,0,1.6,1.58,6.247,6.247,0,0,0,1.875.87,2.536,2.536,0,0,0,1.375.1,6.118,6.118,0,0,0,2.525-1.22,22.46,22.46,0,0,0,2.775-2.48c0.933-.96,1.867-2.03,2.8-3.2s1.792-2.3,2.575-3.4,1.483-2.11,2.1-3.05,1.092-1.65,1.425-2.15a1.242,1.242,0,0,0,.15-0.72,4.518,4.518,0,0,0-.1-0.98,0.881,0.881,0,0,0-.35-0.6q-0.251-.15-0.65.45Q839.317,5885.21,838.267,5886.74Zm13.375-5.43a4.69,4.69,0,0,0-.825-2.2,6.979,6.979,0,0,0-2.3-2.07,8.255,8.255,0,0,0-4.25-.93,4.437,4.437,0,0,0-2.675,1.05,15.225,15.225,0,0,0-2.7,2.75,30.366,30.366,0,0,0-2.5,3.8c-0.783,1.4-1.475,2.8-2.075,4.18a39.125,39.125,0,0,0-1.475,3.92,15.3,15.3,0,0,0-.675,3,4.015,4.015,0,0,0,.35,1.98,7,7,0,0,0,1.35,2.05,7.291,7.291,0,0,0,5.45,2.27,8.145,8.145,0,0,0,3.625-.93,21.391,21.391,0,0,0,3.75-2.42,34.868,34.868,0,0,0,3.6-3.32q1.725-1.83,3.2-3.58c0.983-1.16,1.833-2.23,2.55-3.2s1.258-1.71,1.625-2.25a0.873,0.873,0,0,0,.05-0.55,2.927,2.927,0,0,0-.2-0.75,0.882,0.882,0,0,0-.4-0.47,0.536,0.536,0,0,0-.6.32q-0.951,1.11-2.175,2.58c-0.817.98-1.684,2.01-2.6,3.07s-1.867,2.13-2.85,3.18-1.925,1.98-2.825,2.8a19.084,19.084,0,0,1-2.575,2,4.077,4.077,0,0,1-2.075.77,3.318,3.318,0,0,1-.7-0.07,1.125,1.125,0,0,1-.6-0.35,1.819,1.819,0,0,1-.375-0.8,4.071,4.071,0,0,1-.025-1.38,18.789,18.789,0,0,1,.5-2.91,33.058,33.058,0,0,1,1-3.34q0.6-1.68,1.3-3.3,0.7-1.635,1.4-2.91a14.464,14.464,0,0,1,1.325-2.06,1.655,1.655,0,0,1,1.075-.78,5.009,5.009,0,0,1,2.175.43,6.985,6.985,0,0,1,1.45.9c0.383,0.32.691,0.57,0.925,0.77a0.4,0.4,0,0,0,.6.05A1.9,1.9,0,0,0,851.642,5881.31Zm28.675,5.48q-1.151,1.53-2.4,3.12c-0.834,1.07-1.692,2.11-2.575,3.13s-1.717,1.93-2.5,2.75a18.563,18.563,0,0,1-2.125,1.95,2.858,2.858,0,0,1-1.5.72q-0.45,0-.275-1.02a23.773,23.773,0,0,1,.65-2.63c0.316-1.06.708-2.24,1.175-3.52s0.925-2.53,1.375-3.75,0.833-2.32,1.15-3.3a10.671,10.671,0,0,0,.525-2.13,6.634,6.634,0,0,0-.125-2.05,5.569,5.569,0,0,0-.8-1.92,4.434,4.434,0,0,0-1.575-1.43,4.988,4.988,0,0,0-2.4-.55,3.927,3.927,0,0,0-2.425,1.38,32.615,32.615,0,0,0-3,3.4q-1.575,2.025-3.1,4.35t-2.725,4.22q0.849-2.445,1.825-5.12t1.9-5.33q0.924-2.64,1.775-5.1c0.566-1.63,1.075-3.1,1.525-4.4s0.808-2.37,1.075-3.22a7.624,7.624,0,0,0,.4-1.63,1.756,1.756,0,0,0-.425-1.15,7.117,7.117,0,0,0-1.25-1.27,13.163,13.163,0,0,0-1.675-1.15,9.389,9.389,0,0,0-1.7-.8,2.874,2.874,0,0,0-1.35-.18,0.692,0.692,0,0,0-.6.7,46.837,46.837,0,0,1-1.2,6.73q-0.9,3.63-2.075,7.35t-2.525,7.32l-2.475,6.6q-1.125,3-1.9,5.18a16.292,16.292,0,0,0-.875,3.07,3.377,3.377,0,0,0,.7,2.73,3.752,3.752,0,0,0,1.975,1.1,5.918,5.918,0,0,0,2.175.05,2.745,2.745,0,0,0,1.3-.43,1.3,1.3,0,0,0,.25-0.3,0.33,0.33,0,0,0,.025-0.22q-0.026-.12-0.075-0.3a1.6,1.6,0,0,1,0-.58,3.914,3.914,0,0,1,.175-0.75q0.174-.6.475-1.5c0.6-.8,1.275-1.73,2.025-2.8s1.508-2.15,2.275-3.27,1.516-2.21,2.25-3.28,1.408-2.02,2.025-2.87,1.133-1.53,1.55-2.05a1.873,1.873,0,0,1,.875-0.78c0.2,0,.216.24,0.05,0.7s-0.425,1.09-.775,1.85-0.759,1.65-1.225,2.63-0.917,1.97-1.35,2.97-0.809,1.97-1.125,2.9a11.091,11.091,0,0,0-.575,2.45,4.37,4.37,0,0,0,.575,2.78,6.655,6.655,0,0,0,1.825,1.95,8.481,8.481,0,0,0,2.225,1.15,6.053,6.053,0,0,0,1.825.37,4.843,4.843,0,0,0,2.6-.95,23.864,23.864,0,0,0,3.05-2.42,39.292,39.292,0,0,0,3.175-3.3q1.575-1.83,2.925-3.55c0.9-1.15,1.7-2.22,2.4-3.2s1.216-1.74,1.55-2.28a2,2,0,0,0,.125-0.72,3.14,3.14,0,0,0-.1-0.98,0.968,0.968,0,0,0-.375-0.6q-0.25-.15-0.65.45Q881.466,5885.26,880.317,5886.79Z" transform="translate(-663.313 -5858.13)"/>
</svg>
