<svg xmlns="http://www.w3.org/2000/svg" width="223.344" height="53.97" viewBox="0 0 223.344 53.97">
  <defs>
    <style>
      .cls-1 {
        fill: #333332;
        fill-rule: evenodd;
      }
    </style>
  </defs>
  <path id="Professional" class="cls-1" d="M271.772,5137.81a34.989,34.989,0,0,0-4.8,1.45,34.156,34.156,0,0,0-6.425,3.45,35.047,35.047,0,0,0-5.175,4.3,22.4,22.4,0,0,0-3.45,4.43,7.921,7.921,0,0,0-1.25,3.82,11.129,11.129,0,0,0,.625,3.95,10.285,10.285,0,0,0,1.475,2.73,6.239,6.239,0,0,0,1.7,1.57,2.865,2.865,0,0,0,1.35.5c0.332,0,.491-0.07.475-0.22a3.78,3.78,0,0,0-.225-0.75q-0.2-.525-0.45-1.38a7.7,7.7,0,0,1-.25-2.15,9.307,9.307,0,0,1,.825-3.52,22.323,22.323,0,0,1,2.275-4.08,34.617,34.617,0,0,1,3.4-4.15,37.854,37.854,0,0,1,4.15-3.75,61.328,61.328,0,0,1-1.625,6.35c-0.684,2.2-1.418,4.39-2.2,6.55s-1.568,4.25-2.35,6.25-1.5,3.84-2.15,5.5-1.175,3.1-1.575,4.3a9.542,9.542,0,0,0-.6,2.6,3.082,3.082,0,0,0,1,2.25,8.507,8.507,0,0,0,2.175,1.6,5.8,5.8,0,0,0,2.175.68c0.666,0.05,1-.14,1-0.58a11.591,11.591,0,0,1,.5-2.87c0.332-1.22.766-2.61,1.3-4.18s1.132-3.25,1.8-5.07,1.316-3.68,1.95-5.58a0.177,0.177,0,0,0,.15.05,28.409,28.409,0,0,0,7.925-1.05,26.435,26.435,0,0,0,6.45-2.77,20.1,20.1,0,0,0,4.75-3.95,15.207,15.207,0,0,0,2.8-4.53,9.817,9.817,0,0,0,.65-4.52,6.9,6.9,0,0,0-1.75-3.95,10.6,10.6,0,0,0-4.4-2.78,21.294,21.294,0,0,0-7.225-1.05A23.158,23.158,0,0,0,271.772,5137.81Zm-1.425,15.6c0.582-1.63,1.091-3.1,1.525-4.42s0.782-2.41,1.05-3.28a7.832,7.832,0,0,0,.4-1.65,2.5,2.5,0,0,0-.85-1.5c-0.568-.6-1.118-1.13-1.65-1.6a19.613,19.613,0,0,1,3.275-1.25,12.027,12.027,0,0,1,3.225-.45,6.019,6.019,0,0,1,4.1,1.4,6.728,6.728,0,0,1,2.125,3.5,9.71,9.71,0,0,1-.05,4.58,10.909,10.909,0,0,1-2.4,4.62,14.414,14.414,0,0,1-4.925,3.63,18.541,18.541,0,0,1-7.6,1.57C269.172,5156.76,269.763,5155.05,270.347,5153.41Zm29.5,12.5q-1.026,1.6-2.125,3.33c-0.734,1.15-1.475,2.28-2.225,3.4s-1.459,2.12-2.125,3a21.18,21.18,0,0,1-1.825,2.15,2.24,2.24,0,0,1-1.375.82c-0.434,0-.517-0.46-0.25-1.4,0.333-.96.741-2.1,1.225-3.4s0.95-2.58,1.4-3.85,0.85-2.41,1.2-3.45a10.989,10.989,0,0,0,.575-2.15,3.6,3.6,0,0,0-.475-2.25,6.256,6.256,0,0,0-1.5-1.6,18.765,18.765,0,0,0-2.05-1.32,15.774,15.774,0,0,1-2.075-1.38,43.205,43.205,0,0,0,2.125-4.62,16.842,16.842,0,0,0,1.125-4.58,6.316,6.316,0,0,0-.475-3.82,2.135,2.135,0,0,0-1.825-1.13,6.242,6.242,0,0,0-2.475.68,11.8,11.8,0,0,0-2.875,1.9,13.852,13.852,0,0,0-2.475,2.87,7.554,7.554,0,0,0-1.225,3.6,7.9,7.9,0,0,0,.175,2.8,7.362,7.362,0,0,0,.95,2.15,7.086,7.086,0,0,0,1.475,1.65c0.566,0.47,1.133.9,1.7,1.3-0.4.57-.75,1.1-1.05,1.58a12.508,12.508,0,0,1-.85,1.22,0.807,0.807,0,0,0-.075.6,2.139,2.139,0,0,0,.275.68,1.326,1.326,0,0,0,.45.47,0.256,0.256,0,0,0,.4-0.1c0.266-.36.625-0.85,1.075-1.45s0.908-1.26,1.375-2a7.785,7.785,0,0,1,1.55,1.38,2.033,2.033,0,0,1,.45,1.57,7.6,7.6,0,0,1-.8,2.35q-0.75,1.6-1.65,3.45c-0.6,1.24-1.167,2.47-1.7,3.7a10.236,10.236,0,0,0-.9,3.2,2.7,2.7,0,0,0,.65,2.15,5.2,5.2,0,0,0,1.8,1.25,8.352,8.352,0,0,0,2.05.6,11.074,11.074,0,0,0,1.4.15,0.479,0.479,0,0,0,.175-0.02,0.349,0.349,0,0,1,.125-0.03,5.2,5.2,0,0,0,2.475-1.2,18.652,18.652,0,0,0,2.65-2.62q1.325-1.575,2.625-3.45t2.425-3.65c0.75-1.18,1.408-2.28,1.975-3.28s1.016-1.75,1.35-2.25a1.555,1.555,0,0,0,.125-0.67,3.14,3.14,0,0,0-.1-0.98,0.968,0.968,0,0,0-.375-0.6q-0.251-.15-0.65.45C301.137,5163.91,300.529,5164.85,299.846,5165.91Zm-13.6-15.5a16.711,16.711,0,0,1,.775-2.17,8.958,8.958,0,0,1,.975-1.73,1.411,1.411,0,0,1,.975-0.7,0.844,0.844,0,0,1,.8.55,4.96,4.96,0,0,1,.1,2.15,13.91,13.91,0,0,1-.975,3.9,35.034,35.034,0,0,1-1.925,4.1,5.136,5.136,0,0,1-.9-1.72,6.151,6.151,0,0,1-.2-2.28A9.686,9.686,0,0,1,286.246,5150.41Zm33.349,15.4a36.367,36.367,0,0,1-2.7,2.85,24.45,24.45,0,0,1-2.95,2.4,12.326,12.326,0,0,1-2.975,1.55,30.994,30.994,0,0,0,2.45-5,16.2,16.2,0,0,0,1.1-4.4,8.389,8.389,0,0,0-.225-2.9,9.477,9.477,0,0,0-1.2-2.85,7.424,7.424,0,0,0-2.075-2.15,5.082,5.082,0,0,0-2.9-.85,7.058,7.058,0,0,0-3.1.78,12.533,12.533,0,0,0-3.025,2.1,14.063,14.063,0,0,0-2.475,3.07,12.916,12.916,0,0,0-1.5,3.65q-0.75.96-1.475,2.1c-0.483.77-.933,1.54-1.35,2.3a20.637,20.637,0,0,0-1.05,2.23,6,6,0,0,0-.125,4.45,8.225,8.225,0,0,0,1.4,2.57,8.14,8.14,0,0,0,2.325,2,6.133,6.133,0,0,0,3.175.8,7.319,7.319,0,0,0,4.2-1.4,17.783,17.783,0,0,0,3.8-3.55,11.1,11.1,0,0,0,4.6-1.65,25.074,25.074,0,0,0,3.925-3.02,27.85,27.85,0,0,0,3.1-3.43c0.883-1.16,1.608-2.13,2.175-2.9a1.031,1.031,0,0,0,.175-0.65,3.076,3.076,0,0,0-.075-0.9,0.857,0.857,0,0,0-.35-0.55c-0.167-.1-0.367.04-0.6,0.4A36.539,36.539,0,0,1,319.6,5165.81Zm-10.075-8.05a15.24,15.24,0,0,1,.05,4.25,13.432,13.432,0,0,1-.45,2.13c-0.233.82-.525,1.69-0.875,2.62a30.979,30.979,0,0,1-1.25,2.88c-0.483.98-.992,1.91-1.525,2.77a11.137,11.137,0,0,1-3.3-1.75c0.433-.63.875-1.26,1.325-1.9s0.85-1.22,1.2-1.77,0.642-1.03.875-1.45a3.117,3.117,0,0,0,.4-0.98,1.59,1.59,0,0,0-.475-1.22,4.861,4.861,0,0,0-1.325-1,10.6,10.6,0,0,0-1.625-.7,7.063,7.063,0,0,0-1.375-.33,11.81,11.81,0,0,1,1.475-1.92,11.368,11.368,0,0,1,1.725-1.5,9.53,9.53,0,0,1,1.8-1,4.543,4.543,0,0,1,1.75-.38A1.49,1.49,0,0,1,309.52,5157.76Zm-10.45,19.15a1.431,1.431,0,0,1,.025-0.95,8.316,8.316,0,0,1,.6-1.42c0.283-.55.608-1.13,0.975-1.73a9.962,9.962,0,0,0,3.05,2,10.222,10.222,0,0,1-1.925,1.78,3.433,3.433,0,0,1-1.975.67A0.715,0.715,0,0,1,299.07,5176.91Zm36.225-10.87a38.475,38.475,0,0,1-2.7,3,26.093,26.093,0,0,1-2.95,2.55,13.676,13.676,0,0,1-3.025,1.72q0.3-1.14.5-2.07a12.015,12.015,0,0,0,.25-1.63,23.28,23.28,0,0,0-.025-4.95,4.472,4.472,0,0,0-1.625-3.2q1.2-3.345,2.325-6.4t2-5.47c0.583-1.62,1.05-2.94,1.4-3.98a9.153,9.153,0,0,0,.525-1.9,1.756,1.756,0,0,0-.425-1.15,7.117,7.117,0,0,0-1.25-1.27,13.163,13.163,0,0,0-1.675-1.15,9.389,9.389,0,0,0-1.7-.8,2.874,2.874,0,0,0-1.35-.18,0.692,0.692,0,0,0-.6.7,35.641,35.641,0,0,1-.925,5.28q-0.726,2.97-1.8,6.3t-2.35,6.82q-1.275,3.51-2.6,6.9-1.325,3.405-2.575,6.5t-2.225,5.6c-0.65,1.67-1.183,3.09-1.6,4.25a11.668,11.668,0,0,0-.675,2.4q-0.35,3.6,1.5,5.45a6.935,6.935,0,0,0,5.15,1.85,3.391,3.391,0,0,0,2.4-1.42,19.6,19.6,0,0,0,2.425-3.6,48.515,48.515,0,0,0,2.25-4.83q1.074-2.64,1.825-5.15a12.864,12.864,0,0,0,4.25-2.1,27.287,27.287,0,0,0,3.575-3.15,33.025,33.025,0,0,0,2.85-3.37c0.816-1.12,1.508-2.04,2.075-2.78a1.08,1.08,0,0,0,.175-0.67,3.14,3.14,0,0,0-.1-0.98,0.968,0.968,0,0,0-.375-0.6q-0.251-.15-0.65.45Q336.57,5164.465,335.3,5166.04Zm-11.675,5.97c-0.1.54-.234,1.12-0.4,1.75a3.468,3.468,0,0,1-1.025-.42,2.305,2.305,0,0,1-.675-0.63c0.333-.86.658-1.74,0.975-2.62s0.641-1.78.975-2.68a0.884,0.884,0,0,1,.35.58,3.914,3.914,0,0,1,.1.9,9.7,9.7,0,0,1-.05.97c-0.034.34-.05,0.6-0.05,0.8Q323.769,5171.215,323.62,5172.01Zm-7.025,15.83a4.086,4.086,0,0,1-.075-0.68c0.034-.2.15-0.63,0.35-1.3s0.475-1.5.825-2.52,0.758-2.18,1.225-3.5,0.983-2.73,1.55-4.23a4.207,4.207,0,0,0,1.95.95q-0.6,2.01-1.35,4.08c-0.5,1.38-1.009,2.64-1.525,3.77a24.1,24.1,0,0,1-1.45,2.78,1.849,1.849,0,0,1-1.125,1.07A0.4,0.4,0,0,1,316.6,5187.84Zm37-22.45c-0.85.98-1.775,2.02-2.775,3.1s-2.059,2.16-3.175,3.22a32.007,32.007,0,0,1-3.4,2.85,19.846,19.846,0,0,1-3.425,2.03,7.776,7.776,0,0,1-3.25.77,1.113,1.113,0,0,1-1.025-.52,2.5,2.5,0,0,1-.3-1.4,9.512,9.512,0,0,1,.325-2.05,25.594,25.594,0,0,1,.8-2.53,6.69,6.69,0,0,0,1.425.38,11.7,11.7,0,0,0,1.775.12,6.369,6.369,0,0,0,3.35-1,14.916,14.916,0,0,0,3-2.37,14.344,14.344,0,0,0,2.225-2.9,6.815,6.815,0,0,0,.975-2.58,5.639,5.639,0,0,0-.475-2.35,9.37,9.37,0,0,0-1.45-2.42,8.108,8.108,0,0,0-2.225-1.88,5.333,5.333,0,0,0-2.7-.75,5.136,5.136,0,0,0-2.45.75,14.213,14.213,0,0,0-2.725,2.03,21.45,21.45,0,0,0-2.675,3.05,30.84,30.84,0,0,0-2.375,3.8,26.183,26.183,0,0,0-1.8,4.27,20.582,20.582,0,0,0-.925,4.5,3.247,3.247,0,0,0,.625,2.05,10.1,10.1,0,0,0,1.875,2.18,11.3,11.3,0,0,0,2.525,1.7,5.947,5.947,0,0,0,2.625.67,8.138,8.138,0,0,0,3.625-.95,21.318,21.318,0,0,0,3.85-2.47,43.672,43.672,0,0,0,3.75-3.35q1.824-1.83,3.35-3.6c1.016-1.18,1.9-2.27,2.65-3.25s1.308-1.73,1.675-2.23a0.962,0.962,0,0,0,.075-0.55,2.854,2.854,0,0,0-.15-0.75,0.789,0.789,0,0,0-.375-0.47,0.536,0.536,0,0,0-.6.32Q354.869,5163.92,353.6,5165.39Zm-7.65-5.5a6.047,6.047,0,0,1-1,2.45,12.472,12.472,0,0,1-2.35,2.67,7.692,7.692,0,0,1-3.425,1.75q0.8-1.545,1.65-3a28.842,28.842,0,0,1,1.675-2.55,12.688,12.688,0,0,1,1.55-1.75,2.081,2.081,0,0,1,1.275-.65Q346.07,5158.81,345.945,5159.89Zm20.849,6a41.07,41.07,0,0,1-3.925,2.42,21.423,21.423,0,0,0-2.575-4.85q-1.675-2.4-3.025-4.75a46.824,46.824,0,0,0,2.45-5.05,16.819,16.819,0,0,0,1.3-5.05,6.308,6.308,0,0,0-.475-3.82,2.134,2.134,0,0,0-1.825-1.13,6.242,6.242,0,0,0-2.475.68,11.821,11.821,0,0,0-2.875,1.9,13.882,13.882,0,0,0-2.475,2.87,7.565,7.565,0,0,0-1.225,3.6,10.533,10.533,0,0,0,.775,5.25,29.508,29.508,0,0,0,2.425,4.4,6.549,6.549,0,0,1-.4.55,5.827,5.827,0,0,0-.35.5,0.807,0.807,0,0,0-.075.6,2.139,2.139,0,0,0,.275.68,1.255,1.255,0,0,0,.475.47,0.278,0.278,0,0,0,.425-0.1c0.1-.16.217-0.34,0.35-0.52s0.283-.38.45-0.58a24.68,24.68,0,0,1,1.975,3.5,11.3,11.3,0,0,1,.975,3.95c-0.867.47-1.683,0.94-2.45,1.4a15.722,15.722,0,0,0-2.025,1.45,7.808,7.808,0,0,0-1.425,1.58,3.412,3.412,0,0,0-.6,1.72,3.013,3.013,0,0,0,.225,1.35,4.992,4.992,0,0,0,.725,1.28,4.317,4.317,0,0,0,1.025.95,2.12,2.12,0,0,0,1.175.37,7.746,7.746,0,0,0,3.525-.87,12.355,12.355,0,0,0,3.1-2.23,12.986,12.986,0,0,0,2.275-2.97,8.16,8.16,0,0,0,1.05-3.13,6.671,6.671,0,0,0-.2-2.35c1.6-.86,3.083-1.75,4.45-2.65a9.56,9.56,0,0,0,3-2.9,1.242,1.242,0,0,0,.1-0.62,2.261,2.261,0,0,0-.15-0.85,0.677,0.677,0,0,0-.425-0.45,0.789,0.789,0,0,0-.675.52A10.671,10.671,0,0,1,366.794,5165.89Zm-10.95-15.48a16.86,16.86,0,0,1,.775-2.17,9.972,9.972,0,0,1,.95-1.73,1.346,1.346,0,0,1,.95-0.7,0.843,0.843,0,0,1,.8.55,4.943,4.943,0,0,1,.1,2.15,13.51,13.51,0,0,1-1.05,4.08,43.463,43.463,0,0,1-2.05,4.27,11.462,11.462,0,0,1-.75-2.17,6.822,6.822,0,0,1-.15-2.18A12.811,12.811,0,0,1,355.844,5150.41Zm-2.65,27.88a0.9,0.9,0,0,1-.125-0.63,3.466,3.466,0,0,1,1.15-2.17,16.049,16.049,0,0,1,2.65-2.03,12.745,12.745,0,0,1-.35,1.6,7.973,7.973,0,0,1-.675,1.68,5.226,5.226,0,0,1-.975,1.3,1.757,1.757,0,0,1-1.25.52A0.5,0.5,0,0,1,353.194,5178.29Zm27-12.4a41.07,41.07,0,0,1-3.925,2.42,21.423,21.423,0,0,0-2.575-4.85q-1.675-2.4-3.025-4.75a46.824,46.824,0,0,0,2.45-5.05,16.819,16.819,0,0,0,1.3-5.05,6.308,6.308,0,0,0-.475-3.82,2.134,2.134,0,0,0-1.825-1.13,6.242,6.242,0,0,0-2.475.68,11.821,11.821,0,0,0-2.875,1.9,13.882,13.882,0,0,0-2.475,2.87,7.565,7.565,0,0,0-1.225,3.6,10.533,10.533,0,0,0,.775,5.25,29.508,29.508,0,0,0,2.425,4.4,6.549,6.549,0,0,1-.4.55,5.827,5.827,0,0,0-.35.5,0.807,0.807,0,0,0-.075.6,2.139,2.139,0,0,0,.275.68,1.255,1.255,0,0,0,.475.47,0.278,0.278,0,0,0,.425-0.1c0.1-.16.217-0.34,0.35-0.52s0.283-.38.45-0.58a24.68,24.68,0,0,1,1.975,3.5,11.3,11.3,0,0,1,.975,3.95c-0.867.47-1.683,0.94-2.45,1.4a15.722,15.722,0,0,0-2.025,1.45,7.808,7.808,0,0,0-1.425,1.58,3.412,3.412,0,0,0-.6,1.72,3.013,3.013,0,0,0,.225,1.35,4.992,4.992,0,0,0,.725,1.28,4.317,4.317,0,0,0,1.025.95,2.12,2.12,0,0,0,1.175.37,7.746,7.746,0,0,0,3.525-.87,12.355,12.355,0,0,0,3.1-2.23,12.986,12.986,0,0,0,2.275-2.97,8.16,8.16,0,0,0,1.05-3.13,6.671,6.671,0,0,0-.2-2.35c1.6-.86,3.083-1.75,4.45-2.65a9.56,9.56,0,0,0,3-2.9,1.242,1.242,0,0,0,.1-0.62,2.261,2.261,0,0,0-.15-0.85,0.677,0.677,0,0,0-.425-0.45,0.789,0.789,0,0,0-.675.52A10.671,10.671,0,0,1,380.194,5165.89Zm-10.95-15.48a16.86,16.86,0,0,1,.775-2.17,9.972,9.972,0,0,1,.95-1.73,1.346,1.346,0,0,1,.95-0.7,0.843,0.843,0,0,1,.8.55,4.943,4.943,0,0,1,.1,2.15,13.51,13.51,0,0,1-1.05,4.08,43.463,43.463,0,0,1-2.05,4.27,11.462,11.462,0,0,1-.75-2.17,6.822,6.822,0,0,1-.15-2.18A12.811,12.811,0,0,1,369.244,5150.41Zm-2.65,27.88a0.9,0.9,0,0,1-.125-0.63,3.466,3.466,0,0,1,1.15-2.17,16.049,16.049,0,0,1,2.65-2.03,12.745,12.745,0,0,1-.35,1.6,7.973,7.973,0,0,1-.675,1.68,5.226,5.226,0,0,1-.975,1.3,1.757,1.757,0,0,1-1.25.52A0.5,0.5,0,0,1,366.594,5178.29Zm25.625-12.53c-0.733,1-1.492,2.04-2.275,3.1s-1.583,2.1-2.4,3.1-1.592,1.9-2.325,2.7a18.56,18.56,0,0,1-2,1.93,2.641,2.641,0,0,1-1.45.72q-0.649,0-.25-1.35c0.267-.76.592-1.67,0.975-2.72s0.792-2.14,1.225-3.28,0.867-2.27,1.3-3.42,0.825-2.22,1.175-3.2,0.642-1.83.875-2.55a9.122,9.122,0,0,0,.4-1.53,2.243,2.243,0,0,0-.775-1.62,8.659,8.659,0,0,0-1.825-1.48,4.256,4.256,0,0,0-1.9-.65,0.8,0.8,0,0,0-.95.85,8.841,8.841,0,0,1-.6,1.9q-0.55,1.41-1.35,3.3t-1.725,4.05c-0.616,1.44-1.2,2.83-1.75,4.18s-1.016,2.57-1.4,3.67a10.215,10.215,0,0,0-.625,2.55,2.7,2.7,0,0,0,.65,2.15,4.9,4.9,0,0,0,1.8,1.23,9.208,9.208,0,0,0,2.05.57,11.092,11.092,0,0,0,1.4.15h0.3a5.678,5.678,0,0,0,2.5-1.1,19.976,19.976,0,0,0,2.775-2.4,39.627,39.627,0,0,0,2.8-3.17c0.917-1.15,1.775-2.28,2.575-3.38s1.5-2.1,2.1-3.02,1.067-1.64,1.4-2.18a1.689,1.689,0,0,0,.15-0.67,3.813,3.813,0,0,0-.025-0.98,0.855,0.855,0,0,0-.3-0.6q-0.225-.15-0.625.45Q393.32,5164.26,392.219,5165.76Zm-2.875-13.87a6.817,6.817,0,0,0,1.625-1.55,8.955,8.955,0,0,0,1.125-1.95,7.138,7.138,0,0,0,.525-1.83,3,3,0,0,0-.8-2.47,3.313,3.313,0,0,0-2.4-.88,4.444,4.444,0,0,0-2.075.58,9.813,9.813,0,0,0-2.025,1.45,8.229,8.229,0,0,0-1.575,1.95,5.205,5.205,0,0,0-.725,2.07,2.011,2.011,0,0,0,.325,1.25,3.724,3.724,0,0,0,1,1.05,4.784,4.784,0,0,0,1.425.7,5.235,5.235,0,0,0,1.6.25A3.435,3.435,0,0,0,389.344,5151.89Zm22.35,13.92a36.367,36.367,0,0,1-2.7,2.85,24.528,24.528,0,0,1-2.95,2.4,12.344,12.344,0,0,1-2.975,1.55,31.077,31.077,0,0,0,2.45-5,16.2,16.2,0,0,0,1.1-4.4,8.389,8.389,0,0,0-.225-2.9,9.477,9.477,0,0,0-1.2-2.85,7.424,7.424,0,0,0-2.075-2.15,5.084,5.084,0,0,0-2.9-.85,7.055,7.055,0,0,0-3.1.78,12.533,12.533,0,0,0-3.025,2.1,14.063,14.063,0,0,0-2.475,3.07,12.916,12.916,0,0,0-1.5,3.65q-0.75.96-1.475,2.1c-0.483.77-.933,1.54-1.35,2.3a20.637,20.637,0,0,0-1.05,2.23,6,6,0,0,0-.125,4.45,8.225,8.225,0,0,0,1.4,2.57,8.14,8.14,0,0,0,2.325,2,6.131,6.131,0,0,0,3.175.8,7.319,7.319,0,0,0,4.2-1.4,17.806,17.806,0,0,0,3.8-3.55,11.1,11.1,0,0,0,4.6-1.65,25.121,25.121,0,0,0,3.925-3.02,27.931,27.931,0,0,0,3.1-3.43c0.883-1.16,1.608-2.13,2.175-2.9a1.031,1.031,0,0,0,.175-0.65,3.146,3.146,0,0,0-.075-0.9,0.861,0.861,0,0,0-.35-0.55c-0.167-.1-0.367.04-0.6,0.4A36.539,36.539,0,0,1,411.694,5165.81Zm-10.075-8.05a15.28,15.28,0,0,1,.05,4.25,13.432,13.432,0,0,1-.45,2.13c-0.234.82-.525,1.69-0.875,2.62a30.979,30.979,0,0,1-1.25,2.88c-0.484.98-.992,1.91-1.525,2.77a11.137,11.137,0,0,1-3.3-1.75c0.433-.63.875-1.26,1.325-1.9s0.85-1.22,1.2-1.77,0.641-1.03.875-1.45a3.142,3.142,0,0,0,.4-0.98,1.59,1.59,0,0,0-.475-1.22,4.861,4.861,0,0,0-1.325-1,10.647,10.647,0,0,0-1.625-.7,7.08,7.08,0,0,0-1.375-.33,11.81,11.81,0,0,1,1.475-1.92,11.368,11.368,0,0,1,1.725-1.5,9.53,9.53,0,0,1,1.8-1,4.543,4.543,0,0,1,1.75-.38A1.491,1.491,0,0,1,401.619,5157.76Zm-10.45,19.15a1.431,1.431,0,0,1,.025-0.95,8.158,8.158,0,0,1,.6-1.42c0.283-.55.608-1.13,0.975-1.73a9.95,9.95,0,0,0,3.05,2,10.252,10.252,0,0,1-1.925,1.78,3.436,3.436,0,0,1-1.975.67A0.715,0.715,0,0,1,391.169,5176.91Zm44.225-9.47q-1.725,2.475-3.5,4.75a50.331,50.331,0,0,1-3.3,3.87c-1.017,1.07-1.792,1.6-2.325,1.6-0.4,0-.5-0.36-0.3-1.1,0.266-.8.616-1.76,1.05-2.9s0.883-2.32,1.35-3.57,0.941-2.5,1.425-3.75,0.916-2.42,1.3-3.5,0.7-2.01.95-2.78a9.577,9.577,0,0,0,.425-1.6,1.8,1.8,0,0,0-.35-1.15,6.046,6.046,0,0,0-1.025-1.15,7.7,7.7,0,0,0-1.375-.95,4.81,4.81,0,0,0-1.35-.5,1.114,1.114,0,0,0-.4-0.05,0.6,0.6,0,0,0-.25.05,1.261,1.261,0,0,0-.4.2,9.315,9.315,0,0,0-1.825,1.43c-0.717.68-1.492,1.49-2.325,2.42s-1.7,1.95-2.6,3.03-1.759,2.15-2.575,3.2-1.584,2.03-2.3,2.95-1.309,1.69-1.775,2.32c0.466-1.2.941-2.41,1.425-3.65s0.925-2.37,1.325-3.42,0.725-1.97.975-2.75a10.2,10.2,0,0,0,.425-1.63,2.268,2.268,0,0,0-.75-1.62,7.92,7.92,0,0,0-1.825-1.48,4.416,4.416,0,0,0-1.925-.65,0.8,0.8,0,0,0-.95.85,11.824,11.824,0,0,1-.65,2.58q-0.55,1.575-1.325,3.42c-0.517,1.24-1.075,2.52-1.675,3.85s-1.167,2.6-1.7,3.8-0.983,2.3-1.35,3.3a8.849,8.849,0,0,0-.6,2.4,3.293,3.293,0,0,0,.65,2.33,6.552,6.552,0,0,0,3.7,2.37,1.563,1.563,0,0,0,1.25-.05,0.66,0.66,0,0,0,.25-0.7,3.334,3.334,0,0,1-.05-1.05,14.51,14.51,0,0,1,1.275-2.05c0.616-.86,1.358-1.83,2.225-2.9s1.8-2.19,2.8-3.37,1.991-2.34,2.975-3.48,1.916-2.2,2.8-3.2,1.641-1.83,2.275-2.5q-0.8,2.055-1.8,4.33c-0.667,1.52-1.292,2.97-1.875,4.37s-1.092,2.69-1.525,3.85a10.026,10.026,0,0,0-.7,2.7,3.217,3.217,0,0,0,.575,2.2,5.785,5.785,0,0,0,1.6,1.55,6.287,6.287,0,0,0,1.875.85,2.457,2.457,0,0,0,1.35.1,6.3,6.3,0,0,0,2.55-1.22,22.23,22.23,0,0,0,2.825-2.5c0.95-.98,1.891-2.07,2.825-3.25s1.808-2.33,2.625-3.45,1.533-2.14,2.15-3.08,1.091-1.65,1.425-2.15a1.555,1.555,0,0,0,.125-0.67,3.14,3.14,0,0,0-.1-0.98,0.968,0.968,0,0,0-.375-0.6q-0.251-.15-0.65.45Q437.118,5164.96,435.394,5167.44Zm25.05-1.68c-0.718,1-1.468,2.04-2.25,3.1s-1.584,2.1-2.4,3.1-1.593,1.9-2.325,2.7a20.582,20.582,0,0,1-1.975,1.93,2.545,2.545,0,0,1-1.425.72c-0.434,0-.518-0.43-0.25-1.3q0.6-1.74,1.575-4.35,0.975-2.595,1.925-5.15t1.65-4.57a14.072,14.072,0,0,0,.75-2.68,2.277,2.277,0,0,0-.75-1.62,8.164,8.164,0,0,0-1.8-1.48,4.26,4.26,0,0,0-1.9-.65,0.8,0.8,0,0,0-.95.85,16.005,16.005,0,0,1-1.1,3.1,18.672,18.672,0,0,0-1.325-1.47,11.727,11.727,0,0,0-1.75-1.43,10.17,10.17,0,0,0-2.125-1.07,7.242,7.242,0,0,0-2.5-.43,3.413,3.413,0,0,0-2.2,1.13,18.942,18.942,0,0,0-2.45,2.9,44.138,44.138,0,0,0-2.45,3.92c-0.8,1.44-1.517,2.85-2.15,4.25s-1.158,2.69-1.575,3.85a12.843,12.843,0,0,0-.725,2.7,4.09,4.09,0,0,0,.625,2.55,7.153,7.153,0,0,0,1.85,1.98,9.11,9.11,0,0,0,2.425,1.27,7.143,7.143,0,0,0,2.3.45,2.08,2.08,0,0,0,1.125-.47,11.391,11.391,0,0,0,1.475-1.28c0.532-.53,1.091-1.14,1.675-1.82s1.175-1.41,1.775-2.18c-0.1.37-.175,0.69-0.225,0.95s-0.093.52-.125,0.75a2.7,2.7,0,0,0,.65,2.15,4.9,4.9,0,0,0,1.8,1.23,9.179,9.179,0,0,0,2.05.57,11.056,11.056,0,0,0,1.4.15h0.3a5.85,5.85,0,0,0,2.525-1.1,19.2,19.2,0,0,0,2.8-2.4,39.825,39.825,0,0,0,2.8-3.17c0.916-1.15,1.775-2.28,2.575-3.38s1.507-2.1,2.125-3.02,1.091-1.64,1.425-2.18a1.571,1.571,0,0,0,.125-0.67,3.17,3.17,0,0,0-.1-0.98,0.968,0.968,0,0,0-.375-0.6q-0.252-.15-0.65.45Q461.518,5164.26,460.444,5165.76Zm-23.525,10a17.959,17.959,0,0,1,.875-3.12q0.675-1.875,1.675-4.08a44.612,44.612,0,0,1,2.1-4.07,23.283,23.283,0,0,1,2.15-3.13,2.808,2.808,0,0,1,1.75-1.25,6,6,0,0,1,1.775.25,10.294,10.294,0,0,1,1.375.55q-0.252.6-.525,1.23t-0.525,1.32q-0.552.9-1.4,2.25t-1.85,2.85q-1,1.5-2.05,3t-2.025,2.73a20.444,20.444,0,0,1-1.75,1.97,2.145,2.145,0,0,1-1.225.75C436.9,5177.01,436.785,5176.6,436.919,5175.76Zm34.124-9.92q-1.024,1.47-2.125,3t-2.225,3c-0.75.98-1.458,1.85-2.125,2.6a16.357,16.357,0,0,1-1.85,1.82,2.445,2.445,0,0,1-1.35.7c-0.367,0-.5-0.33-0.4-1,0.3-.93.692-2.09,1.175-3.47l1.575-4.5q0.851-2.43,1.8-5.08t1.85-5.22q0.9-2.58,1.75-4.98c0.567-1.6,1.058-3.02,1.475-4.27s0.75-2.29,1-3.13a14.432,14.432,0,0,0,.425-1.6,1.751,1.751,0,0,0-.425-1.15,7.083,7.083,0,0,0-1.25-1.27,13.163,13.163,0,0,0-1.675-1.15,9.389,9.389,0,0,0-1.7-.8,2.871,2.871,0,0,0-1.35-.18,0.692,0.692,0,0,0-.6.7,41.5,41.5,0,0,1-1.125,6.63q-0.874,3.525-2.025,7.1c-0.767,2.38-1.575,4.72-2.425,7s-1.633,4.37-2.35,6.25-1.325,3.52-1.825,4.9a12.234,12.234,0,0,0-.8,2.97,4.841,4.841,0,0,0,.325,2.53,5.488,5.488,0,0,0,1.15,1.67,3.929,3.929,0,0,0,1.45.93,4,4,0,0,0,1.225.27,6.477,6.477,0,0,0,3.2-.9,16.286,16.286,0,0,0,3.125-2.32,31.193,31.193,0,0,0,2.925-3.15c0.933-1.15,1.792-2.28,2.575-3.4s1.467-2.15,2.05-3.1,1.042-1.69,1.375-2.23a1.973,1.973,0,0,0,.125-0.72,3.11,3.11,0,0,0-.1-0.98,0.959,0.959,0,0,0-.375-0.6q-0.25-.15-0.65.45C472.335,5163.96,471.726,5164.86,471.043,5165.84Z" transform="translate(-250.656 -5137.25)"/>
</svg>
