<svg xmlns="http://www.w3.org/2000/svg" width="226.657" height="104.25" viewBox="0 0 226.657 104.25">
  <defs>
    <style>
      .cls-1 {
        fill: #333332;
      }
    </style>
  </defs>
  <path id="Services_We_Provide" data-name="Services We Provide" class="cls-1" d="M222.6,2794.96a4.066,4.066,0,0,1,.525-1c0.2-.26.375-0.48,0.525-0.65a0.793,0.793,0,0,0,.225-0.55c0-.4-0.258-0.57-0.775-0.52a3.186,3.186,0,0,0-1.675.82,7.551,7.551,0,0,0-1.675,2.13,6.569,6.569,0,0,0-.775,3.27,5.169,5.169,0,0,0,.875,2.75,9.044,9.044,0,0,0,2.425,2.53,13.623,13.623,0,0,0,3.7,1.85,14.545,14.545,0,0,0,4.65.72,24.428,24.428,0,0,0,5.125-.5,13.224,13.224,0,0,0,4.125-1.55,7.922,7.922,0,0,0,2.75-2.7,7.468,7.468,0,0,0,1-3.95,5.753,5.753,0,0,0-.65-2.85,8.9,8.9,0,0,0-1.6-2.05,20.1,20.1,0,0,0-2.1-1.72,13.963,13.963,0,0,1-2.1-1.85,8.931,8.931,0,0,1-1.6-2.48,8.746,8.746,0,0,1-.65-3.6,11.29,11.29,0,0,1,.6-3.45,24.143,24.143,0,0,1,1.55-3.67,25.6,25.6,0,0,1,2.225-3.53,26.141,26.141,0,0,1,2.575-2.97,14.054,14.054,0,0,1,2.6-2.05,4.672,4.672,0,0,1,2.35-.78,1.7,1.7,0,0,1,1.15.4,1.532,1.532,0,0,1,.45,1.2,14.588,14.588,0,0,1-.775,4.53,27.992,27.992,0,0,1-1.85,4.4,18.765,18.765,0,0,1-2.2,3.35,3.018,3.018,0,0,1-1.825,1.32,0.5,0.5,0,0,0-.625.53,1.9,1.9,0,0,0,.55,1.12,5.526,5.526,0,0,0,1.45,1.13,4.225,4.225,0,0,0,2.125.52,3.356,3.356,0,0,0,1.95-.72,10.606,10.606,0,0,0,1.95-1.88,19,19,0,0,0,1.8-2.62,23.788,23.788,0,0,0,1.475-3.03,24.076,24.076,0,0,0,1-3,10.268,10.268,0,0,0,.375-2.55,7.145,7.145,0,0,0-.55-2.52,9.3,9.3,0,0,0-1.625-2.68,9.058,9.058,0,0,0-2.725-2.1,8.5,8.5,0,0,0-3.9-.85,10.186,10.186,0,0,0-3.75.8,19.711,19.711,0,0,0-3.975,2.2,27.417,27.417,0,0,0-3.8,3.3,25.765,25.765,0,0,0-3.2,4.08,22.293,22.293,0,0,0-2.2,4.52,14,14,0,0,0-.825,4.65,8.239,8.239,0,0,0,.9,4,10.508,10.508,0,0,0,2.25,2.85,17.338,17.338,0,0,0,2.925,2.1c1.05,0.6,2.025,1.18,2.925,1.73a13.988,13.988,0,0,1,2.25,1.67,2.681,2.681,0,0,1,.9,2,2.2,2.2,0,0,1-1.275,1.83,10.9,10.9,0,0,1-3.15,1.22,19.236,19.236,0,0,1-4.1.5,17.2,17.2,0,0,1-4.1-.35,8.356,8.356,0,0,1-3.15-1.3,2.8,2.8,0,0,1-1.275-2.4A4.689,4.689,0,0,1,222.6,2794.96Zm45.649-3.57c-0.85.98-1.775,2.02-2.775,3.1s-2.058,2.16-3.175,3.22a32.007,32.007,0,0,1-3.4,2.85,19.846,19.846,0,0,1-3.425,2.03,7.772,7.772,0,0,1-3.25.77,1.114,1.114,0,0,1-1.025-.52,2.5,2.5,0,0,1-.3-1.4,9.575,9.575,0,0,1,.325-2.05,25.863,25.863,0,0,1,.8-2.53,6.69,6.69,0,0,0,1.425.38,11.7,11.7,0,0,0,1.775.12,6.369,6.369,0,0,0,3.35-1,14.916,14.916,0,0,0,3-2.37,14.308,14.308,0,0,0,2.225-2.9,6.815,6.815,0,0,0,.975-2.58,5.639,5.639,0,0,0-.475-2.35,9.342,9.342,0,0,0-1.45-2.42,8.094,8.094,0,0,0-2.225-1.88,5.333,5.333,0,0,0-2.7-.75,5.139,5.139,0,0,0-2.45.75,14.244,14.244,0,0,0-2.725,2.03,21.512,21.512,0,0,0-2.675,3.05,30.84,30.84,0,0,0-2.375,3.8,26.36,26.36,0,0,0-1.8,4.27,20.641,20.641,0,0,0-.925,4.5,3.253,3.253,0,0,0,.625,2.05,10.156,10.156,0,0,0,1.875,2.18,11.3,11.3,0,0,0,2.525,1.7,5.953,5.953,0,0,0,2.625.67,8.135,8.135,0,0,0,3.625-.95,21.284,21.284,0,0,0,3.85-2.47,43.672,43.672,0,0,0,3.75-3.35q1.825-1.83,3.35-3.6c1.017-1.18,1.9-2.27,2.65-3.25s1.308-1.73,1.675-2.23a0.945,0.945,0,0,0,.075-0.55,2.854,2.854,0,0,0-.15-0.75,0.782,0.782,0,0,0-.375-0.47,0.536,0.536,0,0,0-.6.32Q269.522,2789.92,268.246,2791.39Zm-7.65-5.5a6.033,6.033,0,0,1-1,2.45,12.444,12.444,0,0,1-2.35,2.67,7.687,7.687,0,0,1-3.425,1.75q0.8-1.545,1.65-3a29.067,29.067,0,0,1,1.675-2.55,12.754,12.754,0,0,1,1.55-1.75,2.081,2.081,0,0,1,1.275-.65Q260.721,2784.81,260.6,2785.89Zm22.9,6.02q-1.026,1.605-2.125,3.33c-0.734,1.15-1.475,2.28-2.225,3.4s-1.459,2.12-2.125,3a21.18,21.18,0,0,1-1.825,2.15,2.24,2.24,0,0,1-1.375.82c-0.434,0-.517-0.46-0.25-1.4,0.333-.96.741-2.1,1.225-3.4s0.95-2.58,1.4-3.85,0.85-2.41,1.2-3.45a10.989,10.989,0,0,0,.575-2.15,3.6,3.6,0,0,0-.475-2.25,6.256,6.256,0,0,0-1.5-1.6,18.765,18.765,0,0,0-2.05-1.32,15.774,15.774,0,0,1-2.075-1.38,43.205,43.205,0,0,0,2.125-4.62,16.842,16.842,0,0,0,1.125-4.58,6.316,6.316,0,0,0-.475-3.82,2.135,2.135,0,0,0-1.825-1.13,6.242,6.242,0,0,0-2.475.68,11.8,11.8,0,0,0-2.875,1.9,13.852,13.852,0,0,0-2.475,2.87,7.565,7.565,0,0,0-1.225,3.6,7.924,7.924,0,0,0,.175,2.8,7.388,7.388,0,0,0,.95,2.15,7.109,7.109,0,0,0,1.475,1.65c0.566,0.47,1.133.9,1.7,1.3-0.4.57-.75,1.1-1.05,1.58a12.508,12.508,0,0,1-.85,1.22,0.807,0.807,0,0,0-.075.6,2.139,2.139,0,0,0,.275.68,1.334,1.334,0,0,0,.45.47,0.256,0.256,0,0,0,.4-0.1c0.266-.36.625-0.85,1.075-1.45s0.908-1.26,1.375-2a7.785,7.785,0,0,1,1.55,1.38,2.033,2.033,0,0,1,.45,1.57,7.6,7.6,0,0,1-.8,2.35q-0.75,1.605-1.65,3.45c-0.6,1.24-1.167,2.47-1.7,3.7a10.236,10.236,0,0,0-.9,3.2,2.7,2.7,0,0,0,.65,2.15,5.2,5.2,0,0,0,1.8,1.25,8.352,8.352,0,0,0,2.05.6,11.074,11.074,0,0,0,1.4.15,0.479,0.479,0,0,0,.175-0.02,0.349,0.349,0,0,1,.125-0.03,5.2,5.2,0,0,0,2.475-1.2,18.652,18.652,0,0,0,2.65-2.62q1.324-1.575,2.625-3.45t2.425-3.65c0.75-1.18,1.408-2.28,1.975-3.28s1.016-1.75,1.35-2.25a1.555,1.555,0,0,0,.125-0.67,3.14,3.14,0,0,0-.1-0.98,0.968,0.968,0,0,0-.375-0.6q-0.251-.15-0.65.45C284.787,2789.91,284.179,2790.85,283.5,2791.91Zm-13.6-15.5a16.711,16.711,0,0,1,.775-2.17,8.958,8.958,0,0,1,.975-1.73,1.411,1.411,0,0,1,.975-0.7,0.844,0.844,0,0,1,.8.55,4.96,4.96,0,0,1,.1,2.15,13.91,13.91,0,0,1-.975,3.9,35.034,35.034,0,0,1-1.925,4.1,5.136,5.136,0,0,1-.9-1.72,6.151,6.151,0,0,1-.2-2.28A9.686,9.686,0,0,1,269.9,2776.41Zm12.424,30.1a0.492,0.492,0,0,1,.2-0.05,10.621,10.621,0,0,0,3.775-2.02,39.459,39.459,0,0,0,4.375-3.95,64.855,64.855,0,0,0,4.425-5.1q2.175-2.775,3.925-5.5a42.061,42.061,0,0,0,2.85-5.13,13.025,13.025,0,0,0,1.25-3.95,2.686,2.686,0,0,0-.325-1.4,3.094,3.094,0,0,0-.875-1.12,0.9,0.9,0,0,0-.975-0.15,1.791,1.791,0,0,0-.575,1.52,11.518,11.518,0,0,1-.9,2.8,45.731,45.731,0,0,1-2.075,4.23q-1.275,2.325-2.875,4.82t-3.175,4.55a25.812,25.812,0,0,1-3.025,3.38,4.086,4.086,0,0,1-2.5,1.32,0.762,0.762,0,0,1-.85-0.55,2.817,2.817,0,0,1,.1-1.45q0.7-2.04,1.525-4.32c0.55-1.52,1.05-2.95,1.5-4.3s0.833-2.52,1.15-3.5a11.872,11.872,0,0,0,.525-1.98,1.714,1.714,0,0,0-.45-1.15,8.4,8.4,0,0,0-1.25-1.27,11.783,11.783,0,0,0-1.65-1.15,8.6,8.6,0,0,0-1.7-.78,3.289,3.289,0,0,0-1.35-.17,0.649,0.649,0,0,0-.6.67,43.1,43.1,0,0,1-1.35,7.95,59.241,59.241,0,0,1-1.925,5.8c-0.65,1.64-1.232,3.02-1.75,4.15a10.3,10.3,0,0,0-.925,3.05,4.39,4.39,0,0,0,.375,2.33,3.945,3.945,0,0,0,1.25,1.47,4.949,4.949,0,0,0,1.65.78,6.373,6.373,0,0,0,1.575.22h0.25a0.492,0.492,0,0,1,.2-0.05h0.2Zm29.5-14.75c-0.734,1-1.492,2.04-2.275,3.1s-1.584,2.1-2.4,3.1-1.592,1.9-2.325,2.7a18.653,18.653,0,0,1-2,1.93,2.644,2.644,0,0,1-1.45.72q-0.651,0-.25-1.35c0.266-.76.591-1.67,0.975-2.72s0.791-2.14,1.225-3.28,0.866-2.27,1.3-3.42,0.825-2.22,1.175-3.2,0.641-1.83.875-2.55a9.225,9.225,0,0,0,.4-1.53,2.243,2.243,0,0,0-.775-1.62,8.685,8.685,0,0,0-1.825-1.48,4.256,4.256,0,0,0-1.9-.65,0.8,0.8,0,0,0-.95.85,8.963,8.963,0,0,1-.6,1.9q-0.55,1.41-1.35,3.3t-1.725,4.05c-0.617,1.44-1.2,2.83-1.75,4.18s-1.017,2.57-1.4,3.67a10.17,10.17,0,0,0-.625,2.55,2.7,2.7,0,0,0,.65,2.15,4.9,4.9,0,0,0,1.8,1.23,9.193,9.193,0,0,0,2.05.57,11.074,11.074,0,0,0,1.4.15h0.3a5.682,5.682,0,0,0,2.5-1.1,19.976,19.976,0,0,0,2.775-2.4,39.627,39.627,0,0,0,2.8-3.17c0.916-1.15,1.775-2.28,2.575-3.38s1.5-2.1,2.1-3.02,1.066-1.64,1.4-2.18a1.726,1.726,0,0,0,.15-0.67,3.813,3.813,0,0,0-.025-0.98,0.855,0.855,0,0,0-.3-0.6q-0.225-.15-0.625.45Q312.919,2790.26,311.82,2791.76Zm-2.875-13.87a6.836,6.836,0,0,0,1.625-1.55,9.037,9.037,0,0,0,1.125-1.95,7.138,7.138,0,0,0,.525-1.83,3.008,3.008,0,0,0-.8-2.47,3.313,3.313,0,0,0-2.4-.88,4.441,4.441,0,0,0-2.075.58,9.813,9.813,0,0,0-2.025,1.45,8.179,8.179,0,0,0-1.575,1.95,5.19,5.19,0,0,0-.725,2.07,2,2,0,0,0,.325,1.25,3.724,3.724,0,0,0,1,1.05,4.76,4.76,0,0,0,1.425.7,5.231,5.231,0,0,0,1.6.25A3.435,3.435,0,0,0,308.945,2777.89Zm16.249,8.42a4.69,4.69,0,0,0-.825-2.2,6.979,6.979,0,0,0-2.3-2.07,8.253,8.253,0,0,0-4.25-.93,4.44,4.44,0,0,0-2.675,1.05,15.225,15.225,0,0,0-2.7,2.75,30.477,30.477,0,0,0-2.5,3.8c-0.783,1.4-1.475,2.8-2.075,4.18a39.125,39.125,0,0,0-1.475,3.92,15.3,15.3,0,0,0-.675,3,4.015,4.015,0,0,0,.35,1.98,7,7,0,0,0,1.35,2.05,7.291,7.291,0,0,0,5.45,2.27,8.142,8.142,0,0,0,3.625-.93,21.391,21.391,0,0,0,3.75-2.42,34.868,34.868,0,0,0,3.6-3.32q1.725-1.83,3.2-3.58c0.983-1.16,1.833-2.23,2.55-3.2s1.258-1.71,1.625-2.25a0.866,0.866,0,0,0,.05-0.55,2.887,2.887,0,0,0-.2-0.75,0.878,0.878,0,0,0-.4-0.47,0.536,0.536,0,0,0-.6.32q-0.95,1.11-2.175,2.58c-0.817.98-1.683,2.01-2.6,3.07s-1.867,2.13-2.85,3.18-1.925,1.98-2.825,2.8a19.022,19.022,0,0,1-2.575,2,4.074,4.074,0,0,1-2.075.77,3.325,3.325,0,0,1-.7-0.07,1.132,1.132,0,0,1-.6-0.35,1.819,1.819,0,0,1-.375-0.8,4.1,4.1,0,0,1-.025-1.38,18.909,18.909,0,0,1,.5-2.91,33.318,33.318,0,0,1,1-3.34q0.6-1.68,1.3-3.3,0.7-1.635,1.4-2.91a14.552,14.552,0,0,1,1.325-2.06,1.657,1.657,0,0,1,1.075-.78,5,5,0,0,1,2.175.43,6.958,6.958,0,0,1,1.45.9c0.383,0.32.692,0.57,0.925,0.77a0.4,0.4,0,0,0,.6.05A1.894,1.894,0,0,0,325.194,2786.31Zm21.05,5.08c-0.85.98-1.775,2.02-2.775,3.1s-2.059,2.16-3.175,3.22a32.108,32.108,0,0,1-3.4,2.85,19.884,19.884,0,0,1-3.425,2.03,7.779,7.779,0,0,1-3.25.77,1.112,1.112,0,0,1-1.025-.52,2.482,2.482,0,0,1-.3-1.4,9.512,9.512,0,0,1,.325-2.05,25.594,25.594,0,0,1,.8-2.53,6.658,6.658,0,0,0,1.425.38,11.686,11.686,0,0,0,1.775.12,6.372,6.372,0,0,0,3.35-1,14.916,14.916,0,0,0,3-2.37,14.344,14.344,0,0,0,2.225-2.9,6.85,6.85,0,0,0,.975-2.58,5.655,5.655,0,0,0-.475-2.35,9.37,9.37,0,0,0-1.45-2.42,8.123,8.123,0,0,0-2.225-1.88,5.338,5.338,0,0,0-2.7-.75,5.136,5.136,0,0,0-2.45.75,14.213,14.213,0,0,0-2.725,2.03,21.387,21.387,0,0,0-2.675,3.05,30.721,30.721,0,0,0-2.375,3.8,26.183,26.183,0,0,0-1.8,4.27,20.582,20.582,0,0,0-.925,4.5,3.247,3.247,0,0,0,.625,2.05,10.1,10.1,0,0,0,1.875,2.18,11.278,11.278,0,0,0,2.525,1.7,5.947,5.947,0,0,0,2.625.67,8.142,8.142,0,0,0,3.625-.95,21.353,21.353,0,0,0,3.85-2.47,43.974,43.974,0,0,0,3.75-3.35q1.824-1.83,3.35-3.6c1.016-1.18,1.9-2.27,2.65-3.25s1.307-1.73,1.675-2.23a0.962,0.962,0,0,0,.075-0.55,2.9,2.9,0,0,0-.15-0.75,0.789,0.789,0,0,0-.375-0.47,0.536,0.536,0,0,0-.6.32Q347.518,2789.92,346.244,2791.39Zm-7.65-5.5a6.061,6.061,0,0,1-1,2.45,12.5,12.5,0,0,1-2.35,2.67,7.692,7.692,0,0,1-3.425,1.75q0.8-1.545,1.65-3a28.842,28.842,0,0,1,1.675-2.55,12.688,12.688,0,0,1,1.55-1.75,2.076,2.076,0,0,1,1.275-.65C338.469,2784.81,338.676,2785.17,338.594,2785.89Zm20.849,6a41.07,41.07,0,0,1-3.925,2.42,21.463,21.463,0,0,0-2.575-4.85q-1.675-2.4-3.025-4.75a47.012,47.012,0,0,0,2.45-5.05,16.849,16.849,0,0,0,1.3-5.05,6.316,6.316,0,0,0-.475-3.82,2.135,2.135,0,0,0-1.825-1.13,6.242,6.242,0,0,0-2.475.68,11.8,11.8,0,0,0-2.875,1.9,13.852,13.852,0,0,0-2.475,2.87,7.565,7.565,0,0,0-1.225,3.6,10.533,10.533,0,0,0,.775,5.25,29.508,29.508,0,0,0,2.425,4.4,6.781,6.781,0,0,1-.4.55,5.611,5.611,0,0,0-.35.5,0.807,0.807,0,0,0-.075.6,2.116,2.116,0,0,0,.275.68,1.248,1.248,0,0,0,.475.47,0.278,0.278,0,0,0,.425-0.1c0.1-.16.216-0.34,0.35-0.52s0.283-.38.45-0.58a24.778,24.778,0,0,1,1.975,3.5,11.3,11.3,0,0,1,.975,3.95c-0.867.47-1.684,0.94-2.45,1.4a15.722,15.722,0,0,0-2.025,1.45,7.808,7.808,0,0,0-1.425,1.58,3.412,3.412,0,0,0-.6,1.72,3.013,3.013,0,0,0,.225,1.35,4.992,4.992,0,0,0,.725,1.28,4.317,4.317,0,0,0,1.025.95,2.12,2.12,0,0,0,1.175.37,7.746,7.746,0,0,0,3.525-.87,12.355,12.355,0,0,0,3.1-2.23,13.015,13.015,0,0,0,2.275-2.97,8.16,8.16,0,0,0,1.05-3.13,6.7,6.7,0,0,0-.2-2.35c1.6-.86,3.083-1.75,4.45-2.65a9.582,9.582,0,0,0,3-2.9,1.253,1.253,0,0,0,.1-0.62,2.261,2.261,0,0,0-.15-0.85,0.677,0.677,0,0,0-.425-0.45,0.787,0.787,0,0,0-.675.52A10.685,10.685,0,0,1,359.443,2791.89Zm-10.95-15.48a16.711,16.711,0,0,1,.775-2.17,9.9,9.9,0,0,1,.95-1.73,1.346,1.346,0,0,1,.95-0.7,0.844,0.844,0,0,1,.8.55,4.96,4.96,0,0,1,.1,2.15,13.51,13.51,0,0,1-1.05,4.08,43.692,43.692,0,0,1-2.05,4.27,11.323,11.323,0,0,1-.75-2.17,6.822,6.822,0,0,1-.15-2.18A12.707,12.707,0,0,1,348.493,2776.41Zm-2.65,27.88a0.89,0.89,0,0,1-.125-0.63,3.461,3.461,0,0,1,1.15-2.17,16.049,16.049,0,0,1,2.65-2.03,12.925,12.925,0,0,1-.35,1.6,7.973,7.973,0,0,1-.675,1.68,5.275,5.275,0,0,1-.975,1.3,1.758,1.758,0,0,1-1.25.52A0.5,0.5,0,0,1,345.843,2804.29Zm-68.071,22.65q-0.651,1.92-1.75,4.8c-0.734,1.92-1.6,4.03-2.6,6.35s-2.075,4.67-3.225,7.05-2.35,4.7-3.6,6.95a66.825,66.825,0,0,1-3.725,6,25.175,25.175,0,0,1-3.6,4.2,5.036,5.036,0,0,1-3.2,1.57,1.525,1.525,0,0,1-.825-0.17,0.911,0.911,0,0,1-.375-0.43,1.226,1.226,0,0,1-.15-0.65,12.027,12.027,0,0,1,.625-3.22q0.624-2.07,1.525-4.58,0.9-2.49,2-5.22t2-5.23q0.9-2.49,1.525-4.52a11.531,11.531,0,0,0,.625-3.08,2.1,2.1,0,0,0-1.025-1.57,7.734,7.734,0,0,0-2.225-1.18,5.616,5.616,0,0,0-2.225-.3,0.956,0.956,0,0,0-1.025,1,18.4,18.4,0,0,1-.175,2.55c-0.118.84-.275,1.67-0.475,2.5q-0.45,1.05-1.425,3.18t-2.275,4.65c-0.868,1.68-1.8,3.42-2.8,5.2s-2.009,3.41-3.025,4.87a23.855,23.855,0,0,1-2.975,3.6,4.039,4.039,0,0,1-2.65,1.4,1.347,1.347,0,0,1-.825-0.2,1,1,0,0,1-.375-0.45,1.226,1.226,0,0,1-.15-0.65,11.617,11.617,0,0,1,.85-3.5q0.849-2.34,2.1-5.3,1.248-2.94,2.75-6.2,1.5-3.24,2.75-6.15,1.248-2.895,2.1-5.22a11.414,11.414,0,0,0,.85-3.38,7.649,7.649,0,0,0-.775-3.42,8.243,8.243,0,0,0-2.175-2.73,10.224,10.224,0,0,0-3.35-1.77,13.932,13.932,0,0,0-4.3-.63,24.4,24.4,0,0,0-6.75.95,33.449,33.449,0,0,0-15.7,9.9,20.179,20.179,0,0,0-2.725,3.88,7.319,7.319,0,0,0-.975,3.27,10.4,10.4,0,0,0,.9,4.53,10.571,10.571,0,0,0,1.95,2.92,4.488,4.488,0,0,0,1.95,1.28c0.6,0.15.9,0.01,0.9-.43a0.824,0.824,0,0,0-.15-0.5,5.658,5.658,0,0,1-.35-0.52,3.454,3.454,0,0,1-.35-0.88,6.427,6.427,0,0,1-.15-1.6,12.567,12.567,0,0,1,1-4.75,22.207,22.207,0,0,1,2.7-4.75,30.7,30.7,0,0,1,3.9-4.32,32.859,32.859,0,0,1,4.6-3.55,24.449,24.449,0,0,1,4.8-2.4,13.148,13.148,0,0,1,4.45-.88,2.971,2.971,0,0,1,1.45.33,3.025,3.025,0,0,1,.975.82,3.1,3.1,0,0,1,.525,1.1,4.586,4.586,0,0,1,.15,1.1,21.419,21.419,0,0,1-.75,5.35,57.556,57.556,0,0,1-1.9,5.95q-1.152,3.06-2.45,6t-2.45,5.45q-1.152,2.505-1.9,4.4a8.744,8.744,0,0,0-.75,2.8,6.792,6.792,0,0,0,.65,2.9,8.489,8.489,0,0,0,4.425,4.25,8.02,8.02,0,0,0,3.225.65,2.989,2.989,0,0,0,1.7-.62,12.04,12.04,0,0,0,1.875-1.68,25.262,25.262,0,0,0,1.95-2.4q0.975-1.35,1.875-2.85a10.15,10.15,0,0,0,.5,2.83,8.394,8.394,0,0,0,1.225,2.42,6.264,6.264,0,0,0,1.825,1.68,4.377,4.377,0,0,0,2.3.62,11.993,11.993,0,0,0,6.7-2.27,35.145,35.145,0,0,0,6.575-5.83,61.786,61.786,0,0,0,5.95-7.87,89.129,89.129,0,0,0,4.825-8.45,67.866,67.866,0,0,0,3.25-7.53,17.044,17.044,0,0,0,1.2-5.1,4.529,4.529,0,0,0-.725-2.27,8.854,8.854,0,0,0-1.625-2.05,5.03,5.03,0,0,0-1.625-1.08c-0.484-.16-0.725.05-0.725,0.65A11.013,11.013,0,0,1,277.772,2826.94Zm16.924,24.45c-0.85.98-1.775,2.02-2.775,3.1s-2.059,2.16-3.175,3.22a32.007,32.007,0,0,1-3.4,2.85,19.846,19.846,0,0,1-3.425,2.03,7.776,7.776,0,0,1-3.25.77,1.113,1.113,0,0,1-1.025-.52,2.5,2.5,0,0,1-.3-1.4,9.512,9.512,0,0,1,.325-2.05,25.594,25.594,0,0,1,.8-2.53,6.69,6.69,0,0,0,1.425.38,11.7,11.7,0,0,0,1.775.12,6.369,6.369,0,0,0,3.35-1,14.916,14.916,0,0,0,3-2.37,14.344,14.344,0,0,0,2.225-2.9,6.815,6.815,0,0,0,.975-2.58,5.639,5.639,0,0,0-.475-2.35,9.37,9.37,0,0,0-1.45-2.42,8.108,8.108,0,0,0-2.225-1.88,5.333,5.333,0,0,0-2.7-.75,5.136,5.136,0,0,0-2.45.75,14.213,14.213,0,0,0-2.725,2.03,21.45,21.45,0,0,0-2.675,3.05,30.84,30.84,0,0,0-2.375,3.8,26.183,26.183,0,0,0-1.8,4.27,20.582,20.582,0,0,0-.925,4.5,3.247,3.247,0,0,0,.625,2.05,10.1,10.1,0,0,0,1.875,2.18,11.3,11.3,0,0,0,2.525,1.7,5.947,5.947,0,0,0,2.625.67,8.138,8.138,0,0,0,3.625-.95,21.318,21.318,0,0,0,3.85-2.47,43.672,43.672,0,0,0,3.75-3.35q1.824-1.83,3.35-3.6c1.016-1.18,1.9-2.27,2.65-3.25s1.308-1.73,1.675-2.23a0.962,0.962,0,0,0,.075-0.55,2.854,2.854,0,0,0-.15-0.75,0.789,0.789,0,0,0-.375-0.47,0.536,0.536,0,0,0-.6.32Q295.97,2849.92,294.7,2851.39Zm-7.65-5.5a6.047,6.047,0,0,1-1,2.45,12.472,12.472,0,0,1-2.35,2.67,7.692,7.692,0,0,1-3.425,1.75q0.8-1.545,1.65-3a28.842,28.842,0,0,1,1.675-2.55,12.688,12.688,0,0,1,1.55-1.75,2.081,2.081,0,0,1,1.275-.65Q287.171,2844.81,287.046,2845.89Zm31.673-22.08a35.073,35.073,0,0,0-4.8,1.45,34.187,34.187,0,0,0-6.425,3.45,35.151,35.151,0,0,0-5.175,4.3,22.475,22.475,0,0,0-3.45,4.43,7.932,7.932,0,0,0-1.25,3.82,11.152,11.152,0,0,0,.625,3.95,10.342,10.342,0,0,0,1.475,2.73,6.267,6.267,0,0,0,1.7,1.57,2.873,2.873,0,0,0,1.35.5c0.333,0,.492-0.07.475-0.22a3.644,3.644,0,0,0-.225-0.75q-0.2-.525-0.45-1.38a7.742,7.742,0,0,1-.25-2.15,9.307,9.307,0,0,1,.825-3.52,22.383,22.383,0,0,1,2.275-4.08,34.714,34.714,0,0,1,3.4-4.15,37.946,37.946,0,0,1,4.15-3.75,61.074,61.074,0,0,1-1.625,6.35c-0.683,2.2-1.417,4.39-2.2,6.55s-1.567,4.25-2.35,6.25-1.5,3.84-2.15,5.5-1.175,3.1-1.575,4.3a9.542,9.542,0,0,0-.6,2.6,3.086,3.086,0,0,0,1,2.25,8.541,8.541,0,0,0,2.175,1.6,5.809,5.809,0,0,0,2.175.68c0.667,0.05,1-.14,1-0.58a11.638,11.638,0,0,1,.5-2.87c0.333-1.22.767-2.61,1.3-4.18s1.133-3.25,1.8-5.07,1.317-3.68,1.95-5.58a0.179,0.179,0,0,0,.15.05,28.4,28.4,0,0,0,7.925-1.05,26.4,26.4,0,0,0,6.45-2.77,20.061,20.061,0,0,0,4.75-3.95,15.166,15.166,0,0,0,2.8-4.53,9.8,9.8,0,0,0,.65-4.52,6.889,6.889,0,0,0-1.75-3.95,10.59,10.59,0,0,0-4.4-2.78,21.29,21.29,0,0,0-7.225-1.05A23.165,23.165,0,0,0,318.719,2823.81Zm-1.425,15.6c0.583-1.63,1.092-3.1,1.525-4.42s0.783-2.41,1.05-3.28a7.765,7.765,0,0,0,.4-1.65,2.492,2.492,0,0,0-.85-1.5c-0.567-.6-1.117-1.13-1.65-1.6a19.646,19.646,0,0,1,3.275-1.25,12.038,12.038,0,0,1,3.225-.45,6.015,6.015,0,0,1,4.1,1.4,6.722,6.722,0,0,1,2.125,3.5,9.7,9.7,0,0,1-.05,4.58,10.886,10.886,0,0,1-2.4,4.62,14.4,14.4,0,0,1-4.925,3.63,18.537,18.537,0,0,1-7.6,1.57C316.119,2842.76,316.711,2841.05,317.294,2839.41Zm29.5,12.5q-1.026,1.605-2.125,3.33c-0.734,1.15-1.475,2.28-2.225,3.4s-1.459,2.12-2.125,3a21.31,21.31,0,0,1-1.825,2.15,2.24,2.24,0,0,1-1.375.82c-0.434,0-.518-0.46-0.25-1.4,0.332-.96.741-2.1,1.225-3.4s0.95-2.58,1.4-3.85,0.85-2.41,1.2-3.45a10.989,10.989,0,0,0,.575-2.15,3.6,3.6,0,0,0-.475-2.25,6.256,6.256,0,0,0-1.5-1.6,18.861,18.861,0,0,0-2.05-1.32,15.707,15.707,0,0,1-2.075-1.38,43.4,43.4,0,0,0,2.125-4.62,16.842,16.842,0,0,0,1.125-4.58,6.324,6.324,0,0,0-.475-3.82,2.136,2.136,0,0,0-1.825-1.13,6.234,6.234,0,0,0-2.475.68,11.783,11.783,0,0,0-2.875,1.9,13.852,13.852,0,0,0-2.475,2.87,7.554,7.554,0,0,0-1.225,3.6,7.9,7.9,0,0,0,.175,2.8,7.362,7.362,0,0,0,.95,2.15,7.086,7.086,0,0,0,1.475,1.65c0.566,0.47,1.132.9,1.7,1.3-0.4.57-.75,1.1-1.05,1.58a12.508,12.508,0,0,1-.85,1.22,0.807,0.807,0,0,0-.075.6,2.139,2.139,0,0,0,.275.68,1.317,1.317,0,0,0,.45.47,0.256,0.256,0,0,0,.4-0.1c0.266-.36.625-0.85,1.075-1.45s0.907-1.26,1.375-2a7.813,7.813,0,0,1,1.55,1.38,2.033,2.033,0,0,1,.45,1.57,7.6,7.6,0,0,1-.8,2.35q-0.75,1.605-1.65,3.45c-0.6,1.24-1.168,2.47-1.7,3.7a10.236,10.236,0,0,0-.9,3.2,2.7,2.7,0,0,0,.65,2.15,5.2,5.2,0,0,0,1.8,1.25,8.339,8.339,0,0,0,2.05.6,11.056,11.056,0,0,0,1.4.15,0.479,0.479,0,0,0,.175-0.02,0.349,0.349,0,0,1,.125-0.03,5.2,5.2,0,0,0,2.475-1.2,18.7,18.7,0,0,0,2.65-2.62q1.323-1.575,2.625-3.45t2.425-3.65c0.75-1.18,1.407-2.28,1.975-3.28s1.016-1.75,1.35-2.25a1.571,1.571,0,0,0,.125-0.67,3.17,3.17,0,0,0-.1-0.98,0.968,0.968,0,0,0-.375-0.6q-0.252-.15-0.65.45C348.085,2849.91,347.476,2850.85,346.794,2851.91Zm-13.6-15.5a16.711,16.711,0,0,1,.775-2.17,8.958,8.958,0,0,1,.975-1.73,1.411,1.411,0,0,1,.975-0.7,0.844,0.844,0,0,1,.8.55,4.96,4.96,0,0,1,.1,2.15,13.91,13.91,0,0,1-.975,3.9,35.2,35.2,0,0,1-1.925,4.1,5.136,5.136,0,0,1-.9-1.72,6.13,6.13,0,0,1-.2-2.28A9.566,9.566,0,0,1,333.194,2836.41Zm33.349,15.4a36.367,36.367,0,0,1-2.7,2.85,24.528,24.528,0,0,1-2.95,2.4,12.344,12.344,0,0,1-2.975,1.55,31.077,31.077,0,0,0,2.45-5,16.2,16.2,0,0,0,1.1-4.4,8.389,8.389,0,0,0-.225-2.9,9.477,9.477,0,0,0-1.2-2.85,7.424,7.424,0,0,0-2.075-2.15,5.084,5.084,0,0,0-2.9-.85,7.055,7.055,0,0,0-3.1.78,12.533,12.533,0,0,0-3.025,2.1,14.063,14.063,0,0,0-2.475,3.07,12.916,12.916,0,0,0-1.5,3.65q-0.75.96-1.475,2.1c-0.483.77-.933,1.54-1.35,2.3a20.637,20.637,0,0,0-1.05,2.23,6,6,0,0,0-.125,4.45,8.225,8.225,0,0,0,1.4,2.57,8.14,8.14,0,0,0,2.325,2,6.131,6.131,0,0,0,3.175.8,7.319,7.319,0,0,0,4.2-1.4,17.806,17.806,0,0,0,3.8-3.55,11.1,11.1,0,0,0,4.6-1.65,25.121,25.121,0,0,0,3.925-3.02,27.931,27.931,0,0,0,3.1-3.43c0.883-1.16,1.608-2.13,2.175-2.9a1.031,1.031,0,0,0,.175-0.65,3.146,3.146,0,0,0-.075-0.9,0.861,0.861,0,0,0-.35-0.55c-0.167-.1-0.367.04-0.6,0.4A36.539,36.539,0,0,1,366.543,2851.81Zm-10.075-8.05a15.28,15.28,0,0,1,.05,4.25,13.432,13.432,0,0,1-.45,2.13c-0.234.82-.525,1.69-0.875,2.62a30.979,30.979,0,0,1-1.25,2.88c-0.484.98-.992,1.91-1.525,2.77a11.137,11.137,0,0,1-3.3-1.75c0.433-.63.875-1.26,1.325-1.9s0.85-1.22,1.2-1.77,0.641-1.03.875-1.45a3.142,3.142,0,0,0,.4-0.98,1.59,1.59,0,0,0-.475-1.22,4.861,4.861,0,0,0-1.325-1,10.647,10.647,0,0,0-1.625-.7,7.08,7.08,0,0,0-1.375-.33,11.81,11.81,0,0,1,1.475-1.92,11.368,11.368,0,0,1,1.725-1.5,9.53,9.53,0,0,1,1.8-1,4.543,4.543,0,0,1,1.75-.38A1.491,1.491,0,0,1,356.468,2843.76Zm-10.45,19.15a1.431,1.431,0,0,1,.025-0.95,8.158,8.158,0,0,1,.6-1.42c0.283-.55.608-1.13,0.975-1.73a9.95,9.95,0,0,0,3.05,2,10.252,10.252,0,0,1-1.925,1.78,3.436,3.436,0,0,1-1.975.67A0.715,0.715,0,0,1,346.018,2862.91Zm19.85,3.6a0.488,0.488,0,0,1,.2-0.05,10.621,10.621,0,0,0,3.775-2.02,39.549,39.549,0,0,0,4.375-3.95,64.855,64.855,0,0,0,4.425-5.1q2.175-2.775,3.925-5.5a42.332,42.332,0,0,0,2.85-5.13,13.025,13.025,0,0,0,1.25-3.95,2.686,2.686,0,0,0-.325-1.4,3.094,3.094,0,0,0-.875-1.12,0.9,0.9,0,0,0-.975-0.15,1.788,1.788,0,0,0-.575,1.52,11.518,11.518,0,0,1-.9,2.8,45.987,45.987,0,0,1-2.075,4.23q-1.275,2.325-2.875,4.82t-3.175,4.55a25.885,25.885,0,0,1-3.025,3.38,4.086,4.086,0,0,1-2.5,1.32,0.762,0.762,0,0,1-.85-0.55,2.817,2.817,0,0,1,.1-1.45q0.7-2.04,1.525-4.32c0.55-1.52,1.05-2.95,1.5-4.3s0.833-2.52,1.15-3.5a12.083,12.083,0,0,0,.525-1.98,1.714,1.714,0,0,0-.45-1.15,8.452,8.452,0,0,0-1.25-1.27,11.783,11.783,0,0,0-1.65-1.15,8.6,8.6,0,0,0-1.7-.78,3.292,3.292,0,0,0-1.35-.17,0.649,0.649,0,0,0-.6.67,43.1,43.1,0,0,1-1.35,7.95,59.51,59.51,0,0,1-1.925,5.8c-0.65,1.64-1.233,3.02-1.75,4.15a10.272,10.272,0,0,0-.925,3.05,4.371,4.371,0,0,0,.375,2.33,3.926,3.926,0,0,0,1.25,1.47,4.931,4.931,0,0,0,1.65.78,6.361,6.361,0,0,0,1.575.22h0.25a0.488,0.488,0,0,1,.2-0.05h0.2Zm29.5-14.75c-0.733,1-1.492,2.04-2.275,3.1s-1.583,2.1-2.4,3.1-1.592,1.9-2.325,2.7a18.56,18.56,0,0,1-2,1.93,2.641,2.641,0,0,1-1.45.72q-0.649,0-.25-1.35c0.267-.76.592-1.67,0.975-2.72s0.792-2.14,1.225-3.28,0.867-2.27,1.3-3.42,0.825-2.22,1.175-3.2,0.642-1.83.875-2.55a9.122,9.122,0,0,0,.4-1.53,2.243,2.243,0,0,0-.775-1.62,8.659,8.659,0,0,0-1.825-1.48,4.256,4.256,0,0,0-1.9-.65,0.8,0.8,0,0,0-.95.85,8.841,8.841,0,0,1-.6,1.9q-0.551,1.41-1.35,3.3t-1.725,4.05c-0.616,1.44-1.2,2.83-1.75,4.18s-1.016,2.57-1.4,3.67a10.215,10.215,0,0,0-.625,2.55,2.7,2.7,0,0,0,.65,2.15,4.9,4.9,0,0,0,1.8,1.23,9.208,9.208,0,0,0,2.05.57,11.092,11.092,0,0,0,1.4.15h0.3a5.678,5.678,0,0,0,2.5-1.1,19.976,19.976,0,0,0,2.775-2.4,39.627,39.627,0,0,0,2.8-3.17c0.917-1.15,1.775-2.28,2.575-3.38s1.5-2.1,2.1-3.02,1.067-1.64,1.4-2.18a1.689,1.689,0,0,0,.15-0.67,3.813,3.813,0,0,0-.025-0.98,0.855,0.855,0,0,0-.3-0.6q-0.225-.15-0.625.45Q396.468,2850.26,395.367,2851.76Zm-2.875-13.87a6.817,6.817,0,0,0,1.625-1.55,8.955,8.955,0,0,0,1.125-1.95,7.138,7.138,0,0,0,.525-1.83,3,3,0,0,0-.8-2.47,3.313,3.313,0,0,0-2.4-.88,4.444,4.444,0,0,0-2.075.58,9.813,9.813,0,0,0-2.025,1.45,8.229,8.229,0,0,0-1.575,1.95,5.205,5.205,0,0,0-.725,2.07,2.011,2.011,0,0,0,.325,1.25,3.724,3.724,0,0,0,1,1.05,4.784,4.784,0,0,0,1.425.7,5.235,5.235,0,0,0,1.6.25A3.435,3.435,0,0,0,392.492,2837.89Zm26.95,13.87c-0.717,1-1.467,2.04-2.25,3.1s-1.584,2.1-2.4,3.1-1.584,1.9-2.3,2.7a17.188,17.188,0,0,1-1.975,1.93,2.645,2.645,0,0,1-1.4.72q-0.7,0-.3-1.35,0.6-1.8,1.65-4.8t2.275-6.42q1.224-3.42,2.475-6.98c0.833-2.36,1.591-4.54,2.275-6.52s1.25-3.66,1.7-5.03a19.367,19.367,0,0,0,.725-2.5,1.756,1.756,0,0,0-.425-1.15,7.117,7.117,0,0,0-1.25-1.27,13.163,13.163,0,0,0-1.675-1.15,9.389,9.389,0,0,0-1.7-.8,2.874,2.874,0,0,0-1.35-.18,0.692,0.692,0,0,0-.6.7,52.336,52.336,0,0,1-1.825,9.23q-1.425,5.025-3.175,9.92c-0.4-.43-0.85-0.89-1.35-1.37a9.414,9.414,0,0,0-1.675-1.28,11.155,11.155,0,0,0-2.025-.92,7.085,7.085,0,0,0-2.3-.38,3.415,3.415,0,0,0-2.2,1.13,20.04,20.04,0,0,0-2.475,2.9,40.76,40.76,0,0,0-2.475,3.92c-0.8,1.44-1.517,2.85-2.15,4.25s-1.158,2.69-1.575,3.85a10.44,10.44,0,0,0-.675,2.7,3.858,3.858,0,0,0,.575,2.55,7.153,7.153,0,0,0,1.85,1.98,9.11,9.11,0,0,0,2.425,1.27,7.148,7.148,0,0,0,2.3.45,2.08,2.08,0,0,0,1.125-.47,12.585,12.585,0,0,0,1.5-1.28c0.55-.53,1.125-1.15,1.725-1.85s1.2-1.43,1.8-2.2a12.489,12.489,0,0,0-.45,1.75,2.7,2.7,0,0,0,.65,2.15,4.9,4.9,0,0,0,1.8,1.23,9.193,9.193,0,0,0,2.05.57,11.074,11.074,0,0,0,1.4.15h0.35a5.682,5.682,0,0,0,2.5-1.1,19.976,19.976,0,0,0,2.775-2.4,39.627,39.627,0,0,0,2.8-3.17c0.916-1.15,1.783-2.28,2.6-3.38s1.533-2.1,2.15-3.02,1.091-1.64,1.425-2.18a1.415,1.415,0,0,0,.1-0.67,4.581,4.581,0,0,0-.1-0.98,0.884,0.884,0,0,0-.35-0.6q-0.25-.15-0.65.45Q420.517,2850.26,419.442,2851.76Zm-23.525,10a18.049,18.049,0,0,1,.875-3.12q0.675-1.875,1.7-4.08t2.125-4.07a25.045,25.045,0,0,1,2.125-3.13,2.737,2.737,0,0,1,1.725-1.25,6.228,6.228,0,0,1,1.55.18,8.342,8.342,0,0,1,1.25.42c-0.267.67-.509,1.34-0.725,2s-0.459,1.32-.725,1.95c-0.434.7-.934,1.5-1.5,2.38s-1.159,1.78-1.775,2.7-1.234,1.81-1.85,2.67-1.209,1.65-1.775,2.33a16.263,16.263,0,0,1-1.55,1.65,1.942,1.942,0,0,1-1.1.62C395.9,2863.01,395.783,2862.6,395.917,2861.76Zm41.424-10.37c-0.85.98-1.775,2.02-2.775,3.1s-2.058,2.16-3.175,3.22a32.007,32.007,0,0,1-3.4,2.85,19.846,19.846,0,0,1-3.425,2.03,7.772,7.772,0,0,1-3.25.77,1.114,1.114,0,0,1-1.025-.52,2.5,2.5,0,0,1-.3-1.4,9.575,9.575,0,0,1,.325-2.05,25.863,25.863,0,0,1,.8-2.53,6.69,6.69,0,0,0,1.425.38,11.7,11.7,0,0,0,1.775.12,6.369,6.369,0,0,0,3.35-1,14.916,14.916,0,0,0,3-2.37,14.308,14.308,0,0,0,2.225-2.9,6.815,6.815,0,0,0,.975-2.58,5.639,5.639,0,0,0-.475-2.35,9.342,9.342,0,0,0-1.45-2.42,8.094,8.094,0,0,0-2.225-1.88,5.333,5.333,0,0,0-2.7-.75,5.139,5.139,0,0,0-2.45.75,14.244,14.244,0,0,0-2.725,2.03,21.512,21.512,0,0,0-2.675,3.05,30.84,30.84,0,0,0-2.375,3.8,26.36,26.36,0,0,0-1.8,4.27,20.641,20.641,0,0,0-.925,4.5,3.253,3.253,0,0,0,.625,2.05,10.156,10.156,0,0,0,1.875,2.18,11.3,11.3,0,0,0,2.525,1.7,5.953,5.953,0,0,0,2.625.67,8.135,8.135,0,0,0,3.625-.95,21.284,21.284,0,0,0,3.85-2.47,43.672,43.672,0,0,0,3.75-3.35q1.826-1.83,3.35-3.6c1.017-1.18,1.9-2.27,2.65-3.25s1.308-1.73,1.675-2.23a0.945,0.945,0,0,0,.075-0.55,2.854,2.854,0,0,0-.15-0.75,0.782,0.782,0,0,0-.375-0.47,0.536,0.536,0,0,0-.6.32Q438.617,2849.92,437.341,2851.39Zm-7.65-5.5a6.033,6.033,0,0,1-1,2.45,12.444,12.444,0,0,1-2.35,2.67,7.687,7.687,0,0,1-3.425,1.75q0.8-1.545,1.65-3a29.067,29.067,0,0,1,1.675-2.55,12.754,12.754,0,0,1,1.55-1.75,2.081,2.081,0,0,1,1.275-.65Q429.816,2844.81,429.691,2845.89Z" transform="translate(-214.031 -2763.16)"/>
</svg>
