<svg xmlns="http://www.w3.org/2000/svg" width="315.35" height="103.56" viewBox="0 0 315.35 103.56">
  <defs>
    <style>
      .cls-1 {
        fill: #333332;
        fill-rule: evenodd;
      }
    </style>
  </defs>
  <path id="Take_your_website_to_the_next_level" data-name="Take your website  to the next level" class="cls-1" d="M1046.42,5129.6c-2.13.32-4.32,0.68-6.55,1.09s-4.39.77-6.47,1.09a36.3,36.3,0,0,1-5.38.48,16.16,16.16,0,0,1-3.55-.3c-0.83-.2-1.45-0.35-1.85-0.47a0.7,0.7,0,0,0-.72,0,2.582,2.582,0,0,0-.13,1.12,4.5,4.5,0,0,0,.25,1.13,4.9,4.9,0,0,0,.88,1.55,5.221,5.221,0,0,0,1.72,1.35,6.092,6.092,0,0,0,2.8.57,30.285,30.285,0,0,0,4.13-.35q2.52-.345,5.42-0.75a60.116,60.116,0,0,1-1.42,6.23c-0.62,2.18-1.31,4.36-2.08,6.52s-1.55,4.28-2.35,6.33-1.53,3.92-2.2,5.6-1.21,3.14-1.62,4.37a9.693,9.693,0,0,0-.63,2.65,3.033,3.033,0,0,0,.98,2.15,8.834,8.834,0,0,0,2.12,1.63,6.072,6.072,0,0,0,2.13.75c0.65,0.08.97-.08,0.97-0.48a16.761,16.761,0,0,1,.85-4.17q0.855-2.88,2.1-6.45c0.83-2.38,1.74-4.87,2.73-7.45s1.9-4.98,2.77-7.18,1.58-4.07,2.15-5.62a17.713,17.713,0,0,0,.9-2.83,1.027,1.027,0,0,0-.1-0.57,4.294,4.294,0,0,0-.42-0.78c-0.19-.26-0.39-0.52-0.6-0.77a7.27,7.27,0,0,0-.68-0.68c1.33-.16,2.61-0.3,3.83-0.4s2.34-.15,3.37-0.15a13.147,13.147,0,0,1,3.78.43,6.116,6.116,0,0,1,1.97.95,4.017,4.017,0,0,1,.9.95,0.694,0.694,0,0,0,.55.42,1.568,1.568,0,0,0,.8-0.32,4.546,4.546,0,0,0,.98-0.91,5.877,5.877,0,0,0,.8-1.31,3.779,3.779,0,0,0,.32-1.53,5.036,5.036,0,0,0-.27-1.61,2.943,2.943,0,0,0-1.13-1.41,7.131,7.131,0,0,0-2.37-.98,17.216,17.216,0,0,0-3.98-.38A38.939,38.939,0,0,0,1046.42,5129.6Zm20.93,28.16c-0.72,1-1.47,2.04-2.25,3.1s-1.59,2.1-2.4,3.1-1.6,1.9-2.33,2.7a20.367,20.367,0,0,1-1.97,1.93,2.561,2.561,0,0,1-1.43.72c-0.43,0-.52-0.43-0.25-1.3,0.4-1.16.93-2.61,1.58-4.35s1.29-3.45,1.92-5.15,1.18-3.22,1.65-4.57a13.463,13.463,0,0,0,.75-2.68,2.293,2.293,0,0,0-.75-1.62,7.984,7.984,0,0,0-1.8-1.48,4.268,4.268,0,0,0-1.9-.65,0.8,0.8,0,0,0-.95.85,15.862,15.862,0,0,1-1.1,3.1q-0.555-.69-1.32-1.47a11.83,11.83,0,0,0-1.75-1.43,10.113,10.113,0,0,0-2.13-1.07,7.25,7.25,0,0,0-2.5-.43,3.408,3.408,0,0,0-2.2,1.13,18.83,18.83,0,0,0-2.45,2.9,45.083,45.083,0,0,0-2.45,3.92c-0.8,1.44-1.52,2.85-2.15,4.25s-1.16,2.69-1.57,3.85a12.923,12.923,0,0,0-.73,2.7,4.029,4.029,0,0,0,.63,2.55,7.109,7.109,0,0,0,1.85,1.98,9.036,9.036,0,0,0,2.42,1.27,7.153,7.153,0,0,0,2.3.45,2.092,2.092,0,0,0,1.13-.47,11.122,11.122,0,0,0,1.47-1.28c0.53-.53,1.09-1.14,1.68-1.82s1.17-1.41,1.77-2.18c-0.1.37-.17,0.69-0.22,0.95s-0.1.52-.13,0.75a2.69,2.69,0,0,0,.65,2.15,4.9,4.9,0,0,0,1.8,1.23,9.149,9.149,0,0,0,2.05.57,11.092,11.092,0,0,0,1.4.15h0.3a5.856,5.856,0,0,0,2.53-1.1,19.523,19.523,0,0,0,2.8-2.4,40.227,40.227,0,0,0,2.8-3.17c0.91-1.15,1.77-2.28,2.57-3.38s1.51-2.1,2.13-3.02,1.09-1.64,1.42-2.18a1.518,1.518,0,0,0,.13-0.67,3.433,3.433,0,0,0-.1-0.98,0.98,0.98,0,0,0-.38-0.6c-0.17-.1-0.38.05-0.65,0.45C1068.69,5155.86,1068.06,5156.76,1067.35,5157.76Zm-23.53,10a17.863,17.863,0,0,1,.88-3.12c0.45-1.25,1-2.61,1.67-4.08s1.37-2.82,2.1-4.07a23.1,23.1,0,0,1,2.15-3.13,2.8,2.8,0,0,1,1.75-1.25,6.023,6.023,0,0,1,1.78.25,10.546,10.546,0,0,1,1.37.55c-0.17.4-.34,0.81-0.52,1.23s-0.36.86-.53,1.32c-0.37.6-.83,1.35-1.4,2.25s-1.18,1.85-1.85,2.85-1.35,2-2.05,3-1.37,1.91-2.02,2.73a21.288,21.288,0,0,1-1.75,1.97,2.159,2.159,0,0,1-1.23.75C1043.8,5169.01,1043.69,5168.6,1043.82,5167.76Zm43.48-8.72q-1.53,2.175-3.1,4.07a25.764,25.764,0,0,1-3.1,3.2,4.457,4.457,0,0,1-2.73,1.3,1.914,1.914,0,0,1-1.27-.62,7.134,7.134,0,0,1-1.3-1.7,21.618,21.618,0,0,1-1.23-2.5,24.685,24.685,0,0,1-1.05-3.08,16.561,16.561,0,0,0,5.43-1.72,17.708,17.708,0,0,0,4.05-2.93,14.09,14.09,0,0,0,2.6-3.42,10.806,10.806,0,0,0,1.15-3.25,3.656,3.656,0,0,0-.33-2.43,1.971,1.971,0,0,0-1.85-.95,7.985,7.985,0,0,0-2.77.53,16.31,16.31,0,0,0-2.85,1.4,20.841,20.841,0,0,0-2.75,2.02c-0.89.77-1.71,1.55-2.48,2.35q1.005-2.85,1.95-5.5t1.68-4.77c0.48-1.42.87-2.6,1.17-3.55a15.209,15.209,0,0,0,.5-1.78,2.624,2.624,0,0,0-1-1.8,11.06,11.06,0,0,0-2.37-1.8,8.084,8.084,0,0,0-2.45-.95c-0.75-.13-1.16.1-1.23,0.7a41.62,41.62,0,0,1-1.17,6.73c-0.62,2.42-1.33,4.87-2.13,7.37s-1.65,4.95-2.55,7.35-1.73,4.6-2.5,6.6-1.42,3.73-1.95,5.18a12.647,12.647,0,0,0-.85,3.07,3.34,3.34,0,0,0,.68,2.7,3.754,3.754,0,0,0,1.95,1.1,5.51,5.51,0,0,0,2.17.08,2.76,2.76,0,0,0,1.3-.43,1.272,1.272,0,0,0,.25-0.3,0.4,0.4,0,0,0,.03-0.22c-0.02-.08-0.05-0.18-0.08-0.3a1.811,1.811,0,0,1,0-.58,23.074,23.074,0,0,1,.8-2.6c0.5-1.46,1.13-3.3,1.9-5.5a37.1,37.1,0,0,0,1.18,3.7,20.3,20.3,0,0,0,1.5,3.2,8.437,8.437,0,0,0,1.82,2.25,3.245,3.245,0,0,0,2.15.85,4.723,4.723,0,0,0,2.53-.9,19.131,19.131,0,0,0,2.82-2.32,36.62,36.62,0,0,0,2.88-3.2q1.425-1.77,2.67-3.45c0.83-1.12,1.57-2.16,2.2-3.13s1.12-1.71,1.45-2.25a1.518,1.518,0,0,0,.13-0.67,3.433,3.433,0,0,0-.1-0.98,1.059,1.059,0,0,0-.35-0.6q-0.225-.15-0.63.45C1089.24,5156.26,1088.31,5157.59,1087.3,5159.04Zm-3.35-7.35a13.422,13.422,0,0,1-2.55,2.65,19.59,19.59,0,0,1-3.63,2.3,18.643,18.643,0,0,1-4.3,1.52,21.144,21.144,0,0,1,2.13-2.57q1.215-1.275,2.52-2.43t2.55-2.07a21.831,21.831,0,0,1,2.23-1.48,8.574,8.574,0,0,1,1.57-.72c0.4-.12.58-0.04,0.55,0.22A5.36,5.36,0,0,1,1083.95,5151.69Zm22.15,5.7c-0.85.98-1.78,2.02-2.78,3.1s-2.06,2.16-3.17,3.22a32.31,32.31,0,0,1-3.4,2.85,19.994,19.994,0,0,1-3.43,2.03,7.772,7.772,0,0,1-3.25.77,1.1,1.1,0,0,1-1.02-.52,2.449,2.449,0,0,1-.3-1.4,9.115,9.115,0,0,1,.32-2.05c0.2-.78.47-1.63,0.8-2.53a6.642,6.642,0,0,0,1.43.38,11.542,11.542,0,0,0,1.77.12,6.377,6.377,0,0,0,3.35-1,14.916,14.916,0,0,0,3-2.37,14.6,14.6,0,0,0,2.23-2.9,6.9,6.9,0,0,0,.97-2.58,5.675,5.675,0,0,0-.47-2.35,9.541,9.541,0,0,0-1.45-2.42,8.115,8.115,0,0,0-2.23-1.88,5.349,5.349,0,0,0-2.7-.75,5.149,5.149,0,0,0-2.45.75,14.007,14.007,0,0,0-2.72,2.03,21.531,21.531,0,0,0-2.68,3.05,29.658,29.658,0,0,0-2.37,3.8,25.667,25.667,0,0,0-1.8,4.27,20.027,20.027,0,0,0-.93,4.5,3.2,3.2,0,0,0,.63,2.05,9.909,9.909,0,0,0,1.87,2.18,11.331,11.331,0,0,0,2.53,1.7,5.92,5.92,0,0,0,2.62.67,8.187,8.187,0,0,0,3.63-.95,21.635,21.635,0,0,0,3.85-2.47,44.593,44.593,0,0,0,3.75-3.35q1.815-1.83,3.35-3.6c1.01-1.18,1.9-2.27,2.65-3.25s1.3-1.73,1.67-2.23a0.97,0.97,0,0,0,.08-0.55,3.119,3.119,0,0,0-.15-0.75,0.8,0.8,0,0,0-.38-0.47,0.534,0.534,0,0,0-.6.32Q1107.375,5155.92,1106.1,5157.39Zm-7.65-5.5a6.178,6.178,0,0,1-1,2.45,12.724,12.724,0,0,1-2.35,2.67,7.742,7.742,0,0,1-3.43,1.75q0.8-1.545,1.65-3a29.743,29.743,0,0,1,1.68-2.55,12.306,12.306,0,0,1,1.55-1.75,2.056,2.056,0,0,1,1.27-.65Q1098.57,5150.81,1098.45,5151.89Zm42.19,4.52c-0.48.67-1.07,1.45-1.77,2.35s-1.48,1.88-2.33,2.93-1.71,2.11-2.6,3.17-1.75,2.1-2.62,3.1-1.67,1.9-2.4,2.7c1-2.5,1.92-4.91,2.77-7.25s1.58-4.42,2.18-6.27,1.07-3.38,1.42-4.6,0.55-1.94.58-2.18a2.387,2.387,0,0,0-.75-1.65,7.335,7.335,0,0,0-1.83-1.5,4.381,4.381,0,0,0-1.92-.65,0.8,0.8,0,0,0-.95.85,12.871,12.871,0,0,1-.45,2.08c-0.27.98-.63,2.21-1.1,3.67a32.5,32.5,0,0,1-2.83,5.2,53.912,53.912,0,0,1-3.85,5.23,33.237,33.237,0,0,1-3.92,4.05,5.451,5.451,0,0,1-3.1,1.62c-0.27,0-.29-0.4-0.08-1.22s0.57-1.86,1.05-3.13,1.05-2.65,1.68-4.15,1.24-2.93,1.82-4.3,1.09-2.57,1.5-3.62a9.878,9.878,0,0,0,.68-2.08,2.293,2.293,0,0,0-.75-1.62,7.984,7.984,0,0,0-1.8-1.48,4.268,4.268,0,0,0-1.9-.65,0.8,0.8,0,0,0-.95.85,11.979,11.979,0,0,1-.63,2.53c-0.35,1.02-.77,2.12-1.27,3.3s-1.04,2.41-1.63,3.67-1.12,2.49-1.62,3.65-0.93,2.24-1.3,3.2a8.134,8.134,0,0,0-.6,2.35,4.318,4.318,0,0,0,.45,2.4,6.124,6.124,0,0,0,1.37,1.78,6.717,6.717,0,0,0,1.73,1.12,3.816,3.816,0,0,0,1.5.4,5.88,5.88,0,0,0,3.05-.92,16.652,16.652,0,0,0,3-2.33,27.5,27.5,0,0,0,2.72-3.05c0.85-1.1,1.61-2.13,2.28-3.1q-1.5,4.005-3.23,8.23c-1.15,2.82-2.32,5.47-3.52,7.97q-2.355,1.755-4.45,3.3c-1.4,1.04-2.63,2-3.7,2.9a20.793,20.793,0,0,0-2.58,2.53,3.771,3.771,0,0,0-1.02,2.12,4.922,4.922,0,0,0,.07,1.6,4.481,4.481,0,0,0,.73,1.7,4.211,4.211,0,0,0,1.52,1.33,5.449,5.449,0,0,0,2.58.52,6.037,6.037,0,0,0,3.82-1.65,22.833,22.833,0,0,0,3.93-4.4,52.749,52.749,0,0,0,3.8-6.32c1.23-2.38,2.42-4.86,3.55-7.43a1.3,1.3,0,0,1,.2-0.15,0.654,0.654,0,0,0,.2-0.15,25.148,25.148,0,0,0,2.55-2.47q1.5-1.62,3.12-3.53,1.635-1.89,3.28-3.92t3-3.75c0.9-1.15,1.65-2.13,2.25-2.93s0.97-1.3,1.1-1.5a1.8,1.8,0,0,0,.12-0.72,2.844,2.844,0,0,0-.1-0.98,0.932,0.932,0,0,0-.37-0.6c-0.17-.1-0.38.05-0.65,0.45C1141.47,5155.28,1141.13,5155.75,1140.64,5156.41Zm-31,34.45a1.338,1.338,0,0,1-.12-0.9q0.105-1.14,2.1-2.85t5-3.95a39.8,39.8,0,0,1-3.63,5.68c-1.15,1.45-2.15,2.17-3.02,2.17A0.537,0.537,0,0,1,1109.64,5190.86Zm49.75-33.05a36.367,36.367,0,0,1-2.7,2.85,24.219,24.219,0,0,1-2.95,2.4,12.12,12.12,0,0,1-2.97,1.55,30.746,30.746,0,0,0,2.45-5,16.306,16.306,0,0,0,1.1-4.4,8.4,8.4,0,0,0-.23-2.9,9.477,9.477,0,0,0-1.2-2.85,7.446,7.446,0,0,0-2.07-2.15,5.075,5.075,0,0,0-2.9-.85,7.068,7.068,0,0,0-3.1.78,12.5,12.5,0,0,0-3.03,2.1,14.043,14.043,0,0,0-2.47,3.07,12.916,12.916,0,0,0-1.5,3.65c-0.5.64-.99,1.34-1.48,2.1s-0.93,1.54-1.35,2.3a23.2,23.2,0,0,0-1.05,2.23,6.038,6.038,0,0,0-.12,4.45,8.287,8.287,0,0,0,1.4,2.57,8.147,8.147,0,0,0,2.32,2,6.159,6.159,0,0,0,3.18.8,7.333,7.333,0,0,0,4.2-1.4,17.783,17.783,0,0,0,3.8-3.55,11.1,11.1,0,0,0,4.6-1.65,25.031,25.031,0,0,0,3.92-3.02,27.067,27.067,0,0,0,3.1-3.43c0.89-1.16,1.61-2.13,2.18-2.9a0.993,0.993,0,0,0,.17-0.65,2.89,2.89,0,0,0-.07-0.9,0.857,0.857,0,0,0-.35-0.55c-0.17-.1-0.37.04-0.6,0.4C1161,5155.83,1160.24,5156.81,1159.39,5157.81Zm-10.07-8.05a15.122,15.122,0,0,1,.05,4.25,14.141,14.141,0,0,1-.45,2.13c-0.23.82-.53,1.69-0.88,2.62a29.213,29.213,0,0,1-1.25,2.88c-0.48.98-.99,1.91-1.52,2.77a11.137,11.137,0,0,1-3.3-1.75c0.43-.63.87-1.26,1.32-1.9s0.85-1.22,1.2-1.77,0.65-1.03.88-1.45a3.117,3.117,0,0,0,.4-0.98,1.606,1.606,0,0,0-.48-1.22,4.881,4.881,0,0,0-1.32-1,10.531,10.531,0,0,0-1.63-.7,6.977,6.977,0,0,0-1.37-.33,11.617,11.617,0,0,1,1.47-1.92,11.4,11.4,0,0,1,1.73-1.5,9.53,9.53,0,0,1,1.8-1,4.532,4.532,0,0,1,1.75-.38A1.488,1.488,0,0,1,1149.32,5149.76Zm-10.45,19.15a1.471,1.471,0,0,1,.02-0.95,8.833,8.833,0,0,1,.6-1.42c0.29-.55.61-1.13,0.98-1.73a9.962,9.962,0,0,0,3.05,2,10.149,10.149,0,0,1-1.93,1.78,3.412,3.412,0,0,1-1.97.67A0.715,0.715,0,0,1,1138.87,5168.91Zm44.8-11.17c-0.7,1.02-1.43,2.06-2.2,3.12s-1.54,2.11-2.33,3.13-1.52,1.93-2.22,2.75a17.021,17.021,0,0,1-1.9,1.95,2.442,2.442,0,0,1-1.4.72c-0.4,0-.52-0.36-0.35-1.1,0.27-.8.62-1.76,1.05-2.9s0.88-2.32,1.35-3.57,0.94-2.51,1.42-3.78,0.92-2.44,1.3-3.52,0.7-2.01.95-2.78a9.344,9.344,0,0,0,.43-1.6,2.293,2.293,0,0,0-.75-1.62,7.984,7.984,0,0,0-1.8-1.48,4.268,4.268,0,0,0-1.9-.65,0.8,0.8,0,0,0-.95.85,13.652,13.652,0,0,1-.98,3.58c-0.58,1.52-1.25,3.17-2.02,4.97-0.87,1.5-1.86,3.05-2.98,4.63a43.064,43.064,0,0,1-3.4,4.27,26.7,26.7,0,0,1-3.3,3.13,4.654,4.654,0,0,1-2.62,1.22c-0.27,0-.29-0.4-0.08-1.22a28.017,28.017,0,0,1,1.08-3.08c0.5-1.23,1.07-2.59,1.72-4.07s1.27-2.91,1.85-4.28,1.09-2.56,1.5-3.6a9.46,9.46,0,0,0,.68-2.05,2.293,2.293,0,0,0-.75-1.62,7.984,7.984,0,0,0-1.8-1.48,4.268,4.268,0,0,0-1.9-.65,0.852,0.852,0,0,0-1,.85,11.979,11.979,0,0,1-.63,2.53c-0.35,1.02-.78,2.11-1.3,3.27s-1.05,2.38-1.62,3.63-1.11,2.46-1.63,3.62-0.95,2.23-1.3,3.18a10.53,10.53,0,0,0-.62,2.32,4.318,4.318,0,0,0,.45,2.4,6.124,6.124,0,0,0,1.37,1.78,6.322,6.322,0,0,0,1.75,1.1,4.282,4.282,0,0,0,1.53.37,5.442,5.442,0,0,0,2.35-.57,11.6,11.6,0,0,0,2.37-1.53,19.884,19.884,0,0,0,2.28-2.15c0.73-.8,1.43-1.61,2.1-2.45-0.17.47-.3,0.9-0.4,1.28a3.964,3.964,0,0,0-.15.97,3.3,3.3,0,0,0,.55,2.2,5.729,5.729,0,0,0,1.6,1.58,6.267,6.267,0,0,0,1.87.87,2.554,2.554,0,0,0,1.38.1,6.045,6.045,0,0,0,2.52-1.22,22.06,22.06,0,0,0,2.78-2.48c0.93-.96,1.87-2.03,2.8-3.2s1.79-2.3,2.57-3.4,1.49-2.11,2.1-3.05,1.1-1.65,1.43-2.15a1.242,1.242,0,0,0,.15-0.72,4.339,4.339,0,0,0-.1-0.98,0.881,0.881,0,0,0-.35-0.6c-0.17-.1-0.38.05-0.65,0.45C1185,5155.81,1184.37,5156.72,1183.67,5157.74Zm15.22,0.17c-0.68,1.07-1.39,2.18-2.12,3.33s-1.48,2.28-2.23,3.4-1.46,2.12-2.12,3a21.546,21.546,0,0,1-1.83,2.15,2.247,2.247,0,0,1-1.37.82c-0.44,0-.52-0.46-0.25-1.4,0.33-.96.74-2.1,1.22-3.4s0.95-2.58,1.4-3.85,0.85-2.41,1.2-3.45a11.6,11.6,0,0,0,.58-2.15,3.59,3.59,0,0,0-.48-2.25,6.119,6.119,0,0,0-1.5-1.6,18.114,18.114,0,0,0-2.05-1.32,15.518,15.518,0,0,1-2.07-1.38,41.838,41.838,0,0,0,2.12-4.62,16.933,16.933,0,0,0,1.13-4.58,6.3,6.3,0,0,0-.48-3.82,2.126,2.126,0,0,0-1.82-1.13,6.279,6.279,0,0,0-2.48.68,11.8,11.8,0,0,0-2.87,1.9,13.784,13.784,0,0,0-2.48,2.87,7.623,7.623,0,0,0-1.22,3.6,8.076,8.076,0,0,0,.17,2.8,7.635,7.635,0,0,0,.95,2.15,7.106,7.106,0,0,0,1.48,1.65c0.56,0.47,1.13.9,1.7,1.3-0.4.57-.75,1.1-1.05,1.58a12.006,12.006,0,0,1-.85,1.22,0.807,0.807,0,0,0-.08.6,2.224,2.224,0,0,0,.28.68,1.277,1.277,0,0,0,.45.47,0.257,0.257,0,0,0,.4-0.1c0.26-.36.62-0.85,1.07-1.45s0.91-1.26,1.38-2a8.048,8.048,0,0,1,1.55,1.38,2.081,2.081,0,0,1,.45,1.57,7.769,7.769,0,0,1-.8,2.35q-0.75,1.6-1.65,3.45c-0.6,1.24-1.17,2.47-1.7,3.7a9.919,9.919,0,0,0-.9,3.2,2.69,2.69,0,0,0,.65,2.15,5.2,5.2,0,0,0,1.8,1.25,8.314,8.314,0,0,0,2.05.6,10.914,10.914,0,0,0,1.4.15,0.468,0.468,0,0,0,.17-0.02,0.345,0.345,0,0,1,.13-0.03,5.2,5.2,0,0,0,2.47-1.2,18.094,18.094,0,0,0,2.65-2.62c0.89-1.05,1.76-2.2,2.63-3.45s1.67-2.47,2.42-3.65,1.41-2.28,1.98-3.28,1.01-1.75,1.35-2.25a1.562,1.562,0,0,0,.12-0.67,2.844,2.844,0,0,0-.1-0.98,0.973,0.973,0,0,0-.37-0.6c-0.17-.1-0.39.05-0.65,0.45C1200.18,5155.91,1199.58,5156.85,1198.89,5157.91Zm-13.6-15.5a17.333,17.333,0,0,1,.78-2.17,8.957,8.957,0,0,1,.97-1.73,1.418,1.418,0,0,1,.98-0.7,0.852,0.852,0,0,1,.8.55,5.059,5.059,0,0,1,.1,2.15,13.932,13.932,0,0,1-.98,3.9,35.491,35.491,0,0,1-1.92,4.1,5.136,5.136,0,0,1-.9-1.72,6.089,6.089,0,0,1-.2-2.28A9.9,9.9,0,0,1,1185.29,5142.41Zm36.03,30a0.455,0.455,0,0,1,.2-0.05,10.63,10.63,0,0,0,3.77-2.02,39.214,39.214,0,0,0,4.38-3.95,64.822,64.822,0,0,0,4.42-5.1q2.175-2.775,3.93-5.5a44.037,44.037,0,0,0,2.85-5.13,13.11,13.11,0,0,0,1.25-3.95,2.725,2.725,0,0,0-.33-1.4,3.118,3.118,0,0,0-.87-1.12,0.906,0.906,0,0,0-.98-0.15,1.763,1.763,0,0,0-.57,1.52,11.8,11.8,0,0,1-.9,2.8q-0.81,1.905-2.08,4.23t-2.87,4.82q-1.605,2.505-3.18,4.55a24.943,24.943,0,0,1-3.05,3.38,4.161,4.161,0,0,1-2.47,1.32c-0.74,0-1.02-.53-0.85-1.6,0.4-1.03.8-2.11,1.2-3.25s0.77-2.19,1.12-3.17,0.64-1.85.88-2.6a11.429,11.429,0,0,0,.4-1.58,2.1,2.1,0,0,0-.7-1.47,10.27,10.27,0,0,0-1.8-1.55,11.67,11.67,0,0,0-2.15-1.18,3.065,3.065,0,0,0-1.75-.3h-0.05a4.075,4.075,0,0,0-1.75,1.48q-1.3,1.47-2.93,3.62c-1.08,1.44-2.2,2.96-3.35,4.58s-2.16,3.06-3.02,4.32q0.69-1.995,1.47-4.17c0.52-1.45,1-2.81,1.45-4.08s0.82-2.36,1.1-3.3a15.315,15.315,0,0,0,.48-1.85,1.745,1.745,0,0,0-.45-1.15,8.75,8.75,0,0,0-1.25-1.27,11.783,11.783,0,0,0-1.65-1.15,8.674,8.674,0,0,0-1.7-.78,3.314,3.314,0,0,0-1.35-.17,0.645,0.645,0,0,0-.6.67,43.61,43.61,0,0,1-1.35,7.95q-0.96,3.36-1.93,5.8c-0.65,1.64-1.23,3.02-1.75,4.15a10.457,10.457,0,0,0-.92,3.05,3.941,3.941,0,0,0,.67,2.88,4.776,4.776,0,0,0,1.93,1.47,5.643,5.643,0,0,0,2.15.45,2.078,2.078,0,0,0,1.3-.25,1.335,1.335,0,0,0,.25-0.32,0.371,0.371,0,0,0,.02-0.23c-0.02-.06-0.04-0.16-0.07-0.3a1.248,1.248,0,0,1,0-.55v-0.15c0.53-.76,1.25-1.72,2.15-2.87s1.89-2.41,2.97-3.78,2.23-2.79,3.43-4.27,2.36-2.93,3.5-4.33a28.467,28.467,0,0,1-1.18,4.8c-0.45,1.24-.87,2.28-1.27,3.13s-0.76,1.59-1.08,2.22a5.641,5.641,0,0,0-.57,2.1,4.316,4.316,0,0,0,.37,2.33,3.926,3.926,0,0,0,1.25,1.47,4.986,4.986,0,0,0,1.65.78,6.361,6.361,0,0,0,1.58.22h0.25a0.184,0.184,0,0,0,.12-0.02,0.1,0.1,0,0,1,.08-0.03h0.2Zm36.02-15.02c-0.85.98-1.77,2.02-2.77,3.1s-2.06,2.16-3.18,3.22a32.31,32.31,0,0,1-3.4,2.85,19.925,19.925,0,0,1-3.42,2.03,7.807,7.807,0,0,1-3.25.77,1.122,1.122,0,0,1-1.03-.52,2.449,2.449,0,0,1-.3-1.4,9.81,9.81,0,0,1,.33-2.05,24.09,24.09,0,0,1,.8-2.53,6.549,6.549,0,0,0,1.42.38,11.774,11.774,0,0,0,1.78.12,6.377,6.377,0,0,0,3.35-1,14.916,14.916,0,0,0,3-2.37,14.171,14.171,0,0,0,2.22-2.9,6.943,6.943,0,0,0,.98-2.58,5.7,5.7,0,0,0-.48-2.35,9.26,9.26,0,0,0-1.45-2.42,8.22,8.22,0,0,0-2.22-1.88,5.349,5.349,0,0,0-2.7-.75,5.117,5.117,0,0,0-2.45.75,14.361,14.361,0,0,0-2.73,2.03,20.883,20.883,0,0,0-2.67,3.05,30.868,30.868,0,0,0-2.38,3.8,25.667,25.667,0,0,0-1.8,4.27,20.569,20.569,0,0,0-.92,4.5,3.239,3.239,0,0,0,.62,2.05,9.965,9.965,0,0,0,1.88,2.18,11.047,11.047,0,0,0,2.52,1.7,5.96,5.96,0,0,0,2.63.67,8.116,8.116,0,0,0,3.62-.95,21.284,21.284,0,0,0,3.85-2.47,44.593,44.593,0,0,0,3.75-3.35c1.22-1.22,2.33-2.42,3.35-3.6s1.9-2.27,2.65-3.25,1.31-1.73,1.68-2.23a0.99,0.99,0,0,0,.07-0.55,3.119,3.119,0,0,0-.15-0.75,0.79,0.79,0,0,0-.37-0.47,0.534,0.534,0,0,0-.6.32C1258.93,5155.55,1258.19,5156.41,1257.34,5157.39Zm-7.65-5.5a6.033,6.033,0,0,1-1,2.45,12.444,12.444,0,0,1-2.35,2.67,7.654,7.654,0,0,1-3.42,1.75q0.8-1.545,1.65-3a27.573,27.573,0,0,1,1.67-2.55,12.957,12.957,0,0,1,1.55-1.75,2.077,2.077,0,0,1,1.28-.65C1249.57,5150.81,1249.77,5151.17,1249.69,5151.89Zm30.33,5.77q-1.3,1.53-2.88,3.2t-3.35,3.41c-1.18,1.15-2.36,2.23-3.52,3.23a38.51,38.51,0,0,0,2.3-3.76c0.7-1.3,1.31-2.57,1.85-3.8a32.633,32.633,0,0,0,1.27-3.46,14.566,14.566,0,0,0,.58-2.7,10.247,10.247,0,0,0-.15-2.63,5.178,5.178,0,0,0-.95-2.13,4.878,4.878,0,0,0-1.88-1.43,7.276,7.276,0,0,0-2.97-.53,2.856,2.856,0,0,0-1.65.76,15.934,15.934,0,0,0-2,1.92c-0.7.79-1.41,1.67-2.13,2.66s-1.39,1.98-2.02,2.98q1.245-3.36,2.52-6.81t2.3-6.33c0.68-1.92,1.25-3.53,1.7-4.85a19.39,19.39,0,0,0,.73-2.43,2.354,2.354,0,0,0-.78-1.65,7.636,7.636,0,0,0-1.82-1.47,4.48,4.48,0,0,0-1.9-.63,0.8,0.8,0,0,0-.95.85,22.463,22.463,0,0,1-1.13,4.28c-0.65,1.92-1.45,4.07-2.4,6.47s-1.96,4.9-3.02,7.49-2.07,5.02-3,7.31-1.73,4.27-2.38,5.96a14.126,14.126,0,0,0-1.02,3.43,2.658,2.658,0,0,0,.52,1.98,4.386,4.386,0,0,0,1.58,1.23,8.7,8.7,0,0,0,1.92.65,14.675,14.675,0,0,0,1.53.25,4.385,4.385,0,0,0,.52,1.08,5.254,5.254,0,0,0,.95,1.07,5.087,5.087,0,0,0,1.35.85,4.191,4.191,0,0,0,1.78.35,9.217,9.217,0,0,0,4.05-1.07,26.876,26.876,0,0,0,4.32-2.76,45.569,45.569,0,0,0,4.25-3.73c1.38-1.37,2.66-2.7,3.83-4.01s2.18-2.5,3.05-3.6,1.51-1.94,1.95-2.51a1.108,1.108,0,0,0,.17-0.67,3.11,3.11,0,0,0-.1-0.98,0.918,0.918,0,0,0-.35-0.58c-0.15-.08-0.36.08-0.62,0.48C1281.57,5155.76,1280.88,5156.64,1280.02,5157.66Zm-22.38,11.88a1.324,1.324,0,0,1,.03-0.48c0.03-.16.17-0.64,0.42-1.42s0.59-1.79,1.03-3.03c0.43-.76.95-1.65,1.57-2.65s1.28-2.03,1.98-3.1,1.42-2.11,2.17-3.15a34,34,0,0,1,2.23-2.77,14.456,14.456,0,0,1,2.1-1.98,3.09,3.09,0,0,1,1.8-.75q0.495,0,.15,1.38a22.088,22.088,0,0,1-1.3,3.45q-0.96,2.07-2.38,4.52a49.73,49.73,0,0,1-3.05,4.65,25.227,25.227,0,0,1-3.37,3.78,7.62,7.62,0,0,1-3.35,1.92A2.862,2.862,0,0,0,1257.64,5169.54Zm34.95-11.65a41.357,41.357,0,0,1-3.92,2.42,21.33,21.33,0,0,0-2.58-4.85c-1.12-1.6-2.12-3.18-3.02-4.75a48.173,48.173,0,0,0,2.45-5.05,17.122,17.122,0,0,0,1.3-5.05,6.378,6.378,0,0,0-.48-3.82,2.126,2.126,0,0,0-1.82-1.13,6.237,6.237,0,0,0-2.48.68,11.8,11.8,0,0,0-2.87,1.9,13.784,13.784,0,0,0-2.48,2.87,7.516,7.516,0,0,0-1.22,3.6,10.522,10.522,0,0,0,.77,5.25,28.576,28.576,0,0,0,2.43,4.4c-0.14.2-.27,0.39-0.4,0.55a4.591,4.591,0,0,0-.35.5,0.807,0.807,0,0,0-.08.6,2,2,0,0,0,.28.68,1.244,1.244,0,0,0,.47.47,0.284,0.284,0,0,0,.43-0.1,5.94,5.94,0,0,1,.35-0.52c0.13-.18.28-0.38,0.45-0.58a25.349,25.349,0,0,1,1.97,3.5,11.306,11.306,0,0,1,.98,3.95c-0.87.47-1.69,0.94-2.45,1.4a15.383,15.383,0,0,0-2.03,1.45,7.66,7.66,0,0,0-1.42,1.58,3.339,3.339,0,0,0-.6,1.72,2.953,2.953,0,0,0,.22,1.35,4.891,4.891,0,0,0,.73,1.28,4.354,4.354,0,0,0,1.02.95,2.128,2.128,0,0,0,1.18.37,7.726,7.726,0,0,0,3.52-.87,12.409,12.409,0,0,0,3.1-2.23,12.925,12.925,0,0,0,2.28-2.97,8.16,8.16,0,0,0,1.05-3.13,6.839,6.839,0,0,0-.2-2.35c1.6-.86,3.08-1.75,4.45-2.65a9.714,9.714,0,0,0,3-2.9,1.329,1.329,0,0,0,.1-0.62,2.261,2.261,0,0,0-.15-0.85,0.689,0.689,0,0,0-.43-0.45,0.78,0.78,0,0,0-.67.52A10.65,10.65,0,0,1,1292.59,5157.89Zm-10.95-15.48a17.333,17.333,0,0,1,.78-2.17,9.526,9.526,0,0,1,.95-1.73,1.34,1.34,0,0,1,.95-0.7,0.852,0.852,0,0,1,.8.55,5.059,5.059,0,0,1,.1,2.15,13.51,13.51,0,0,1-1.05,4.08,45.114,45.114,0,0,1-2.05,4.27,10.557,10.557,0,0,1-.75-2.17,6.655,6.655,0,0,1-.15-2.18A11.794,11.794,0,0,1,1281.64,5142.41Zm-2.65,27.88a0.845,0.845,0,0,1-.12-0.63,3.432,3.432,0,0,1,1.15-2.17,15.923,15.923,0,0,1,2.65-2.03,14.813,14.813,0,0,1-.35,1.6,8.319,8.319,0,0,1-.68,1.68,5.312,5.312,0,0,1-.97,1.3,1.774,1.774,0,0,1-1.25.52A0.511,0.511,0,0,1,1278.99,5170.29Zm25.63-12.53c-0.74,1-1.5,2.04-2.28,3.1s-1.58,2.1-2.4,3.1-1.59,1.9-2.32,2.7a19.231,19.231,0,0,1-2,1.93,2.662,2.662,0,0,1-1.45.72c-0.44,0-.52-0.45-0.25-1.35,0.26-.76.59-1.67,0.97-2.72s0.79-2.14,1.23-3.28,0.86-2.27,1.3-3.42,0.82-2.22,1.17-3.2,0.64-1.83.88-2.55a10.261,10.261,0,0,0,.4-1.53,2.263,2.263,0,0,0-.78-1.62,8.813,8.813,0,0,0-1.82-1.48,4.268,4.268,0,0,0-1.9-.65,0.8,0.8,0,0,0-.95.85,9.769,9.769,0,0,1-.6,1.9q-0.555,1.41-1.35,3.3c-0.54,1.27-1.11,2.62-1.73,4.05s-1.2,2.83-1.75,4.18-1.02,2.57-1.4,3.67a10.113,10.113,0,0,0-.62,2.55,2.69,2.69,0,0,0,.65,2.15,4.9,4.9,0,0,0,1.8,1.23,9.149,9.149,0,0,0,2.05.57,10.914,10.914,0,0,0,1.4.15h0.3a5.711,5.711,0,0,0,2.5-1.1,19.955,19.955,0,0,0,2.77-2.4,40.227,40.227,0,0,0,2.8-3.17c0.92-1.15,1.78-2.28,2.58-3.38s1.5-2.1,2.1-3.02,1.06-1.64,1.4-2.18a1.99,1.99,0,0,0,.15-0.67,3.942,3.942,0,0,0-.03-0.98,0.855,0.855,0,0,0-.3-0.6c-0.15-.1-0.36.05-0.62,0.45C1305.98,5155.86,1305.35,5156.76,1304.62,5157.76Zm-2.88-13.87a6.838,6.838,0,0,0,1.63-1.55,9.1,9.1,0,0,0,1.12-1.95,7.422,7.422,0,0,0,.53-1.83,3.028,3.028,0,0,0-.8-2.47,3.313,3.313,0,0,0-2.4-.88,4.462,4.462,0,0,0-2.08.58,9.626,9.626,0,0,0-2.02,1.45,8.152,8.152,0,0,0-1.58,1.95,5.041,5.041,0,0,0-.72,2.07,1.962,1.962,0,0,0,.32,1.25,3.683,3.683,0,0,0,1,1.05,4.765,4.765,0,0,0,1.43.7,5.189,5.189,0,0,0,1.6.25A3.427,3.427,0,0,0,1301.74,5143.89Zm15.68-3.68c-0.8.07-1.62,0.15-2.45,0.25,0.46-1.26.82-2.33,1.07-3.2s0.39-1.41.43-1.65a1.76,1.76,0,0,0-.43-1.15,7.083,7.083,0,0,0-1.25-1.27,13.32,13.32,0,0,0-1.67-1.15,8.674,8.674,0,0,0-1.7-.78,3.093,3.093,0,0,0-1.35-.15,0.688,0.688,0,0,0-.6.7,43.917,43.917,0,0,1-.68,4.45q-0.48,2.355-1.17,4.9c-0.5,0-1.02.01-1.55,0.03s-1.12.02-1.75,0.02a11.069,11.069,0,0,1-2.43-.22,7.864,7.864,0,0,1-1.6-.53,8.694,8.694,0,0,1-.97-0.52,1.2,1.2,0,0,0-.55-0.23c-0.34,0-.51.3-0.53,0.9a4.859,4.859,0,0,0,.4,1.95,5.629,5.629,0,0,0,1.35,1.95,3.276,3.276,0,0,0,2.38.9c0.46,0,1.05-.03,1.75-0.1s1.46-.15,2.3-0.25q-1.2,3.81-2.58,7.5t-2.55,6.8q-1.17,3.105-1.97,5.38a16.321,16.321,0,0,0-.9,3.17,2.69,2.69,0,0,0,.65,2.15,5.2,5.2,0,0,0,1.8,1.25,8.314,8.314,0,0,0,2.05.6,10.914,10.914,0,0,0,1.4.15,0.468,0.468,0,0,0,.17-0.02,0.484,0.484,0,0,1,.18-0.03,5.1,5.1,0,0,0,2.5-1.07,23.065,23.065,0,0,0,2.77-2.4,38.135,38.135,0,0,0,2.8-3.15c0.92-1.15,1.78-2.28,2.6-3.38s1.53-2.1,2.15-3.02,1.09-1.64,1.43-2.18a2.254,2.254,0,0,0,.12-0.72,3.11,3.11,0,0,0-.1-0.98,0.973,0.973,0,0,0-.37-0.6c-0.17-.1-0.39.05-0.65,0.45-0.57.8-1.21,1.71-1.93,2.73s-1.47,2.05-2.25,3.1-1.58,2.08-2.4,3.1-1.58,1.92-2.3,2.72a17.436,17.436,0,0,1-1.97,1.93,2.655,2.655,0,0,1-1.4.72c-0.47,0-.57-0.46-0.3-1.4,0.4-1.16.93-2.7,1.6-4.6s1.38-3.95,2.15-6.17,1.55-4.48,2.37-6.78,1.58-4.43,2.28-6.4c1.56-.26,2.97-0.48,4.22-0.65a24.838,24.838,0,0,1,2.73-.25,7.257,7.257,0,0,1,1.87.18,5.885,5.885,0,0,1,.98.35,2.119,2.119,0,0,1,.52.35,0.706,0.706,0,0,0,.53.17,0.577,0.577,0,0,0,.5-0.62,2.086,2.086,0,0,0-.33-1.35,4.025,4.025,0,0,0-1.5-1.35,6.141,6.141,0,0,0-3.07-.63C1319.15,5140.11,1318.22,5140.15,1317.42,5140.21Zm16.37,17.18c-0.85.98-1.77,2.02-2.77,3.1s-2.06,2.16-3.18,3.22a32.31,32.31,0,0,1-3.4,2.85,19.925,19.925,0,0,1-3.42,2.03,7.807,7.807,0,0,1-3.25.77,1.122,1.122,0,0,1-1.03-.52,2.449,2.449,0,0,1-.3-1.4,9.81,9.81,0,0,1,.33-2.05,24.09,24.09,0,0,1,.8-2.53,6.549,6.549,0,0,0,1.42.38,11.774,11.774,0,0,0,1.78.12,6.377,6.377,0,0,0,3.35-1,14.916,14.916,0,0,0,3-2.37,14.171,14.171,0,0,0,2.22-2.9,6.943,6.943,0,0,0,.98-2.58,5.7,5.7,0,0,0-.48-2.35,9.26,9.26,0,0,0-1.45-2.42,8.22,8.22,0,0,0-2.22-1.88,5.349,5.349,0,0,0-2.7-.75,5.117,5.117,0,0,0-2.45.75,14.361,14.361,0,0,0-2.73,2.03,20.883,20.883,0,0,0-2.67,3.05,30.868,30.868,0,0,0-2.38,3.8,25.667,25.667,0,0,0-1.8,4.27,20.569,20.569,0,0,0-.92,4.5,3.239,3.239,0,0,0,.62,2.05,9.965,9.965,0,0,0,1.88,2.18,11.047,11.047,0,0,0,2.52,1.7,5.96,5.96,0,0,0,2.63.67,8.116,8.116,0,0,0,3.62-.95,21.284,21.284,0,0,0,3.85-2.47,44.593,44.593,0,0,0,3.75-3.35c1.22-1.22,2.33-2.42,3.35-3.6s1.9-2.27,2.65-3.25,1.31-1.73,1.68-2.23a0.99,0.99,0,0,0,.07-0.55,3.119,3.119,0,0,0-.15-0.75,0.79,0.79,0,0,0-.37-0.47,0.534,0.534,0,0,0-.6.32C1335.38,5155.55,1334.64,5156.41,1333.79,5157.39Zm-7.65-5.5a6.033,6.033,0,0,1-1,2.45,12.444,12.444,0,0,1-2.35,2.67,7.654,7.654,0,0,1-3.42,1.75q0.8-1.545,1.65-3a27.573,27.573,0,0,1,1.67-2.55,12.957,12.957,0,0,1,1.55-1.75,2.077,2.077,0,0,1,1.28-.65C1326.02,5150.81,1326.22,5151.17,1326.14,5151.89Zm-284.72,48.32c-0.8.07-1.62,0.15-2.45,0.25,0.47-1.26.83-2.33,1.08-3.2a14.713,14.713,0,0,0,.42-1.65,1.8,1.8,0,0,0-.42-1.15,7.438,7.438,0,0,0-1.25-1.27,13.438,13.438,0,0,0-1.68-1.15,8.674,8.674,0,0,0-1.7-.78,3.067,3.067,0,0,0-1.35-.15,0.688,0.688,0,0,0-.6.7,43.773,43.773,0,0,1-.67,4.45q-0.48,2.355-1.18,4.9c-0.5,0-1.02.01-1.55,0.03s-1.12.02-1.75,0.02a10.972,10.972,0,0,1-2.42-.22,7.658,7.658,0,0,1-1.6-.53,10.058,10.058,0,0,1-.98-0.52,1.128,1.128,0,0,0-.55-0.23c-0.33,0-.51.3-0.52,0.9a4.694,4.694,0,0,0,.4,1.95,5.629,5.629,0,0,0,1.35,1.95,3.252,3.252,0,0,0,2.37.9c0.47,0,1.05-.03,1.75-0.1s1.47-.15,2.3-0.25q-1.2,3.81-2.57,7.5t-2.55,6.8c-0.79,2.07-1.44,3.86-1.98,5.38a17.965,17.965,0,0,0-.9,3.17,2.726,2.726,0,0,0,.65,2.15,5.2,5.2,0,0,0,1.8,1.25,8.44,8.44,0,0,0,2.05.6,11.092,11.092,0,0,0,1.4.15,0.5,0.5,0,0,0,.18-0.02,0.431,0.431,0,0,1,.17-0.03,5.064,5.064,0,0,0,2.5-1.07,23.111,23.111,0,0,0,2.78-2.4,38.135,38.135,0,0,0,2.8-3.15c0.91-1.15,1.78-2.28,2.6-3.38s1.53-2.1,2.15-3.02,1.09-1.64,1.42-2.18a1.947,1.947,0,0,0,.13-0.72,3.433,3.433,0,0,0-.1-0.98,0.98,0.98,0,0,0-.38-0.6c-0.17-.1-0.38.05-0.65,0.45q-0.855,1.2-1.92,2.73c-0.72,1.02-1.47,2.05-2.25,3.1s-1.59,2.08-2.4,3.1-1.59,1.92-2.3,2.72a17.433,17.433,0,0,1-1.98,1.93,2.655,2.655,0,0,1-1.4.72c-0.47,0-.57-0.46-0.3-1.4,0.4-1.16.93-2.7,1.6-4.6s1.38-3.95,2.15-6.17,1.56-4.48,2.38-6.78,1.57-4.43,2.27-6.4c1.57-.26,2.98-0.48,4.23-0.65a24.71,24.71,0,0,1,2.72-.25,7.345,7.345,0,0,1,1.88.18,5.726,5.726,0,0,1,.97.35,2.2,2.2,0,0,1,.53.35,0.681,0.681,0,0,0,.52.17,0.57,0.57,0,0,0,.5-0.62,2.015,2.015,0,0,0-.32-1.35,4.189,4.189,0,0,0-1.5-1.35,6.183,6.183,0,0,0-3.08-.63C1043.15,5200.11,1042.22,5200.15,1041.42,5200.21Zm18.18,17.6a36.367,36.367,0,0,1-2.7,2.85,25.007,25.007,0,0,1-2.95,2.4,12.353,12.353,0,0,1-2.98,1.55,30.746,30.746,0,0,0,2.45-5,16.306,16.306,0,0,0,1.1-4.4,8.38,8.38,0,0,0-.22-2.9,9.477,9.477,0,0,0-1.2-2.85,7.48,7.48,0,0,0-2.08-2.15,5.075,5.075,0,0,0-2.9-.85,7.068,7.068,0,0,0-3.1.78,12.45,12.45,0,0,0-3.02,2.1,14.083,14.083,0,0,0-2.48,3.07,12.916,12.916,0,0,0-1.5,3.65q-0.75.96-1.47,2.1c-0.49.77-.94,1.54-1.35,2.3a19.221,19.221,0,0,0-1.05,2.23,6.116,6.116,0,0,0-.48,1.92,6.329,6.329,0,0,0,.35,2.53,8.287,8.287,0,0,0,1.4,2.57,8.055,8.055,0,0,0,2.33,2,6.1,6.1,0,0,0,3.17.8,7.333,7.333,0,0,0,4.2-1.4,17.783,17.783,0,0,0,3.8-3.55,11.1,11.1,0,0,0,4.6-1.65,25.593,25.593,0,0,0,3.93-3.02,28.68,28.68,0,0,0,3.1-3.43c0.88-1.16,1.6-2.13,2.17-2.9a1.045,1.045,0,0,0,.18-0.65,3.212,3.212,0,0,0-.08-0.9,0.857,0.857,0,0,0-.35-0.55c-0.17-.1-0.37.04-0.6,0.4A37.135,37.135,0,0,1,1059.6,5217.81Zm-10.08-8.05a15.122,15.122,0,0,1,.05,4.25,14.141,14.141,0,0,1-.45,2.13c-0.23.82-.52,1.69-0.87,2.62s-0.77,1.9-1.25,2.88-1,1.91-1.53,2.77a11.137,11.137,0,0,1-3.3-1.75c0.43-.63.88-1.26,1.33-1.9s0.85-1.22,1.2-1.77,0.64-1.03.87-1.45a3.117,3.117,0,0,0,.4-0.98,1.6,1.6,0,0,0-.47-1.22,4.935,4.935,0,0,0-1.33-1,10.427,10.427,0,0,0-1.62-.7,7.049,7.049,0,0,0-1.38-.33,11.67,11.67,0,0,1,1.48-1.92,11.337,11.337,0,0,1,1.72-1.5,9.53,9.53,0,0,1,1.8-1,4.532,4.532,0,0,1,1.75-.38A1.488,1.488,0,0,1,1049.52,5209.76Zm-10.45,19.15a1.418,1.418,0,0,1,.03-0.95,7.319,7.319,0,0,1,.6-1.42c0.28-.55.6-1.13,0.97-1.73a9.962,9.962,0,0,0,3.05,2,10.114,10.114,0,0,1-1.92,1.78,3.441,3.441,0,0,1-1.98.67A0.715,0.715,0,0,1,1039.07,5228.91Zm43-28.7c-0.8.07-1.62,0.15-2.45,0.25,0.47-1.26.83-2.33,1.08-3.2a14.713,14.713,0,0,0,.42-1.65,1.8,1.8,0,0,0-.42-1.15,7.438,7.438,0,0,0-1.25-1.27,13.438,13.438,0,0,0-1.68-1.15,8.674,8.674,0,0,0-1.7-.78,3.067,3.067,0,0,0-1.35-.15,0.688,0.688,0,0,0-.6.7,43.773,43.773,0,0,1-.67,4.45q-0.48,2.355-1.18,4.9c-0.5,0-1.02.01-1.55,0.03s-1.12.02-1.75,0.02a10.972,10.972,0,0,1-2.42-.22,7.658,7.658,0,0,1-1.6-.53,9,9,0,0,1-.98-0.52,1.165,1.165,0,0,0-.55-0.23c-0.33,0-.51.3-0.52,0.9a4.694,4.694,0,0,0,.4,1.95,5.629,5.629,0,0,0,1.35,1.95,3.236,3.236,0,0,0,2.37.9c0.47,0,1.05-.03,1.75-0.1s1.47-.15,2.3-0.25q-1.2,3.81-2.57,7.5t-2.55,6.8q-1.185,3.105-1.98,5.38a17.965,17.965,0,0,0-.9,3.17,2.69,2.69,0,0,0,.65,2.15,5.2,5.2,0,0,0,1.8,1.25,8.314,8.314,0,0,0,2.05.6,11.092,11.092,0,0,0,1.4.15,0.5,0.5,0,0,0,.18-0.02,0.431,0.431,0,0,1,.17-0.03,5.064,5.064,0,0,0,2.5-1.07,23.111,23.111,0,0,0,2.78-2.4,38.135,38.135,0,0,0,2.8-3.15c0.91-1.15,1.78-2.28,2.6-3.38s1.53-2.1,2.15-3.02,1.09-1.64,1.42-2.18a1.947,1.947,0,0,0,.13-0.72,3.433,3.433,0,0,0-.1-0.98,0.98,0.98,0,0,0-.38-0.6c-0.17-.1-0.38.05-0.65,0.45q-0.855,1.2-1.92,2.73c-0.72,1.02-1.47,2.05-2.25,3.1s-1.59,2.08-2.4,3.1-1.59,1.92-2.3,2.72a17.433,17.433,0,0,1-1.98,1.93,2.655,2.655,0,0,1-1.4.72c-0.47,0-.57-0.46-0.3-1.4,0.4-1.16.93-2.7,1.6-4.6s1.38-3.95,2.15-6.17,1.56-4.48,2.38-6.78,1.57-4.43,2.27-6.4c1.57-.26,2.98-0.48,4.23-0.65a24.71,24.71,0,0,1,2.72-.25,7.345,7.345,0,0,1,1.88.18,5.726,5.726,0,0,1,.97.35,2.2,2.2,0,0,1,.53.35,0.681,0.681,0,0,0,.52.17,0.57,0.57,0,0,0,.5-0.62,2.015,2.015,0,0,0-.32-1.35,4.189,4.189,0,0,0-1.5-1.35,6.183,6.183,0,0,0-3.08-.63C1083.8,5200.11,1082.87,5200.15,1082.07,5200.21Zm24.45,17.58q-1.155,1.53-2.4,3.12c-0.83,1.07-1.69,2.11-2.57,3.13s-1.72,1.93-2.5,2.75a19.343,19.343,0,0,1-2.13,1.95,2.832,2.832,0,0,1-1.5.72q-0.45,0-.27-1.02a21.89,21.89,0,0,1,.65-2.63c0.31-1.06.7-2.24,1.17-3.52s0.93-2.53,1.38-3.75,0.83-2.32,1.15-3.3a10.707,10.707,0,0,0,.52-2.13,6.507,6.507,0,0,0-.12-2.05,5.628,5.628,0,0,0-.8-1.92,4.468,4.468,0,0,0-1.58-1.43,5,5,0,0,0-2.4-.55,3.911,3.911,0,0,0-2.42,1.38,32.615,32.615,0,0,0-3,3.4c-1.05,1.35-2.09,2.8-3.1,4.35s-1.93,2.96-2.73,4.22q0.855-2.445,1.83-5.12t1.9-5.33q0.915-2.64,1.77-5.1c0.57-1.63,1.08-3.1,1.53-4.4s0.8-2.37,1.07-3.22a7.37,7.37,0,0,0,.4-1.63,1.8,1.8,0,0,0-.42-1.15,7.438,7.438,0,0,0-1.25-1.27,13.438,13.438,0,0,0-1.68-1.15,9.484,9.484,0,0,0-1.7-.8,2.863,2.863,0,0,0-1.35-.18,0.688,0.688,0,0,0-.6.7,46.837,46.837,0,0,1-1.2,6.73q-0.9,3.63-2.07,7.35t-2.53,7.32q-1.35,3.6-2.47,6.6c-0.75,2-1.39,3.73-1.9,5.18a16.343,16.343,0,0,0-.88,3.07,3.362,3.362,0,0,0,.7,2.73,3.777,3.777,0,0,0,1.98,1.1,5.891,5.891,0,0,0,2.17.05,2.76,2.76,0,0,0,1.3-.43,1.272,1.272,0,0,0,.25-0.3,0.4,0.4,0,0,0,.03-0.22c-0.02-.08-0.05-0.18-0.08-0.3a1.811,1.811,0,0,1,0-.58,3.849,3.849,0,0,1,.18-0.75c0.11-.4.27-0.9,0.47-1.5,0.6-.8,1.28-1.73,2.03-2.8s1.5-2.15,2.27-3.27,1.52-2.21,2.25-3.28,1.41-2.02,2.03-2.87,1.13-1.53,1.55-2.05a1.83,1.83,0,0,1,.87-0.78c0.2,0,.22.24,0.05,0.7s-0.42,1.09-.77,1.85-0.76,1.65-1.23,2.63-0.92,1.97-1.35,2.97-0.81,1.97-1.12,2.9a11.191,11.191,0,0,0-.58,2.45,4.334,4.334,0,0,0,.58,2.78,6.652,6.652,0,0,0,1.82,1.95,8.461,8.461,0,0,0,2.23,1.15,6.009,6.009,0,0,0,1.82.37,4.84,4.84,0,0,0,2.6-.95,23.8,23.8,0,0,0,3.05-2.42,38.7,38.7,0,0,0,3.18-3.3q1.575-1.83,2.92-3.55c0.9-1.15,1.7-2.22,2.4-3.2s1.22-1.74,1.55-2.28a1.947,1.947,0,0,0,.13-0.72,3.433,3.433,0,0,0-.1-0.98,0.98,0.98,0,0,0-.38-0.6c-0.17-.1-0.38.05-0.65,0.45Q1107.675,5216.26,1106.52,5217.79Zm17.82-.4c-0.85.98-1.77,2.02-2.77,3.1s-2.06,2.16-3.18,3.22a31.324,31.324,0,0,1-3.4,2.85,19.925,19.925,0,0,1-3.42,2.03,7.772,7.772,0,0,1-3.25.77,1.122,1.122,0,0,1-1.03-.52,2.623,2.623,0,0,1-.3-1.4,9.81,9.81,0,0,1,.33-2.05c0.2-.78.47-1.63,0.8-2.53a6.708,6.708,0,0,0,1.42.38,11.774,11.774,0,0,0,1.78.12,6.377,6.377,0,0,0,3.35-1,14.916,14.916,0,0,0,3-2.37,14.171,14.171,0,0,0,2.22-2.9,6.771,6.771,0,0,0,.98-2.58,5.7,5.7,0,0,0-.48-2.35,9.26,9.26,0,0,0-1.45-2.42,7.929,7.929,0,0,0-2.22-1.88,5.349,5.349,0,0,0-2.7-.75,5.149,5.149,0,0,0-2.45.75,14.361,14.361,0,0,0-2.73,2.03,22.143,22.143,0,0,0-2.67,3.05,30.868,30.868,0,0,0-2.38,3.8,27.472,27.472,0,0,0-1.8,4.27,20.569,20.569,0,0,0-.92,4.5,3.239,3.239,0,0,0,.62,2.05,10.241,10.241,0,0,0,1.88,2.18,11.5,11.5,0,0,0,2.52,1.7,5.993,5.993,0,0,0,2.63.67,8.116,8.116,0,0,0,3.62-.95,20.943,20.943,0,0,0,3.85-2.47,41.665,41.665,0,0,0,3.75-3.35q1.83-1.83,3.35-3.6c1.02-1.18,1.9-2.27,2.65-3.25s1.31-1.73,1.68-2.23a0.906,0.906,0,0,0,.07-0.55,2.383,2.383,0,0,0-.15-0.75,0.756,0.756,0,0,0-.37-0.47,0.534,0.534,0,0,0-.6.32C1125.94,5215.55,1125.19,5216.41,1124.34,5217.39Zm-7.65-5.5a5.894,5.894,0,0,1-1,2.45,12.177,12.177,0,0,1-2.35,2.67,7.654,7.654,0,0,1-3.42,1.75q0.8-1.545,1.65-3a29.788,29.788,0,0,1,1.67-2.55,12.957,12.957,0,0,1,1.55-1.75,2.1,2.1,0,0,1,1.28-.65C1116.57,5210.81,1116.78,5211.17,1116.69,5211.89Zm41.05,7.55c-1.15,1.65-2.31,3.23-3.5,4.75a48.605,48.605,0,0,1-3.3,3.87c-1.01,1.07-1.79,1.6-2.32,1.6-0.4,0-.5-0.36-0.3-1.1,0.26-.8.61-1.76,1.05-2.9s0.88-2.32,1.35-3.57,0.94-2.5,1.42-3.75,0.92-2.42,1.3-3.5,0.7-2.01.95-2.78a10.427,10.427,0,0,0,.43-1.6,1.852,1.852,0,0,0-.35-1.15,6.046,6.046,0,0,0-1.03-1.15,7.42,7.42,0,0,0-1.37-.95,4.81,4.81,0,0,0-1.35-.5,1.126,1.126,0,0,0-.4-0.05,0.583,0.583,0,0,0-.25.05,1.2,1.2,0,0,0-.4.2,9.439,9.439,0,0,0-1.83,1.43c-0.71.68-1.49,1.49-2.32,2.42s-1.7,1.95-2.6,3.03-1.76,2.15-2.58,3.2-1.58,2.03-2.3,2.95-1.31,1.69-1.77,2.32c0.46-1.2.94-2.41,1.42-3.65s0.93-2.37,1.33-3.42,0.72-1.97.97-2.75a11.144,11.144,0,0,0,.43-1.63,2.293,2.293,0,0,0-.75-1.62,7.925,7.925,0,0,0-1.83-1.48,4.381,4.381,0,0,0-1.92-.65,0.8,0.8,0,0,0-.95.85,12.37,12.37,0,0,1-.65,2.58c-0.37,1.05-.81,2.19-1.33,3.42s-1.07,2.52-1.67,3.85-1.17,2.6-1.7,3.8-0.98,2.3-1.35,3.3a8.629,8.629,0,0,0-.6,2.4,3.279,3.279,0,0,0,.65,2.33,6.2,6.2,0,0,0,1.75,1.57,6.34,6.34,0,0,0,1.95.8,1.565,1.565,0,0,0,1.25-.05,0.676,0.676,0,0,0,.25-0.7,3.085,3.085,0,0,1-.05-1.05,14.761,14.761,0,0,1,1.27-2.05c0.62-.86,1.36-1.83,2.23-2.9s1.8-2.19,2.8-3.37,1.99-2.34,2.97-3.48,1.92-2.2,2.8-3.2,1.64-1.83,2.28-2.5q-0.81,2.055-1.8,4.33c-0.67,1.52-1.29,2.97-1.88,4.37s-1.09,2.69-1.52,3.85a9.694,9.694,0,0,0-.7,2.7,3.2,3.2,0,0,0,.57,2.2,5.882,5.882,0,0,0,1.6,1.55,6.29,6.29,0,0,0,1.88.85,2.456,2.456,0,0,0,1.35.1,6.374,6.374,0,0,0,2.55-1.22,22.413,22.413,0,0,0,2.82-2.5c0.95-.98,1.89-2.07,2.83-3.25s1.81-2.33,2.62-3.45,1.54-2.14,2.15-3.08,1.09-1.65,1.43-2.15a1.562,1.562,0,0,0,.12-0.67,2.844,2.844,0,0,0-.1-0.98,0.973,0.973,0,0,0-.37-0.6c-0.17-.1-0.39.05-0.65,0.45Q1159.46,5216.96,1157.74,5219.44Zm18.7-2.05c-0.85.98-1.77,2.02-2.77,3.1s-2.06,2.16-3.18,3.22a31.324,31.324,0,0,1-3.4,2.85,19.925,19.925,0,0,1-3.42,2.03,7.807,7.807,0,0,1-3.25.77,1.122,1.122,0,0,1-1.03-.52,2.623,2.623,0,0,1-.3-1.4,9.81,9.81,0,0,1,.33-2.05,24.09,24.09,0,0,1,.8-2.53,6.708,6.708,0,0,0,1.42.38,11.774,11.774,0,0,0,1.78.12,6.377,6.377,0,0,0,3.35-1,14.916,14.916,0,0,0,3-2.37,14.171,14.171,0,0,0,2.22-2.9,6.771,6.771,0,0,0,.98-2.58,5.7,5.7,0,0,0-.48-2.35,9.26,9.26,0,0,0-1.45-2.42,8.072,8.072,0,0,0-2.22-1.88,5.349,5.349,0,0,0-2.7-.75,5.117,5.117,0,0,0-2.45.75,14.361,14.361,0,0,0-2.73,2.03,21.494,21.494,0,0,0-2.67,3.05,30.868,30.868,0,0,0-2.38,3.8,27.472,27.472,0,0,0-1.8,4.27,20.569,20.569,0,0,0-.92,4.5,3.239,3.239,0,0,0,.62,2.05,10.241,10.241,0,0,0,1.88,2.18,11.27,11.27,0,0,0,2.52,1.7,5.96,5.96,0,0,0,2.63.67,8.116,8.116,0,0,0,3.62-.95,20.943,20.943,0,0,0,3.85-2.47,41.665,41.665,0,0,0,3.75-3.35q1.83-1.83,3.35-3.6c1.02-1.18,1.9-2.27,2.65-3.25s1.31-1.73,1.68-2.23a0.99,0.99,0,0,0,.07-0.55,2.383,2.383,0,0,0-.15-0.75,0.79,0.79,0,0,0-.37-0.47,0.534,0.534,0,0,0-.6.32C1178.03,5215.55,1177.29,5216.41,1176.44,5217.39Zm-7.65-5.5a5.894,5.894,0,0,1-1,2.45,12.177,12.177,0,0,1-2.35,2.67,7.654,7.654,0,0,1-3.42,1.75q0.8-1.545,1.65-3a27.573,27.573,0,0,1,1.67-2.55,12.957,12.957,0,0,1,1.55-1.75,2.1,2.1,0,0,1,1.28-.65C1168.67,5210.81,1168.88,5211.17,1168.79,5211.89Zm34.35,5.87c-0.72,1-1.47,2.04-2.25,3.1s-1.58,2.1-2.4,3.1-1.58,1.9-2.3,2.7a19.329,19.329,0,0,1-1.95,1.93,2.54,2.54,0,0,1-1.42.72,2.449,2.449,0,0,1-1.93-.9,8.024,8.024,0,0,1-1.35-2.37,25.863,25.863,0,0,1-1.02-3.38c-0.3-1.26-.59-2.56-0.85-3.9,1.13-1,2.23-1.96,3.3-2.9s2.01-1.78,2.85-2.55a25.274,25.274,0,0,0,2.02-2.05,3.061,3.061,0,0,0,.83-1.4,2.731,2.731,0,0,0-.43-1.65,3.686,3.686,0,0,0-1.1-1.15,1.773,1.773,0,0,0-1.17-.32,0.767,0.767,0,0,0-.6.87,2.5,2.5,0,0,1-.58,1,19.128,19.128,0,0,1-1.42,1.55c-0.6.6-1.3,1.27-2.1,2s-1.65,1.5-2.55,2.3q-0.4-1.5-.9-2.82a12.028,12.028,0,0,0-1.15-2.3,5.7,5.7,0,0,0-1.5-1.55,3.442,3.442,0,0,0-1.95-.58,2.5,2.5,0,0,0-1.58.8,16.189,16.189,0,0,0-1.77,1.98c-0.6.78-1.2,1.62-1.78,2.5s-1.09,1.66-1.52,2.32a1.3,1.3,0,0,0-.25.9,1.882,1.882,0,0,0,.25.8,0.88,0.88,0,0,0,.47.45,0.321,0.321,0,0,0,.43-0.2c0.13-.2.36-0.55,0.7-1.05s0.68-1.01,1.05-1.55c0.4-.6.85-1.28,1.35-2.05a1.21,1.21,0,0,1,.5-0.45,0.454,0.454,0,0,1,.45.05,1.929,1.929,0,0,1,.4.85c0.16,0.94.36,1.97,0.6,3.1s0.53,2.32.9,3.55c-1,.9-1.95,1.78-2.83,2.63s-1.67,1.64-2.35,2.37a18.781,18.781,0,0,0-1.62,1.98,3.3,3.3,0,0,0-.65,1.37,3.842,3.842,0,0,0,.37,1.97,8.092,8.092,0,0,0,1.08,1.8,2.453,2.453,0,0,0,1.12.88c0.35,0.1.56-.17,0.63-0.83a7.709,7.709,0,0,1,1.72-3.72,41.173,41.173,0,0,1,3.83-4.35,29.4,29.4,0,0,0,1.57,3.35,14.073,14.073,0,0,0,1.95,2.79,9.056,9.056,0,0,0,2.38,1.9,5.851,5.851,0,0,0,2.9.71,4.762,4.762,0,0,0,2.52-.88,18.458,18.458,0,0,0,2.83-2.3,37.676,37.676,0,0,0,2.87-3.17q1.425-1.74,2.65-3.45c0.82-1.13,1.55-2.17,2.2-3.12s1.14-1.69,1.48-2.23a2.254,2.254,0,0,0,.12-0.72,3.11,3.11,0,0,0-.1-0.98,0.973,0.973,0,0,0-.37-0.6c-0.17-.1-0.39.05-0.65,0.45C1204.5,5215.86,1203.86,5216.76,1203.14,5217.76Zm10.78-17.55c-0.8.07-1.62,0.15-2.45,0.25,0.46-1.26.82-2.33,1.07-3.2s0.39-1.41.43-1.65a1.76,1.76,0,0,0-.43-1.15,7.083,7.083,0,0,0-1.25-1.27,13.32,13.32,0,0,0-1.67-1.15,8.674,8.674,0,0,0-1.7-.78,3.093,3.093,0,0,0-1.35-.15,0.688,0.688,0,0,0-.6.7,43.917,43.917,0,0,1-.68,4.45q-0.48,2.355-1.17,4.9c-0.5,0-1.02.01-1.55,0.03s-1.12.02-1.75,0.02a11.069,11.069,0,0,1-2.43-.22,7.864,7.864,0,0,1-1.6-.53,9.709,9.709,0,0,1-.97-0.52,1.2,1.2,0,0,0-.55-0.23c-0.34,0-.51.3-0.53,0.9a5.036,5.036,0,0,0,.4,1.95,5.913,5.913,0,0,0,1.35,1.95,3.276,3.276,0,0,0,2.38.9c0.46,0,1.05-.03,1.75-0.1s1.46-.15,2.3-0.25q-1.2,3.81-2.58,7.5c-0.92,2.47-1.76,4.74-2.55,6.8s-1.44,3.86-1.97,5.38a16.321,16.321,0,0,0-.9,3.17,2.69,2.69,0,0,0,.65,2.15,5.2,5.2,0,0,0,1.8,1.25,8.314,8.314,0,0,0,2.05.6,10.914,10.914,0,0,0,1.4.15,0.468,0.468,0,0,0,.17-0.02,0.484,0.484,0,0,1,.18-0.03,5.1,5.1,0,0,0,2.5-1.07,23.065,23.065,0,0,0,2.77-2.4,38.135,38.135,0,0,0,2.8-3.15c0.92-1.15,1.78-2.28,2.6-3.38s1.53-2.1,2.15-3.02,1.09-1.64,1.43-2.18a2.254,2.254,0,0,0,.12-0.72,3.11,3.11,0,0,0-.1-0.98,0.973,0.973,0,0,0-.37-0.6c-0.17-.1-0.39.05-0.65,0.45-0.57.8-1.21,1.71-1.93,2.73s-1.47,2.05-2.25,3.1-1.58,2.08-2.4,3.1-1.58,1.92-2.3,2.72a17.436,17.436,0,0,1-1.97,1.93,2.655,2.655,0,0,1-1.4.72c-0.47,0-.57-0.46-0.3-1.4,0.4-1.16.93-2.7,1.6-4.6s1.38-3.95,2.15-6.17,1.55-4.48,2.37-6.78,1.58-4.43,2.28-6.4c1.56-.26,2.97-0.48,4.22-0.65a24.838,24.838,0,0,1,2.73-.25,7.257,7.257,0,0,1,1.87.18,5.885,5.885,0,0,1,.98.35,2.119,2.119,0,0,1,.52.35,0.706,0.706,0,0,0,.53.17,0.577,0.577,0,0,0,.5-0.62,2.086,2.086,0,0,0-.33-1.35,4.025,4.025,0,0,0-1.5-1.35,6.141,6.141,0,0,0-3.07-.63C1215.65,5200.11,1214.72,5200.15,1213.92,5200.21Zm18.62,17.63c-0.68.98-1.39,1.98-2.12,3s-1.48,2.02-2.23,3-1.46,1.85-2.12,2.6a17.234,17.234,0,0,1-1.85,1.82,2.463,2.463,0,0,1-1.35.7c-0.37,0-.5-0.33-0.4-1,0.3-.93.69-2.09,1.17-3.47s1.01-2.88,1.58-4.5,1.16-3.31,1.8-5.08,1.25-3.5,1.85-5.22,1.18-3.38,1.75-4.98,1.05-3.02,1.47-4.27,0.75-2.29,1-3.13,0.39-1.36.43-1.6a1.76,1.76,0,0,0-.43-1.15,7.083,7.083,0,0,0-1.25-1.27,13.32,13.32,0,0,0-1.67-1.15,9.484,9.484,0,0,0-1.7-.8,2.89,2.89,0,0,0-1.35-.18,0.688,0.688,0,0,0-.6.7,42.225,42.225,0,0,1-1.13,6.63c-0.58,2.35-1.26,4.72-2.02,7.1s-1.58,4.72-2.43,7-1.63,4.37-2.35,6.25-1.32,3.52-1.82,4.9a12.046,12.046,0,0,0-.8,2.97,4.8,4.8,0,0,0,.32,2.53,5.541,5.541,0,0,0,1.15,1.67,3.9,3.9,0,0,0,1.45.93,4.041,4.041,0,0,0,1.23.27,6.506,6.506,0,0,0,3.2-.9,16.574,16.574,0,0,0,3.12-2.32,31.7,31.7,0,0,0,2.93-3.15c0.93-1.15,1.79-2.28,2.57-3.4s1.47-2.15,2.05-3.1,1.04-1.69,1.38-2.23a2.254,2.254,0,0,0,.12-0.72,3.11,3.11,0,0,0-.1-0.98,0.973,0.973,0,0,0-.37-0.6c-0.17-.1-0.39.05-0.65,0.45C1233.83,5215.96,1233.22,5216.86,1232.54,5217.84Zm17.85-.45c-0.85.98-1.78,2.02-2.78,3.1s-2.05,2.16-3.17,3.22a32.31,32.31,0,0,1-3.4,2.85,19.621,19.621,0,0,1-3.43,2.03,7.738,7.738,0,0,1-3.25.77,1.116,1.116,0,0,1-1.02-.52,2.449,2.449,0,0,1-.3-1.4,9.725,9.725,0,0,1,.32-2.05c0.2-.78.47-1.63,0.8-2.53a6.8,6.8,0,0,0,1.43.38,11.729,11.729,0,0,0,1.77.12,6.351,6.351,0,0,0,3.35-1,14.916,14.916,0,0,0,3-2.37,14.23,14.23,0,0,0,2.23-2.9,6.725,6.725,0,0,0,.97-2.58,5.519,5.519,0,0,0-.47-2.35,9.26,9.26,0,0,0-1.45-2.42,8.115,8.115,0,0,0-2.23-1.88,5.3,5.3,0,0,0-2.7-.75,5.149,5.149,0,0,0-2.45.75,14.314,14.314,0,0,0-2.72,2.03,21.531,21.531,0,0,0-2.68,3.05,32.061,32.061,0,0,0-2.37,3.8,25.667,25.667,0,0,0-1.8,4.27,21.2,21.2,0,0,0-.93,4.5,3.319,3.319,0,0,0,.63,2.05,10.184,10.184,0,0,0,1.87,2.18,11.331,11.331,0,0,0,2.53,1.7,5.953,5.953,0,0,0,2.62.67,8.122,8.122,0,0,0,3.63-.95,21.284,21.284,0,0,0,3.85-2.47,44.593,44.593,0,0,0,3.75-3.35c1.22-1.22,2.33-2.42,3.35-3.6s1.9-2.27,2.65-3.25,1.31-1.73,1.67-2.23a0.89,0.89,0,0,0,.08-0.55,3.119,3.119,0,0,0-.15-0.75,0.768,0.768,0,0,0-.38-0.47,0.543,0.543,0,0,0-.6.32Q1251.665,5215.92,1250.39,5217.39Zm-7.65-5.5a6.033,6.033,0,0,1-1,2.45,12.444,12.444,0,0,1-2.35,2.67,7.689,7.689,0,0,1-3.43,1.75q0.81-1.545,1.65-3a29.743,29.743,0,0,1,1.68-2.55,12.957,12.957,0,0,1,1.55-1.75,2.08,2.08,0,0,1,1.27-.65Q1242.86,5210.81,1242.74,5211.89Zm7.17,20.62a0.534,0.534,0,0,1,.2-0.05,10.661,10.661,0,0,0,3.78-2.02,39.171,39.171,0,0,0,4.37-3.95,64.888,64.888,0,0,0,4.43-5.1q2.175-2.775,3.92-5.5a41.267,41.267,0,0,0,2.85-5.13,12.829,12.829,0,0,0,1.25-3.95,2.612,2.612,0,0,0-.32-1.4,3.029,3.029,0,0,0-.88-1.12,0.887,0.887,0,0,0-.97-0.15,1.79,1.79,0,0,0-.58,1.52,10.917,10.917,0,0,1-.9,2.8,44.835,44.835,0,0,1-2.07,4.23q-1.275,2.325-2.88,4.82-1.59,2.505-3.17,4.55a25.6,25.6,0,0,1-3.03,3.38,4.069,4.069,0,0,1-2.5,1.32,0.767,0.767,0,0,1-.85-0.55,2.9,2.9,0,0,1,.1-1.45q0.705-2.04,1.53-4.32c0.55-1.52,1.05-2.95,1.5-4.3s0.83-2.52,1.15-3.5a11.109,11.109,0,0,0,.52-1.98,1.647,1.647,0,0,0-.45-1.15,8.264,8.264,0,0,0-1.25-1.27,11.783,11.783,0,0,0-1.65-1.15,8.418,8.418,0,0,0-1.7-.78,3.278,3.278,0,0,0-1.35-.17,0.659,0.659,0,0,0-.6.67,41.951,41.951,0,0,1-1.35,7.95,58.8,58.8,0,0,1-1.92,5.8c-0.65,1.64-1.23,3.02-1.75,4.15a10.209,10.209,0,0,0-.93,3.05,4.408,4.408,0,0,0,.38,2.33,3.926,3.926,0,0,0,1.25,1.47,4.986,4.986,0,0,0,1.65.78,6.349,6.349,0,0,0,1.57.22h0.25a0.534,0.534,0,0,1,.2-0.05h0.2Zm36.33-15.12c-0.85.98-1.78,2.02-2.78,3.1s-2.06,2.16-3.17,3.22a32.31,32.31,0,0,1-3.4,2.85,19.621,19.621,0,0,1-3.43,2.03,7.738,7.738,0,0,1-3.25.77,1.105,1.105,0,0,1-1.02-.52,2.449,2.449,0,0,1-.3-1.4,9.115,9.115,0,0,1,.32-2.05c0.2-.78.47-1.63,0.8-2.53a6.8,6.8,0,0,0,1.43.38,11.635,11.635,0,0,0,1.77.12,6.351,6.351,0,0,0,3.35-1,14.916,14.916,0,0,0,3-2.37,14.6,14.6,0,0,0,2.23-2.9,6.725,6.725,0,0,0,.97-2.58,5.519,5.519,0,0,0-.47-2.35,9.541,9.541,0,0,0-1.45-2.42,8.115,8.115,0,0,0-2.23-1.88,5.3,5.3,0,0,0-2.7-.75,5.149,5.149,0,0,0-2.45.75,14.007,14.007,0,0,0-2.72,2.03,21.531,21.531,0,0,0-2.68,3.05,32.061,32.061,0,0,0-2.37,3.8,25.667,25.667,0,0,0-1.8,4.27,21.2,21.2,0,0,0-.93,4.5,3.319,3.319,0,0,0,.63,2.05,10.184,10.184,0,0,0,1.87,2.18,11.331,11.331,0,0,0,2.53,1.7,5.92,5.92,0,0,0,2.62.67,8.155,8.155,0,0,0,3.63-.95,21.635,21.635,0,0,0,3.85-2.47,44.593,44.593,0,0,0,3.75-3.35q1.815-1.83,3.35-3.6c1.01-1.18,1.9-2.27,2.65-3.25s1.31-1.73,1.67-2.23a0.97,0.97,0,0,0,.08-0.55,3.119,3.119,0,0,0-.15-0.75,0.8,0.8,0,0,0-.38-0.47,0.543,0.543,0,0,0-.6.32Q1287.515,5215.92,1286.24,5217.39Zm-7.65-5.5a6.178,6.178,0,0,1-1,2.45,12.724,12.724,0,0,1-2.35,2.67,7.742,7.742,0,0,1-3.43,1.75q0.81-1.545,1.65-3a29.743,29.743,0,0,1,1.68-2.55,12.306,12.306,0,0,1,1.55-1.75,2.08,2.08,0,0,1,1.27-.65Q1278.71,5210.81,1278.59,5211.89Zm18.95,5.95c-0.69.98-1.39,1.98-2.13,3s-1.47,2.02-2.22,3-1.46,1.85-2.13,2.6a15.566,15.566,0,0,1-1.85,1.82,2.4,2.4,0,0,1-1.35.7c-0.36,0-.5-0.33-0.4-1,0.3-.93.69-2.09,1.18-3.47s1.01-2.88,1.57-4.5,1.17-3.31,1.8-5.08,1.25-3.5,1.85-5.22,1.19-3.38,1.75-4.98,1.06-3.02,1.48-4.27,0.75-2.29,1-3.13a13.326,13.326,0,0,0,.42-1.6,1.741,1.741,0,0,0-.42-1.15,7.438,7.438,0,0,0-1.25-1.27,13.438,13.438,0,0,0-1.68-1.15,9.174,9.174,0,0,0-1.7-.8,2.863,2.863,0,0,0-1.35-.18,0.7,0.7,0,0,0-.6.7,41.017,41.017,0,0,1-1.12,6.63c-0.59,2.35-1.26,4.72-2.03,7.1s-1.57,4.72-2.42,7-1.64,4.37-2.35,6.25-1.33,3.52-1.83,4.9a12.527,12.527,0,0,0-.8,2.97,4.8,4.8,0,0,0,.33,2.53,5.367,5.367,0,0,0,1.15,1.67,4.24,4.24,0,0,0,2.67,1.2,6.449,6.449,0,0,0,3.2-.9,16.313,16.313,0,0,0,3.13-2.32,31.624,31.624,0,0,0,2.92-3.15c0.94-1.15,1.79-2.28,2.58-3.4s1.46-2.15,2.05-3.1,1.04-1.69,1.37-2.23a1.947,1.947,0,0,0,.13-0.72,3.433,3.433,0,0,0-.1-0.98,0.98,0.98,0,0,0-.38-0.6c-0.16-.1-0.38.05-0.65,0.45C1298.83,5215.96,1298.22,5216.86,1297.54,5217.84Z" transform="translate(-1021.78 -5129.13)"/>
</svg>
