<svg xmlns="http://www.w3.org/2000/svg" width="302.219" height="126.66" viewBox="0 0 302.219 126.66">
  <defs>
    <style>
      .cls-1 {
        fill: #333332;
      }
    </style>
  </defs>
  <path id="We_are_Creative_Agency" data-name="We are Creative Agency" class="cls-1" d="M277.772,1218.94q-0.651,1.92-1.75,4.8c-0.734,1.92-1.6,4.03-2.6,6.35s-2.075,4.67-3.225,7.05-2.35,4.7-3.6,6.95a66.825,66.825,0,0,1-3.725,6,25.175,25.175,0,0,1-3.6,4.2,5.036,5.036,0,0,1-3.2,1.57,1.525,1.525,0,0,1-.825-0.17,0.911,0.911,0,0,1-.375-0.43,1.226,1.226,0,0,1-.15-0.65,12.027,12.027,0,0,1,.625-3.22q0.624-2.07,1.525-4.58,0.9-2.49,2-5.22t2-5.23q0.9-2.49,1.525-4.52a11.531,11.531,0,0,0,.625-3.08,2.1,2.1,0,0,0-1.025-1.57,7.734,7.734,0,0,0-2.225-1.18,5.616,5.616,0,0,0-2.225-.3,0.956,0.956,0,0,0-1.025,1,18.4,18.4,0,0,1-.175,2.55c-0.118.84-.275,1.67-0.475,2.5q-0.45,1.05-1.425,3.18t-2.275,4.65c-0.868,1.68-1.8,3.42-2.8,5.2s-2.009,3.41-3.025,4.87a23.855,23.855,0,0,1-2.975,3.6,4.039,4.039,0,0,1-2.65,1.4,1.347,1.347,0,0,1-.825-0.2,1,1,0,0,1-.375-0.45,1.226,1.226,0,0,1-.15-0.65,11.617,11.617,0,0,1,.85-3.5q0.849-2.34,2.1-5.3,1.248-2.94,2.75-6.2,1.5-3.24,2.75-6.15,1.248-2.895,2.1-5.22a11.414,11.414,0,0,0,.85-3.38,7.649,7.649,0,0,0-.775-3.42,8.243,8.243,0,0,0-2.175-2.73,10.224,10.224,0,0,0-3.35-1.77,13.932,13.932,0,0,0-4.3-.63,24.4,24.4,0,0,0-6.75.95,33.449,33.449,0,0,0-15.7,9.9,20.179,20.179,0,0,0-2.725,3.88,7.319,7.319,0,0,0-.975,3.27,10.4,10.4,0,0,0,.9,4.53,10.571,10.571,0,0,0,1.95,2.92,4.488,4.488,0,0,0,1.95,1.28c0.6,0.15.9,0.01,0.9-.43a0.824,0.824,0,0,0-.15-0.5,5.658,5.658,0,0,1-.35-0.52,3.454,3.454,0,0,1-.35-0.88,6.427,6.427,0,0,1-.15-1.6,12.567,12.567,0,0,1,1-4.75,22.207,22.207,0,0,1,2.7-4.75,30.7,30.7,0,0,1,3.9-4.32,32.859,32.859,0,0,1,4.6-3.55,24.449,24.449,0,0,1,4.8-2.4,13.148,13.148,0,0,1,4.45-.88,2.971,2.971,0,0,1,1.45.33,3.025,3.025,0,0,1,.975.82,3.1,3.1,0,0,1,.525,1.1,4.586,4.586,0,0,1,.15,1.1,21.419,21.419,0,0,1-.75,5.35,57.556,57.556,0,0,1-1.9,5.95q-1.152,3.06-2.45,6-1.3,2.955-2.45,5.45t-1.9,4.4a8.744,8.744,0,0,0-.75,2.8,6.792,6.792,0,0,0,.65,2.9,8.489,8.489,0,0,0,4.425,4.25,8.02,8.02,0,0,0,3.225.65,2.989,2.989,0,0,0,1.7-.62,12.04,12.04,0,0,0,1.875-1.68,25.262,25.262,0,0,0,1.95-2.4q0.975-1.35,1.875-2.85a10.15,10.15,0,0,0,.5,2.83,8.394,8.394,0,0,0,1.225,2.42,6.264,6.264,0,0,0,1.825,1.68,4.377,4.377,0,0,0,2.3.62,11.993,11.993,0,0,0,6.7-2.27,35.145,35.145,0,0,0,6.575-5.83,61.786,61.786,0,0,0,5.95-7.87,89.129,89.129,0,0,0,4.825-8.45,67.866,67.866,0,0,0,3.25-7.53,17.044,17.044,0,0,0,1.2-5.1,4.529,4.529,0,0,0-.725-2.27,8.854,8.854,0,0,0-1.625-2.05,5.03,5.03,0,0,0-1.625-1.08c-0.484-.16-0.725.05-0.725,0.65A11.013,11.013,0,0,1,277.772,1218.94Zm16.924,24.45c-0.85.98-1.775,2.02-2.775,3.1s-2.059,2.16-3.175,3.22a32.007,32.007,0,0,1-3.4,2.85,19.846,19.846,0,0,1-3.425,2.03,7.776,7.776,0,0,1-3.25.77,1.113,1.113,0,0,1-1.025-.52,2.5,2.5,0,0,1-.3-1.4,9.512,9.512,0,0,1,.325-2.05,25.594,25.594,0,0,1,.8-2.53,6.69,6.69,0,0,0,1.425.38,11.7,11.7,0,0,0,1.775.12,6.369,6.369,0,0,0,3.35-1,14.916,14.916,0,0,0,3-2.37,14.344,14.344,0,0,0,2.225-2.9,6.815,6.815,0,0,0,.975-2.58,5.639,5.639,0,0,0-.475-2.35,9.37,9.37,0,0,0-1.45-2.42,8.108,8.108,0,0,0-2.225-1.88,5.333,5.333,0,0,0-2.7-.75,5.136,5.136,0,0,0-2.45.75,14.213,14.213,0,0,0-2.725,2.03,21.45,21.45,0,0,0-2.675,3.05,30.84,30.84,0,0,0-2.375,3.8,26.183,26.183,0,0,0-1.8,4.27,20.582,20.582,0,0,0-.925,4.5,3.247,3.247,0,0,0,.625,2.05,10.1,10.1,0,0,0,1.875,2.18,11.3,11.3,0,0,0,2.525,1.7,5.947,5.947,0,0,0,2.625.67,8.138,8.138,0,0,0,3.625-.95,21.318,21.318,0,0,0,3.85-2.47,43.672,43.672,0,0,0,3.75-3.35q1.824-1.83,3.35-3.6c1.016-1.18,1.9-2.27,2.65-3.25s1.308-1.73,1.675-2.23a0.962,0.962,0,0,0,.075-0.55,2.854,2.854,0,0,0-.15-0.75,0.789,0.789,0,0,0-.375-0.47,0.536,0.536,0,0,0-.6.32Q295.97,1241.92,294.7,1243.39Zm-7.65-5.5a6.047,6.047,0,0,1-1,2.45,12.472,12.472,0,0,1-2.35,2.67,7.692,7.692,0,0,1-3.425,1.75q0.8-1.545,1.65-3a28.842,28.842,0,0,1,1.675-2.55,12.688,12.688,0,0,1,1.55-1.75,2.081,2.081,0,0,1,1.275-.65Q287.171,1236.81,287.046,1237.89Zm41.648,5.87c-0.717,1-1.467,2.04-2.25,3.1s-1.583,2.1-2.4,3.1-1.592,1.9-2.325,2.7a20.352,20.352,0,0,1-1.975,1.93,2.539,2.539,0,0,1-1.425.72c-0.433,0-.517-0.43-0.25-1.3q0.6-1.74,1.575-4.35t1.925-5.15q0.95-2.55,1.65-4.57a13.915,13.915,0,0,0,.75-2.68,2.268,2.268,0,0,0-.75-1.62,8.118,8.118,0,0,0-1.8-1.48,4.256,4.256,0,0,0-1.9-.65,0.8,0.8,0,0,0-.95.85,15.862,15.862,0,0,1-1.1,3.1,18.282,18.282,0,0,0-1.325-1.47,11.676,11.676,0,0,0-1.75-1.43,10.146,10.146,0,0,0-2.125-1.07,7.238,7.238,0,0,0-2.5-.43,3.415,3.415,0,0,0-2.2,1.13,19,19,0,0,0-2.45,2.9,44.37,44.37,0,0,0-2.45,3.92c-0.8,1.44-1.516,2.85-2.15,4.25s-1.157,2.69-1.575,3.85a12.969,12.969,0,0,0-.725,2.7,4.1,4.1,0,0,0,.625,2.55,7.168,7.168,0,0,0,1.85,1.98,9.125,9.125,0,0,0,2.425,1.27,7.153,7.153,0,0,0,2.3.45,2.08,2.08,0,0,0,1.125-.47,11.325,11.325,0,0,0,1.475-1.28c0.533-.53,1.092-1.14,1.675-1.82s1.175-1.41,1.775-2.18c-0.1.37-.175,0.69-0.225,0.95s-0.092.52-.125,0.75a2.7,2.7,0,0,0,.65,2.15,4.9,4.9,0,0,0,1.8,1.23,9.193,9.193,0,0,0,2.05.57,11.092,11.092,0,0,0,1.4.15h0.3a5.84,5.84,0,0,0,2.525-1.1,19.151,19.151,0,0,0,2.8-2.4,39.627,39.627,0,0,0,2.8-3.17c0.917-1.15,1.775-2.28,2.575-3.38s1.508-2.1,2.125-3.02,1.092-1.64,1.425-2.18a1.54,1.54,0,0,0,.125-0.67,3.11,3.11,0,0,0-.1-0.98,0.959,0.959,0,0,0-.375-0.6q-0.25-.15-0.65.45Q329.77,1242.26,328.694,1243.76Zm-23.525,10a18.049,18.049,0,0,1,.875-3.12q0.675-1.875,1.675-4.08a45.123,45.123,0,0,1,2.1-4.07,23.376,23.376,0,0,1,2.15-3.13,2.811,2.811,0,0,1,1.75-1.25,5.989,5.989,0,0,1,1.775.25,10.24,10.24,0,0,1,1.375.55q-0.251.6-.525,1.23t-0.525,1.32q-0.55.9-1.4,2.25t-1.85,2.85q-1,1.5-2.05,3t-2.025,2.73a20.31,20.31,0,0,1-1.75,1.97,2.142,2.142,0,0,1-1.225.75C305.152,1255.01,305.036,1254.6,305.169,1253.76Zm38.774-9.85q-1.024,1.6-2.125,3.33c-0.733,1.15-1.475,2.28-2.225,3.4s-1.458,2.12-2.125,3a21.18,21.18,0,0,1-1.825,2.15,2.238,2.238,0,0,1-1.375.82c-0.433,0-.517-0.46-0.25-1.4,0.333-.96.742-2.1,1.225-3.4s0.95-2.58,1.4-3.85,0.85-2.41,1.2-3.45a10.915,10.915,0,0,0,.575-2.15,3.589,3.589,0,0,0-.475-2.25,6.221,6.221,0,0,0-1.5-1.6,18.765,18.765,0,0,0-2.05-1.32,15.774,15.774,0,0,1-2.075-1.38,43.205,43.205,0,0,0,2.125-4.62,16.769,16.769,0,0,0,1.125-4.58,6.308,6.308,0,0,0-.475-3.82,2.134,2.134,0,0,0-1.825-1.13,6.242,6.242,0,0,0-2.475.68,11.821,11.821,0,0,0-2.875,1.9,13.912,13.912,0,0,0-2.475,2.87,7.565,7.565,0,0,0-1.225,3.6,7.924,7.924,0,0,0,.175,2.8,7.415,7.415,0,0,0,.95,2.15,7.109,7.109,0,0,0,1.475,1.65c0.567,0.47,1.133.9,1.7,1.3-0.4.57-.75,1.1-1.05,1.58a12.336,12.336,0,0,1-.85,1.22,0.807,0.807,0,0,0-.075.6,2.163,2.163,0,0,0,.275.68,1.334,1.334,0,0,0,.45.47,0.256,0.256,0,0,0,.4-0.1c0.267-.36.625-0.85,1.075-1.45s0.908-1.26,1.375-2a7.757,7.757,0,0,1,1.55,1.38,2.025,2.025,0,0,1,.45,1.57,7.573,7.573,0,0,1-.8,2.35q-0.75,1.6-1.65,3.45c-0.6,1.24-1.167,2.47-1.7,3.7a10.291,10.291,0,0,0-.9,3.2,2.7,2.7,0,0,0,.65,2.15,5.2,5.2,0,0,0,1.8,1.25,8.352,8.352,0,0,0,2.05.6,11.092,11.092,0,0,0,1.4.15,0.477,0.477,0,0,0,.175-0.02,0.353,0.353,0,0,1,.125-0.03,5.2,5.2,0,0,0,2.475-1.2,18.6,18.6,0,0,0,2.65-2.62q1.325-1.575,2.625-3.45t2.425-3.65c0.75-1.18,1.408-2.28,1.975-3.28s1.017-1.75,1.35-2.25a1.54,1.54,0,0,0,.125-0.67,3.11,3.11,0,0,0-.1-0.98,0.959,0.959,0,0,0-.375-0.6q-0.251-.15-0.65.45C345.235,1241.91,344.626,1242.85,343.943,1243.91Zm-13.6-15.5a16.86,16.86,0,0,1,.775-2.17,8.958,8.958,0,0,1,.975-1.73,1.411,1.411,0,0,1,.975-0.7,0.843,0.843,0,0,1,.8.55,4.943,4.943,0,0,1,.1,2.15,13.91,13.91,0,0,1-.975,3.9,35.034,35.034,0,0,1-1.925,4.1,5.136,5.136,0,0,1-.9-1.72,6.151,6.151,0,0,1-.2-2.28A9.686,9.686,0,0,1,330.343,1228.41Zm31.25,14.98c-0.85.98-1.775,2.02-2.775,3.1s-2.059,2.16-3.175,3.22a32.108,32.108,0,0,1-3.4,2.85,19.884,19.884,0,0,1-3.425,2.03,7.779,7.779,0,0,1-3.25.77,1.112,1.112,0,0,1-1.025-.52,2.482,2.482,0,0,1-.3-1.4,9.512,9.512,0,0,1,.325-2.05,25.594,25.594,0,0,1,.8-2.53,6.658,6.658,0,0,0,1.425.38,11.686,11.686,0,0,0,1.775.12,6.372,6.372,0,0,0,3.35-1,14.916,14.916,0,0,0,3-2.37,14.344,14.344,0,0,0,2.225-2.9,6.85,6.85,0,0,0,.975-2.58,5.655,5.655,0,0,0-.475-2.35,9.37,9.37,0,0,0-1.45-2.42,8.123,8.123,0,0,0-2.225-1.88,5.338,5.338,0,0,0-2.7-.75,5.136,5.136,0,0,0-2.45.75,14.213,14.213,0,0,0-2.725,2.03,21.387,21.387,0,0,0-2.675,3.05,30.721,30.721,0,0,0-2.375,3.8,26.183,26.183,0,0,0-1.8,4.27,20.582,20.582,0,0,0-.925,4.5,3.247,3.247,0,0,0,.625,2.05,10.1,10.1,0,0,0,1.875,2.18,11.278,11.278,0,0,0,2.525,1.7,5.947,5.947,0,0,0,2.625.67,8.142,8.142,0,0,0,3.625-.95,21.353,21.353,0,0,0,3.85-2.47,43.974,43.974,0,0,0,3.75-3.35q1.824-1.83,3.35-3.6c1.016-1.18,1.9-2.27,2.65-3.25s1.307-1.73,1.675-2.23a0.962,0.962,0,0,0,.075-0.55,2.937,2.937,0,0,0-.15-0.75,0.789,0.789,0,0,0-.375-0.47,0.536,0.536,0,0,0-.6.32Q362.867,1241.92,361.593,1243.39Zm-7.65-5.5a6.061,6.061,0,0,1-1,2.45,12.5,12.5,0,0,1-2.35,2.67,7.692,7.692,0,0,1-3.425,1.75q0.8-1.545,1.65-3a28.842,28.842,0,0,1,1.675-2.55,12.688,12.688,0,0,1,1.55-1.75,2.076,2.076,0,0,1,1.275-.65C353.818,1236.81,354.025,1237.17,353.943,1237.89ZM254.6,1276.66a4.42,4.42,0,0,0-3.825-1.55,12.189,12.189,0,0,0-6.05,1.85,29.709,29.709,0,0,0-6.2,4.9,48.825,48.825,0,0,0-5.625,6.95,47.757,47.757,0,0,0-4.35,7.95,33.163,33.163,0,0,0-2.325,7.95,14.424,14.424,0,0,0,.45,6.95,9.289,9.289,0,0,0,3.925,4.9c1.916,1.24,4.625,1.85,8.125,1.85a13.253,13.253,0,0,0,4.65-.85,24.052,24.052,0,0,0,4.425-2.17,26.437,26.437,0,0,0,3.95-3,32.829,32.829,0,0,0,3.175-3.33,20.891,20.891,0,0,0,2.15-3.1,5.917,5.917,0,0,0,.85-2.4,2.078,2.078,0,0,0-.25-0.97,3.191,3.191,0,0,0-.55-0.78,1.2,1.2,0,0,0-.575-0.35c-0.184-.03-0.275.07-0.275,0.3a4.235,4.235,0,0,1-.65,1.68,19.819,19.819,0,0,1-1.825,2.65,34.568,34.568,0,0,1-2.8,3.07,25.961,25.961,0,0,1-3.55,2.93,19.75,19.75,0,0,1-4.125,2.17,12.329,12.329,0,0,1-4.5.85,4.485,4.485,0,0,1-3.8-1.55,7,7,0,0,1-1.325-4.05,19.431,19.431,0,0,1,.7-5.72,46.835,46.835,0,0,1,2.25-6.6,58.036,58.036,0,0,1,3.3-6.6,43.636,43.636,0,0,1,3.925-5.73,25.672,25.672,0,0,1,4.075-4.05,6.384,6.384,0,0,1,3.775-1.55,0.53,0.53,0,0,1,.6.6,4.828,4.828,0,0,1-.375,1.6c-0.25.67-.584,1.44-1,2.3s-0.825,1.76-1.225,2.68-0.75,1.83-1.05,2.75a9.4,9.4,0,0,0-.5,2.47,4.931,4.931,0,0,0,.475,2.7,4.35,4.35,0,0,0,1.3,1.55,2.366,2.366,0,0,0,1.35.5c0.416,0,.625-0.15.625-0.45a9.274,9.274,0,0,1,.275-1.87q0.273-1.23.675-2.7c0.266-.98.557-2,0.875-3.05s0.607-2.04.875-2.98,0.482-1.75.65-2.47,0.266-1.23.3-1.53A7.4,7.4,0,0,0,254.6,1276.66Zm14.049,27.25q-1.024,1.6-2.125,3.33c-0.733,1.15-1.475,2.28-2.225,3.4s-1.458,2.12-2.125,3a21.18,21.18,0,0,1-1.825,2.15,2.238,2.238,0,0,1-1.375.82c-0.433,0-.517-0.46-0.25-1.4,0.333-.96.742-2.1,1.225-3.4s0.95-2.58,1.4-3.85,0.85-2.41,1.2-3.45a10.915,10.915,0,0,0,.575-2.15,3.589,3.589,0,0,0-.475-2.25,6.221,6.221,0,0,0-1.5-1.6,18.765,18.765,0,0,0-2.05-1.32,15.774,15.774,0,0,1-2.075-1.38,43.205,43.205,0,0,0,2.125-4.62,16.769,16.769,0,0,0,1.125-4.58,6.308,6.308,0,0,0-.475-3.82,2.134,2.134,0,0,0-1.825-1.13,6.242,6.242,0,0,0-2.475.68,11.821,11.821,0,0,0-2.875,1.9,13.912,13.912,0,0,0-2.475,2.87,7.565,7.565,0,0,0-1.225,3.6,7.924,7.924,0,0,0,.175,2.8,7.388,7.388,0,0,0,.95,2.15,7.132,7.132,0,0,0,1.475,1.65c0.567,0.47,1.133.9,1.7,1.3-0.4.57-.75,1.1-1.05,1.58a12.508,12.508,0,0,1-.85,1.22,0.807,0.807,0,0,0-.075.6,2.163,2.163,0,0,0,.275.68,1.334,1.334,0,0,0,.45.47,0.256,0.256,0,0,0,.4-0.1c0.267-.36.625-0.85,1.075-1.45s0.908-1.26,1.375-2a7.757,7.757,0,0,1,1.55,1.38,2.025,2.025,0,0,1,.45,1.57,7.573,7.573,0,0,1-.8,2.35q-0.75,1.6-1.65,3.45c-0.6,1.24-1.167,2.47-1.7,3.7a10.291,10.291,0,0,0-.9,3.2,2.7,2.7,0,0,0,.65,2.15,5.2,5.2,0,0,0,1.8,1.25,8.352,8.352,0,0,0,2.05.6,11.092,11.092,0,0,0,1.4.15,0.477,0.477,0,0,0,.175-0.02,0.353,0.353,0,0,1,.125-0.03,5.2,5.2,0,0,0,2.475-1.2,18.6,18.6,0,0,0,2.65-2.62q1.324-1.575,2.625-3.45t2.425-3.65c0.75-1.18,1.408-2.28,1.975-3.28s1.017-1.75,1.35-2.25a1.54,1.54,0,0,0,.125-0.67,3.11,3.11,0,0,0-.1-0.98,0.959,0.959,0,0,0-.375-0.6q-0.25-.15-0.65.45C269.938,1301.91,269.329,1302.85,268.646,1303.91Zm-13.6-15.5a16.86,16.86,0,0,1,.775-2.17,8.958,8.958,0,0,1,.975-1.73,1.411,1.411,0,0,1,.975-0.7,0.843,0.843,0,0,1,.8.55,4.943,4.943,0,0,1,.1,2.15,13.91,13.91,0,0,1-.975,3.9,35.034,35.034,0,0,1-1.925,4.1,5.136,5.136,0,0,1-.9-1.72,6.151,6.151,0,0,1-.2-2.28A9.686,9.686,0,0,1,255.046,1288.41Zm31.25,14.98c-0.85.98-1.775,2.02-2.775,3.1s-2.059,2.16-3.175,3.22a32.108,32.108,0,0,1-3.4,2.85,19.884,19.884,0,0,1-3.425,2.03,7.779,7.779,0,0,1-3.25.77,1.112,1.112,0,0,1-1.025-.52,2.482,2.482,0,0,1-.3-1.4,9.512,9.512,0,0,1,.325-2.05,25.594,25.594,0,0,1,.8-2.53,6.658,6.658,0,0,0,1.425.38,11.686,11.686,0,0,0,1.775.12,6.372,6.372,0,0,0,3.35-1,14.916,14.916,0,0,0,3-2.37,14.344,14.344,0,0,0,2.225-2.9,6.85,6.85,0,0,0,.975-2.58,5.655,5.655,0,0,0-.475-2.35,9.37,9.37,0,0,0-1.45-2.42,8.123,8.123,0,0,0-2.225-1.88,5.338,5.338,0,0,0-2.7-.75,5.136,5.136,0,0,0-2.45.75,14.213,14.213,0,0,0-2.725,2.03,21.387,21.387,0,0,0-2.675,3.05,30.721,30.721,0,0,0-2.375,3.8,26.183,26.183,0,0,0-1.8,4.27,20.582,20.582,0,0,0-.925,4.5,3.247,3.247,0,0,0,.625,2.05,10.1,10.1,0,0,0,1.875,2.18,11.278,11.278,0,0,0,2.525,1.7,5.947,5.947,0,0,0,2.625.67,8.142,8.142,0,0,0,3.625-.95,21.353,21.353,0,0,0,3.85-2.47,43.974,43.974,0,0,0,3.75-3.35q1.824-1.83,3.35-3.6c1.016-1.18,1.9-2.27,2.65-3.25s1.307-1.73,1.675-2.23a0.962,0.962,0,0,0,.075-0.55,2.937,2.937,0,0,0-.15-0.75,0.789,0.789,0,0,0-.375-0.47,0.536,0.536,0,0,0-.6.32Q287.57,1301.92,286.3,1303.39Zm-7.65-5.5a6.061,6.061,0,0,1-1,2.45,12.5,12.5,0,0,1-2.35,2.67,7.692,7.692,0,0,1-3.425,1.75q0.8-1.545,1.65-3a28.842,28.842,0,0,1,1.675-2.55,12.688,12.688,0,0,1,1.55-1.75,2.076,2.076,0,0,1,1.275-.65C278.521,1296.81,278.728,1297.17,278.646,1297.89Zm29.1,5.87c-0.718,1-1.468,2.04-2.25,3.1s-1.584,2.1-2.4,3.1-1.593,1.9-2.325,2.7a20.582,20.582,0,0,1-1.975,1.93,2.545,2.545,0,0,1-1.425.72c-0.434,0-.518-0.43-0.25-1.3q0.6-1.74,1.575-4.35t1.925-5.15q0.948-2.55,1.65-4.57a14.072,14.072,0,0,0,.75-2.68,2.277,2.277,0,0,0-.75-1.62,8.164,8.164,0,0,0-1.8-1.48,4.26,4.26,0,0,0-1.9-.65,0.8,0.8,0,0,0-.95.85,16.005,16.005,0,0,1-1.1,3.1,18.672,18.672,0,0,0-1.325-1.47,11.727,11.727,0,0,0-1.75-1.43,10.17,10.17,0,0,0-2.125-1.07,7.242,7.242,0,0,0-2.5-.43,3.413,3.413,0,0,0-2.2,1.13,18.942,18.942,0,0,0-2.45,2.9,44.138,44.138,0,0,0-2.45,3.92c-0.8,1.44-1.517,2.85-2.15,4.25s-1.158,2.69-1.575,3.85a12.843,12.843,0,0,0-.725,2.7,4.09,4.09,0,0,0,.625,2.55,7.153,7.153,0,0,0,1.85,1.98,9.11,9.11,0,0,0,2.425,1.27,7.143,7.143,0,0,0,2.3.45,2.08,2.08,0,0,0,1.125-.47,11.391,11.391,0,0,0,1.475-1.28c0.532-.53,1.091-1.14,1.675-1.82s1.175-1.41,1.775-2.18c-0.1.37-.175,0.69-0.225,0.95s-0.093.52-.125,0.75a2.7,2.7,0,0,0,.65,2.15,4.9,4.9,0,0,0,1.8,1.23,9.179,9.179,0,0,0,2.05.57,11.056,11.056,0,0,0,1.4.15h0.3a5.85,5.85,0,0,0,2.525-1.1,19.2,19.2,0,0,0,2.8-2.4,39.825,39.825,0,0,0,2.8-3.17c0.916-1.15,1.775-2.28,2.575-3.38s1.507-2.1,2.125-3.02,1.091-1.64,1.425-2.18a1.571,1.571,0,0,0,.125-0.67,3.17,3.17,0,0,0-.1-0.98,0.968,0.968,0,0,0-.375-0.6q-0.252-.15-0.65.45Q308.82,1302.26,307.746,1303.76Zm-23.525,10a17.959,17.959,0,0,1,.875-3.12q0.675-1.875,1.675-4.08a44.612,44.612,0,0,1,2.1-4.07,23.283,23.283,0,0,1,2.15-3.13,2.808,2.808,0,0,1,1.75-1.25,6,6,0,0,1,1.775.25,10.294,10.294,0,0,1,1.375.55q-0.252.6-.525,1.23t-0.525,1.32q-0.552.9-1.4,2.25t-1.85,2.85q-1,1.5-2.05,3t-2.025,2.73a20.444,20.444,0,0,1-1.75,1.97,2.145,2.145,0,0,1-1.225.75C284.2,1315.01,284.087,1314.6,284.221,1313.76Zm36.15-27.55c-0.8.07-1.618,0.15-2.45,0.25,0.466-1.26.825-2.33,1.075-3.2a16.288,16.288,0,0,0,.425-1.65,1.761,1.761,0,0,0-.425-1.15,7.152,7.152,0,0,0-1.25-1.27,13.234,13.234,0,0,0-1.675-1.15,8.622,8.622,0,0,0-1.7-.78,3.078,3.078,0,0,0-1.35-.15,0.691,0.691,0,0,0-.6.7,43.289,43.289,0,0,1-.675,4.45q-0.477,2.355-1.175,4.9c-0.5,0-1.018.01-1.55,0.03s-1.118.02-1.75,0.02a11.033,11.033,0,0,1-2.425-.22,7.8,7.8,0,0,1-1.6-.53,9.439,9.439,0,0,1-.975-0.52,1.165,1.165,0,0,0-.55-0.23q-0.5,0-.525.9a4.859,4.859,0,0,0,.4,1.95,5.711,5.711,0,0,0,1.35,1.95,3.264,3.264,0,0,0,2.375.9c0.466,0,1.05-.03,1.75-0.1s1.466-.15,2.3-0.25q-1.2,3.81-2.575,7.5t-2.55,6.8q-1.174,3.105-1.975,5.38a17.438,17.438,0,0,0-.9,3.17,2.7,2.7,0,0,0,.65,2.15,5.2,5.2,0,0,0,1.8,1.25,8.352,8.352,0,0,0,2.05.6,11.056,11.056,0,0,0,1.4.15,0.479,0.479,0,0,0,.175-0.02,0.464,0.464,0,0,1,.175-0.03,5.079,5.079,0,0,0,2.5-1.07,23.088,23.088,0,0,0,2.775-2.4,37.773,37.773,0,0,0,2.8-3.15c0.916-1.15,1.782-2.28,2.6-3.38s1.532-2.1,2.15-3.02,1.091-1.64,1.425-2.18a2.018,2.018,0,0,0,.125-0.72,3.17,3.17,0,0,0-.1-0.98,0.968,0.968,0,0,0-.375-0.6q-0.252-.15-0.65.45-0.852,1.2-1.925,2.73c-0.718,1.02-1.468,2.05-2.25,3.1s-1.584,2.08-2.4,3.1-1.584,1.92-2.3,2.72a17.269,17.269,0,0,1-1.975,1.93,2.648,2.648,0,0,1-1.4.72c-0.468,0-.568-0.46-0.3-1.4,0.4-1.16.932-2.7,1.6-4.6s1.382-3.95,2.15-6.17,1.557-4.48,2.375-6.78,1.575-4.43,2.275-6.4c1.566-.26,2.975-0.48,4.225-0.65a24.816,24.816,0,0,1,2.725-.25,7.28,7.28,0,0,1,1.875.18,5.74,5.74,0,0,1,.975.35,2.084,2.084,0,0,1,.525.35,0.7,0.7,0,0,0,.525.17,0.571,0.571,0,0,0,.5-0.62,2.032,2.032,0,0,0-.325-1.35,4.089,4.089,0,0,0-1.5-1.35,6.152,6.152,0,0,0-3.075-.63C322.1,1286.11,321.171,1286.15,320.371,1286.21Zm9.549,17.55c-0.733,1-1.492,2.04-2.275,3.1s-1.583,2.1-2.4,3.1-1.592,1.9-2.325,2.7a18.56,18.56,0,0,1-2,1.93,2.641,2.641,0,0,1-1.45.72q-0.65,0-.25-1.35c0.267-.76.592-1.67,0.975-2.72s0.792-2.14,1.225-3.28,0.867-2.27,1.3-3.42,0.825-2.22,1.175-3.2,0.642-1.83.875-2.55a9.122,9.122,0,0,0,.4-1.53,2.243,2.243,0,0,0-.775-1.62,8.659,8.659,0,0,0-1.825-1.48,4.256,4.256,0,0,0-1.9-.65,0.8,0.8,0,0,0-.95.85,8.841,8.841,0,0,1-.6,1.9q-0.551,1.41-1.35,3.3-0.8,1.9-1.725,4.05c-0.616,1.44-1.2,2.83-1.75,4.18s-1.016,2.57-1.4,3.67a10.215,10.215,0,0,0-.625,2.55,2.7,2.7,0,0,0,.65,2.15,4.9,4.9,0,0,0,1.8,1.23,9.208,9.208,0,0,0,2.05.57,11.092,11.092,0,0,0,1.4.15h0.3a5.678,5.678,0,0,0,2.5-1.1,19.976,19.976,0,0,0,2.775-2.4,39.627,39.627,0,0,0,2.8-3.17c0.917-1.15,1.775-2.28,2.575-3.38s1.5-2.1,2.1-3.02,1.067-1.64,1.4-2.18a1.689,1.689,0,0,0,.15-0.67,3.813,3.813,0,0,0-.025-0.98,0.855,0.855,0,0,0-.3-0.6q-0.225-.15-0.625.45Q331.02,1302.26,329.92,1303.76Zm-2.875-13.87a6.817,6.817,0,0,0,1.625-1.55,8.955,8.955,0,0,0,1.125-1.95,7.138,7.138,0,0,0,.525-1.83,3,3,0,0,0-.8-2.47,3.313,3.313,0,0,0-2.4-.88,4.444,4.444,0,0,0-2.075.58,9.813,9.813,0,0,0-2.025,1.45,8.229,8.229,0,0,0-1.575,1.95,5.205,5.205,0,0,0-.725,2.07,2.011,2.011,0,0,0,.325,1.25,3.724,3.724,0,0,0,1,1.05,4.784,4.784,0,0,0,1.425.7,5.235,5.235,0,0,0,1.6.25A3.435,3.435,0,0,0,327.045,1289.89Zm1.825,28.62a0.488,0.488,0,0,1,.2-0.05,10.621,10.621,0,0,0,3.775-2.02,39.549,39.549,0,0,0,4.375-3.95,64.855,64.855,0,0,0,4.425-5.1q2.175-2.775,3.925-5.5a42.332,42.332,0,0,0,2.85-5.13,13.025,13.025,0,0,0,1.25-3.95,2.686,2.686,0,0,0-.325-1.4,3.094,3.094,0,0,0-.875-1.12,0.9,0.9,0,0,0-.975-0.15,1.788,1.788,0,0,0-.575,1.52,11.518,11.518,0,0,1-.9,2.8,45.987,45.987,0,0,1-2.075,4.23q-1.275,2.325-2.875,4.82t-3.175,4.55a25.885,25.885,0,0,1-3.025,3.38,4.086,4.086,0,0,1-2.5,1.32,0.762,0.762,0,0,1-.85-0.55,2.817,2.817,0,0,1,.1-1.45q0.7-2.04,1.525-4.32c0.55-1.52,1.05-2.95,1.5-4.3s0.833-2.52,1.15-3.5a12.083,12.083,0,0,0,.525-1.98,1.714,1.714,0,0,0-.45-1.15,8.452,8.452,0,0,0-1.25-1.27,11.783,11.783,0,0,0-1.65-1.15,8.6,8.6,0,0,0-1.7-.78,3.292,3.292,0,0,0-1.35-.17,0.649,0.649,0,0,0-.6.67,43.1,43.1,0,0,1-1.35,7.95,59.51,59.51,0,0,1-1.925,5.8c-0.65,1.64-1.233,3.02-1.75,4.15a10.272,10.272,0,0,0-.925,3.05,4.371,4.371,0,0,0,.375,2.33,3.926,3.926,0,0,0,1.25,1.47,4.931,4.931,0,0,0,1.65.78,6.361,6.361,0,0,0,1.575.22h0.25a0.488,0.488,0,0,1,.2-0.05h0.2Zm36.324-15.12c-0.85.98-1.775,2.02-2.775,3.1s-2.058,2.16-3.175,3.22a32.007,32.007,0,0,1-3.4,2.85,19.846,19.846,0,0,1-3.425,2.03,7.772,7.772,0,0,1-3.25.77,1.114,1.114,0,0,1-1.025-.52,2.5,2.5,0,0,1-.3-1.4,9.575,9.575,0,0,1,.325-2.05,25.863,25.863,0,0,1,.8-2.53,6.69,6.69,0,0,0,1.425.38,11.7,11.7,0,0,0,1.775.12,6.369,6.369,0,0,0,3.35-1,14.916,14.916,0,0,0,3-2.37,14.308,14.308,0,0,0,2.225-2.9,6.815,6.815,0,0,0,.975-2.58,5.639,5.639,0,0,0-.475-2.35,9.342,9.342,0,0,0-1.45-2.42,8.094,8.094,0,0,0-2.225-1.88,5.333,5.333,0,0,0-2.7-.75,5.139,5.139,0,0,0-2.45.75,14.244,14.244,0,0,0-2.725,2.03,21.512,21.512,0,0,0-2.675,3.05,30.84,30.84,0,0,0-2.375,3.8,26.36,26.36,0,0,0-1.8,4.27,20.641,20.641,0,0,0-.925,4.5,3.253,3.253,0,0,0,.625,2.05,10.156,10.156,0,0,0,1.875,2.18,11.3,11.3,0,0,0,2.525,1.7,5.953,5.953,0,0,0,2.625.67,8.135,8.135,0,0,0,3.625-.95,21.284,21.284,0,0,0,3.85-2.47,43.672,43.672,0,0,0,3.75-3.35q1.826-1.83,3.35-3.6c1.017-1.18,1.9-2.27,2.65-3.25s1.308-1.73,1.675-2.23a0.945,0.945,0,0,0,.075-0.55,2.854,2.854,0,0,0-.15-0.75,0.782,0.782,0,0,0-.375-0.47,0.536,0.536,0,0,0-.6.32Q366.47,1301.92,365.194,1303.39Zm-7.65-5.5a6.033,6.033,0,0,1-1,2.45,12.444,12.444,0,0,1-2.35,2.67,7.687,7.687,0,0,1-3.425,1.75q0.8-1.545,1.65-3a29.067,29.067,0,0,1,1.675-2.55,12.754,12.754,0,0,1,1.55-1.75,2.081,2.081,0,0,1,1.275-.65Q357.669,1296.81,357.544,1297.89Zm47.324-5.95q1.149-3.33,2.1-6c0.633-1.78,1.158-3.28,1.575-4.48a17.09,17.09,0,0,0,.675-2.2,2.546,2.546,0,0,0-.725-1.92,10.835,10.835,0,0,0-2-1.98,6.275,6.275,0,0,0-2.1-1.1,0.777,0.777,0,0,0-1.125.65,0.879,0.879,0,0,0-.05.35q-1.05,1.26-2.875,3.78c-1.217,1.68-2.617,3.62-4.2,5.8s-3.317,4.51-5.2,6.97-3.825,4.89-5.825,7.25c-1.8.3-3.509,0.57-5.125,0.8a35.188,35.188,0,0,1-4.225.4,13.228,13.228,0,0,1-2.95-.25c-0.7-.16-1.208-0.3-1.525-0.4a0.737,0.737,0,0,0-.625-0.02,1.83,1.83,0,0,0-.25.92,2.329,2.329,0,0,0,0,.98,3.506,3.506,0,0,0,.525,1.35,3.66,3.66,0,0,0,1.25,1.17,4.321,4.321,0,0,0,2.275.5,21.45,21.45,0,0,0,2.775-.22q1.674-.225,3.625-0.48-2.1,2.265-4.175,4.2a46.1,46.1,0,0,1-4.025,3.37,20.629,20.629,0,0,1-3.775,2.23,8.451,8.451,0,0,1-3.425.8,3.132,3.132,0,0,1-.9-0.12c-0.267-.08-0.508-0.15-0.725-0.2a1.019,1.019,0,0,0-.55,0,0.458,0.458,0,0,0-.275.42,1.637,1.637,0,0,0,.175.86,2.642,2.642,0,0,0,.875,1.01,5.708,5.708,0,0,0,1.75.84,9.55,9.55,0,0,0,2.8.34,8.446,8.446,0,0,0,3.925-1.17,26.853,26.853,0,0,0,4.55-3.18,58.052,58.052,0,0,0,4.875-4.65q2.5-2.64,4.95-5.6c1.333-.16,2.616-0.3,3.85-0.4s2.366-.16,3.4-0.2h0.8l-1.4,3.75q-0.651,1.755-1.125,3.18c-0.317.95-.584,1.77-0.8,2.45a8.345,8.345,0,0,0-.375,1.52,4.512,4.512,0,0,0,.15,2.48,3.57,3.57,0,0,0,1.075,1.45,3.718,3.718,0,0,0,1.425.7,5.45,5.45,0,0,0,1.25.17,4.639,4.639,0,0,0,2.25-.45,0.961,0.961,0,0,0,.7-0.9,2.434,2.434,0,0,1-.075-0.9,6.22,6.22,0,0,1,.125-1.1,44.281,44.281,0,0,1,.95-4.5c0.433-1.66.933-3.45,1.5-5.35a4.714,4.714,0,0,0,1.65-1.22,4.053,4.053,0,0,0,1.15-2.23,3.3,3.3,0,0,0,0-1.4,2.214,2.214,0,0,0-.85-1.25Q403.717,1295.265,404.868,1291.94Zm-10.925,5.75q-1.476.18-3.075,0.42,3.15-4.14,5.85-8.02t4.6-6.78q-1,3.45-2.2,7.08c-0.8,2.42-1.617,4.77-2.45,7.07C395.834,1297.5,394.926,1297.57,393.943,1297.69Zm36.874,4.85q-0.75,1.02-1.825,2.4c-0.717.92-1.508,1.92-2.375,3.02s-1.75,2.2-2.65,3.3-1.792,2.18-2.675,3.23-1.692,1.97-2.425,2.77q1.5-3.75,2.775-7.22t2.175-6.25q0.9-2.775,1.425-4.61c0.35-1.21.542-1.94,0.575-2.17a2.333,2.333,0,0,0-.775-1.65,7.815,7.815,0,0,0-1.825-1.48,4.663,4.663,0,0,0-1.9-.65,0.777,0.777,0,0,0-.95.83,23.43,23.43,0,0,1-.75,3.1,16.774,16.774,0,0,0-1.325-1.49,11.728,11.728,0,0,0-1.75-1.44,10.208,10.208,0,0,0-2.125-1.09,7.238,7.238,0,0,0-2.5-.43,3.3,3.3,0,0,0-2.175,1.16,19.027,19.027,0,0,0-2.4,2.98,40.345,40.345,0,0,0-2.375,4.08q-1.149,2.25-2.075,4.38a41.617,41.617,0,0,0-1.5,3.94,15.4,15.4,0,0,0-.675,2.75,4.149,4.149,0,0,0,.625,2.56,7.168,7.168,0,0,0,1.85,1.98,9.11,9.11,0,0,0,2.425,1.27,7.153,7.153,0,0,0,2.3.45,2.384,2.384,0,0,0,1.325-.67,15.4,15.4,0,0,0,1.775-1.75q0.95-1.08,1.975-2.43t1.975-2.7c-0.967,2.5-1.983,5.05-3.05,7.63s-2.15,5.04-3.25,7.37q-2.4,1.755-4.5,3.3c-1.4,1.04-2.632,2-3.7,2.9a19.543,19.543,0,0,0-2.55,2.53,4.273,4.273,0,0,0-1.05,2.12,6.246,6.246,0,0,0,.125,1.6,4.5,4.5,0,0,0,.725,1.7,4.212,4.212,0,0,0,1.525,1.33,5.438,5.438,0,0,0,2.575.52,6.053,6.053,0,0,0,3.825-1.65,22.315,22.315,0,0,0,3.9-4.4,58.093,58.093,0,0,0,3.8-6.32q1.875-3.57,3.575-7.43a1.3,1.3,0,0,1,.2-0.15,0.654,0.654,0,0,0,.2-0.15,23.87,23.87,0,0,0,2.55-2.5c1-1.1,2.058-2.3,3.175-3.62s2.233-2.68,3.35-4.08,2.133-2.7,3.05-3.9,1.683-2.21,2.3-3.05,0.992-1.35,1.125-1.55a1.54,1.54,0,0,0,.125-0.67,3.11,3.11,0,0,0-.1-0.98,0.959,0.959,0,0,0-.375-0.6q-0.25-.15-0.65.45C431.667,1301.38,431.317,1301.86,430.817,1302.54Zm-23.175,11.37a19.134,19.134,0,0,1,.8-3.22q0.625-1.92,1.6-4.2t2.025-4.2a25.337,25.337,0,0,1,2.05-3.23,2.681,2.681,0,0,1,1.7-1.3,6.253,6.253,0,0,1,1.9.28,0.948,0.948,0,0,1,1.2,1.45,6.343,6.343,0,0,0-.25.77c-0.3.5-.725,1.22-1.275,2.15s-1.167,1.96-1.85,3.08-1.4,2.25-2.15,3.4-1.467,2.19-2.15,3.12a21.159,21.159,0,0,1-1.9,2.3,2.427,2.427,0,0,1-1.325.9C407.65,1315.21,407.525,1314.78,407.642,1313.91Zm-8.075,23.6a1.079,1.079,0,0,1-.1-0.9q0.1-1.14,2.075-2.85t5.025-3.95a39.555,39.555,0,0,1-3.625,5.68c-1.15,1.45-2.157,2.17-3.025,2.17A0.619,0.619,0,0,1,399.567,1337.51Zm48.325-34.12c-0.85.98-1.775,2.02-2.775,3.1s-2.058,2.16-3.175,3.22a32.007,32.007,0,0,1-3.4,2.85,19.846,19.846,0,0,1-3.425,2.03,7.772,7.772,0,0,1-3.25.77,1.114,1.114,0,0,1-1.025-.52,2.5,2.5,0,0,1-.3-1.4,9.575,9.575,0,0,1,.325-2.05,25.863,25.863,0,0,1,.8-2.53,6.69,6.69,0,0,0,1.425.38,11.7,11.7,0,0,0,1.775.12,6.369,6.369,0,0,0,3.35-1,14.916,14.916,0,0,0,3-2.37,14.308,14.308,0,0,0,2.225-2.9,6.815,6.815,0,0,0,.975-2.58,5.639,5.639,0,0,0-.475-2.35,9.342,9.342,0,0,0-1.45-2.42,8.094,8.094,0,0,0-2.225-1.88,5.333,5.333,0,0,0-2.7-.75,5.139,5.139,0,0,0-2.45.75,14.244,14.244,0,0,0-2.725,2.03,21.512,21.512,0,0,0-2.675,3.05,30.961,30.961,0,0,0-2.375,3.8,26.36,26.36,0,0,0-1.8,4.27,20.7,20.7,0,0,0-.925,4.5,3.259,3.259,0,0,0,.625,2.05,10.156,10.156,0,0,0,1.875,2.18,11.323,11.323,0,0,0,2.525,1.7,5.953,5.953,0,0,0,2.625.67,8.135,8.135,0,0,0,3.625-.95,21.284,21.284,0,0,0,3.85-2.47,43.672,43.672,0,0,0,3.75-3.35q1.825-1.83,3.35-3.6c1.017-1.18,1.9-2.27,2.65-3.25s1.308-1.73,1.675-2.23a0.945,0.945,0,0,0,.075-0.55,2.854,2.854,0,0,0-.15-0.75,0.782,0.782,0,0,0-.375-0.47,0.536,0.536,0,0,0-.6.32Q449.167,1301.92,447.892,1303.39Zm-7.65-5.5a6.033,6.033,0,0,1-1,2.45,12.444,12.444,0,0,1-2.35,2.67,7.687,7.687,0,0,1-3.425,1.75q0.8-1.545,1.65-3a29.067,29.067,0,0,1,1.675-2.55,12.754,12.754,0,0,1,1.55-1.75,2.081,2.081,0,0,1,1.275-.65Q440.367,1296.81,440.242,1297.89Zm31.75,7.55q-1.725,2.475-3.5,4.75a50.331,50.331,0,0,1-3.3,3.87c-1.018,1.07-1.793,1.6-2.325,1.6-0.4,0-.5-0.36-0.3-1.1,0.266-.8.616-1.76,1.05-2.9s0.882-2.32,1.35-3.57,0.941-2.5,1.425-3.75,0.916-2.42,1.3-3.5,0.7-2.01.95-2.78a9.577,9.577,0,0,0,.425-1.6,1.8,1.8,0,0,0-.35-1.15,6.08,6.08,0,0,0-1.025-1.15,7.739,7.739,0,0,0-1.375-.95,4.81,4.81,0,0,0-1.35-.5,1.118,1.118,0,0,0-.4-0.05,0.6,0.6,0,0,0-.25.05,1.261,1.261,0,0,0-.4.2,9.315,9.315,0,0,0-1.825,1.43c-0.718.68-1.493,1.49-2.325,2.42s-1.7,1.95-2.6,3.03-1.759,2.15-2.575,3.2-1.584,2.03-2.3,2.95-1.309,1.69-1.775,2.32c0.466-1.2.941-2.41,1.425-3.65s0.925-2.37,1.325-3.42,0.725-1.97.975-2.75a10.2,10.2,0,0,0,.425-1.63,2.277,2.277,0,0,0-.75-1.62,7.941,7.941,0,0,0-1.825-1.48,4.416,4.416,0,0,0-1.925-.65,0.8,0.8,0,0,0-.95.85,11.882,11.882,0,0,1-.65,2.58q-0.552,1.575-1.325,3.42c-0.518,1.24-1.075,2.52-1.675,3.85s-1.167,2.6-1.7,3.8-0.983,2.3-1.35,3.3a8.849,8.849,0,0,0-.6,2.4,3.293,3.293,0,0,0,.65,2.33,6.552,6.552,0,0,0,3.7,2.37,1.564,1.564,0,0,0,1.25-.05,0.662,0.662,0,0,0,.25-0.7,3.3,3.3,0,0,1-.05-1.05,14.323,14.323,0,0,1,1.275-2.05c0.616-.86,1.357-1.83,2.225-2.9s1.8-2.19,2.8-3.37,1.991-2.34,2.975-3.48,1.916-2.2,2.8-3.2,1.641-1.83,2.275-2.5q-0.8,2.055-1.8,4.33c-0.668,1.52-1.293,2.97-1.875,4.37s-1.093,2.69-1.525,3.85a9.988,9.988,0,0,0-.7,2.7,3.212,3.212,0,0,0,.575,2.2,5.771,5.771,0,0,0,1.6,1.55,6.287,6.287,0,0,0,1.875.85,2.456,2.456,0,0,0,1.35.1,6.3,6.3,0,0,0,2.55-1.22,22.3,22.3,0,0,0,2.825-2.5c0.95-.98,1.891-2.07,2.825-3.25s1.807-2.33,2.625-3.45,1.532-2.14,2.15-3.08,1.091-1.65,1.425-2.15a1.571,1.571,0,0,0,.125-0.67,3.17,3.17,0,0,0-.1-0.98,0.968,0.968,0,0,0-.375-0.6q-0.252-.15-0.65.45Q473.716,1302.96,471.992,1305.44Zm14.3-7.13a4.69,4.69,0,0,0-.825-2.2,6.979,6.979,0,0,0-2.3-2.07,8.253,8.253,0,0,0-4.25-.93,4.44,4.44,0,0,0-2.675,1.05,15.225,15.225,0,0,0-2.7,2.75,30.477,30.477,0,0,0-2.5,3.8c-0.782,1.4-1.475,2.8-2.075,4.18a39.125,39.125,0,0,0-1.475,3.92,15.453,15.453,0,0,0-.675,3,4.015,4.015,0,0,0,.35,1.98,7,7,0,0,0,1.35,2.05,7.291,7.291,0,0,0,5.45,2.27,8.142,8.142,0,0,0,3.625-.93,21.391,21.391,0,0,0,3.75-2.42,34.868,34.868,0,0,0,3.6-3.32q1.725-1.83,3.2-3.58c0.983-1.16,1.833-2.23,2.55-3.2s1.258-1.71,1.625-2.25a0.866,0.866,0,0,0,.05-0.55,2.887,2.887,0,0,0-.2-0.75,0.878,0.878,0,0,0-.4-0.47,0.536,0.536,0,0,0-.6.32q-0.95,1.11-2.175,2.58c-0.817.98-1.683,2.01-2.6,3.07s-1.867,2.13-2.85,3.18-1.925,1.98-2.825,2.8a19.022,19.022,0,0,1-2.575,2,4.074,4.074,0,0,1-2.075.77,3.325,3.325,0,0,1-.7-0.07,1.132,1.132,0,0,1-.6-0.35,1.819,1.819,0,0,1-.375-0.8,4.1,4.1,0,0,1-.025-1.38,18.909,18.909,0,0,1,.5-2.91,33.318,33.318,0,0,1,1-3.34q0.6-1.68,1.3-3.3,0.7-1.635,1.4-2.91a14.552,14.552,0,0,1,1.325-2.06,1.657,1.657,0,0,1,1.075-.78,5,5,0,0,1,2.175.43,6.958,6.958,0,0,1,1.45.9c0.383,0.32.692,0.57,0.925,0.77a0.4,0.4,0,0,0,.6.05A1.894,1.894,0,0,0,486.291,1298.31Zm27.8,4.1c-0.483.67-1.075,1.45-1.775,2.35s-1.475,1.88-2.325,2.93-1.717,2.11-2.6,3.17-1.758,2.1-2.625,3.1-1.667,1.9-2.4,2.7c1-2.5,1.925-4.91,2.775-7.25s1.575-4.42,2.175-6.27,1.075-3.38,1.425-4.6,0.542-1.94.575-2.18a2.361,2.361,0,0,0-.75-1.65,7.5,7.5,0,0,0-1.825-1.5,4.412,4.412,0,0,0-1.925-.65,0.8,0.8,0,0,0-.95.85,13.583,13.583,0,0,1-.45,2.08c-0.267.98-.633,2.21-1.1,3.67a32.444,32.444,0,0,1-2.825,5.2,55.1,55.1,0,0,1-3.85,5.23,33.473,33.473,0,0,1-3.925,4.05,5.443,5.443,0,0,1-3.1,1.62c-0.267,0-.292-0.4-0.075-1.22a32.882,32.882,0,0,1,1.05-3.13c0.483-1.26,1.042-2.65,1.675-4.15s1.242-2.93,1.825-4.3,1.083-2.57,1.5-3.62a10.134,10.134,0,0,0,.675-2.08,2.268,2.268,0,0,0-.75-1.62,8.118,8.118,0,0,0-1.8-1.48,4.256,4.256,0,0,0-1.9-.65,0.8,0.8,0,0,0-.95.85,11.738,11.738,0,0,1-.625,2.53q-0.525,1.53-1.275,3.3c-0.5,1.18-1.041,2.41-1.625,3.67s-1.125,2.49-1.625,3.65-0.933,2.24-1.3,3.2a8.406,8.406,0,0,0-.6,2.35,4.388,4.388,0,0,0,.45,2.4,6.087,6.087,0,0,0,1.375,1.78,6.693,6.693,0,0,0,1.725,1.12,3.816,3.816,0,0,0,1.5.4,5.888,5.888,0,0,0,3.05-.92,16.445,16.445,0,0,0,3-2.33,27.844,27.844,0,0,0,2.725-3.05c0.85-1.1,1.608-2.13,2.275-3.1q-1.5,4.005-3.225,8.23c-1.15,2.82-2.325,5.47-3.525,7.97q-2.351,1.755-4.45,3.3c-1.4,1.04-2.633,2-3.7,2.9a21,21,0,0,0-2.575,2.53,3.81,3.81,0,0,0-1.025,2.12,4.88,4.88,0,0,0,.075,1.6,4.486,4.486,0,0,0,.725,1.7,4.2,4.2,0,0,0,1.525,1.33,5.438,5.438,0,0,0,2.575.52,6.056,6.056,0,0,0,3.825-1.65,22.922,22.922,0,0,0,3.925-4.4,53.145,53.145,0,0,0,3.8-6.32q1.85-3.57,3.55-7.43a1.3,1.3,0,0,1,.2-0.15,0.654,0.654,0,0,0,.2-0.15,25.148,25.148,0,0,0,2.55-2.47q1.5-1.62,3.125-3.53,1.625-1.89,3.275-3.92t3-3.75c0.9-1.15,1.65-2.13,2.25-2.93s0.967-1.3,1.1-1.5a1.973,1.973,0,0,0,.125-0.72,3.11,3.11,0,0,0-.1-0.98,0.959,0.959,0,0,0-.375-0.6q-0.25-.15-0.65.45C514.916,1301.28,514.574,1301.75,514.091,1302.41Zm-31,34.45a1.273,1.273,0,0,1-.125-0.9q0.1-1.14,2.1-2.85,2-1.695,5-3.95a39.555,39.555,0,0,1-3.625,5.68c-1.15,1.45-2.158,2.17-3.025,2.17A0.519,0.519,0,0,1,483.091,1336.86Z" transform="translate(-214.031 -1215.06)"/>
</svg>
